<svg xmlns="http://www.w3.org/2000/svg">
<defs>
<font id="DBHeavent" horiz-adv-x="0" >
  <font-face 
    font-family="DB Heavent"
    font-weight="400"
    font-stretch="normal"
    units-per-em="4096"
    panose-1="2 0 5 6 6 0 0 2 0 4"
    ascent="3276"
    descent="-820"
    x-height="1454"
    cap-height="1955"
    bbox="-2125 -1282 3457 3240"
    underline-thickness="82"
    underline-position="-463"
    unicode-range="U+000D-U+F880"
  />
<missing-glyph horiz-adv-x="1151" 
d="M1176 1114v-41h16c13.333 0 20 9.66699 20 29c-0.666992 2 -2 4 -4 6c-4 4 -9.33301 6 -16 6h-16zM1184 1069l-8 0.000976562v-37h-13v94h29c10 0 18 -2 24 -6s9 -10 9 -18c0 -16.667 -2.83301 -26.334 -8.5 -29.001s-12.5 -4 -20.5 -4l29 -37h-13zM1192 1020
c11.333 0 20.833 1.83301 28.5 5.5s14 8.16699 19 13.5s8.5 11 10.5 17s3 11.667 3 17c0 22.667 -5.5 39.334 -16.5 50.001s-25.833 16 -44.5 16s-34.334 -5.33301 -47.001 -16s-19 -27.334 -19 -50.001c0 -14.667 4.83301 -27.167 14.5 -37.5s26.834 -15.5 51.501 -15.5z
M1192 1147c22.667 0 40 -6.66699 52 -20s18 -31.333 18 -54c0 -14.667 -6 -28.5 -18 -41.5s-29.333 -19.5 -52 -19.5c-24.667 0 -43.167 6.5 -55.5 19.5s-18.5 26.833 -18.5 41.5c0 22.667 6.16699 40.667 18.5 54s30.833 20 55.5 20zM561 881.001
c18 -2 39.165 -4.5 63.498 -7.5s49.833 -6.5 76.5 -10.5s53.834 -8.5 81.501 -13.5s53.834 -10.5 78.501 -16.5s46.5 -12.5 65.5 -19.5s33.833 -14.5 44.5 -22.5c-19.333 36 -44.333 68.167 -75 96.5s-64.5 52.333 -101.5 72s-75.833 34.667 -116.5 45s-81 15.5 -121 15.5
c-32 0 -63.5 -3 -94.5 -9s-60.667 -15.167 -89 -27.5s-54.5 -27.833 -78.5 -46.5s-44.667 -40.334 -62 -65.001c33.333 2.66699 67 4.83398 101 6.50098s67.333 2.5 100 2.5h127zM1049 1102l-0.000976562 -397.002c-93.333 26.667 -197.166 49.667 -311.499 69
s-234.5 29 -360.5 29c-88.667 0 -176 -4 -262 -12c8 40.667 24.167 79.834 48.5 117.501s55.5 70.834 93.5 99.501s82 51.5 132 68.5s104.667 25.5 164 25.5c57.333 0 109 -6.5 155 -19.5s86.5 -29.167 121.5 -48.5s64.333 -40 88 -62s41.5 -41.667 53.5 -59v189h78z

<glyph glyph-name="plusminus" unicode="&#x2b;&#x2d;" horiz-adv-x="1667" 
d="M1540 209v-209h-1417v209h1417zM1542 1110v-217h-598v-606h-217v606h-602v217h602v606h217v-606h598z" />
    <glyph glyph-name="ellipsis" unicode="&#x2e;&#x2e;&#x2e;" horiz-adv-x="2777" 
d="M2474 328v-328h-324v328h324zM1548 328v-328h-323v328h323zM623 328v-328h-320v328h320z" />
    <glyph glyph-name="lessequal" unicode="&#x3c;&#x3d;" horiz-adv-x="1647" 
d="M1548 209v-209h-1433v209h1433zM381 1106l1167 -524v-213l-1433 639v200l1433 643v-217z" />
    <glyph glyph-name="greaterequal" unicode="&#x3e;&#x3d;" horiz-adv-x="1683" 
d="M115 1634v217l1433 -643v-200l-1433 -639v213l1167 524zM1548 209v-209h-1433v209h1433z" />
    <glyph glyph-name="fongmanfunnuthai" unicode="&#xe4f;&#x22;" horiz-adv-x="2028" 
d="M1102 2417h246l-29 -459h-184zM684 2417h242l-33 -459h-180zM123 836c0 81.333 10.5 159.5 31.5 234.5s50.833 145 89.5 210s85 124.333 139 178s114 99.5 180 137.5s136.833 67.5 212.5 88.5s154.5 31.5 236.5 31.5c80.667 0 158.167 -10.5 232.5 -31.5
s144 -50.5 209 -88.5s124.167 -83.833 177.5 -137.5s99 -113 137 -178s67.5 -135 88.5 -210s31.5 -153.167 31.5 -234.5s-10.5 -159.5 -31.5 -234.5s-50.5 -145.167 -88.5 -210.5s-83.667 -124.833 -137 -178.5s-112.5 -99.5 -177.5 -137.5s-134.667 -67.5 -209 -88.5
s-151.833 -31.5 -232.5 -31.5c-82 0 -160.833 10.5 -236.5 31.5s-146.5 50.5 -212.5 88.5s-126 83.833 -180 137.5s-100.333 113.167 -139 178.5s-68.5 135.5 -89.5 210.5s-31.5 153.167 -31.5 234.5zM352 844c0 -60 7.83301 -118 23.5 -174s37.667 -108.5 66 -157.5
s62.5 -93.667 102.5 -134s84.333 -74.833 133 -103.5s101.334 -51 158.001 -67s115.667 -24 177 -24c59.333 0 116.666 8 171.999 24s107 38.333 155 67s92 63.167 132 103.5s74.167 85 102.5 134s50.333 101.5 66 157.5s23.5 114 23.5 174s-7.83301 117.667 -23.5 173
s-37.667 107.166 -66 155.499s-62.5 92.333 -102.5 132s-84 73.667 -132 102s-99.667 50.166 -155 65.499s-112.666 23 -171.999 23c-61.333 0 -120.333 -7.66699 -177 -23s-109.334 -37.166 -158.001 -65.499s-93 -62.333 -133 -102s-74.167 -83.667 -102.5 -132
s-50.333 -100.166 -66 -155.499s-23.5 -113 -23.5 -173zM541 844c0 62.667 12.5 122 37.5 178s58.833 105.167 101.5 147.5s92.5 75.833 149.5 100.5s117.833 37 182.5 37c62.667 0 121.667 -12.333 177 -37s103.833 -58.167 145.5 -100.5s74.667 -91.5 99 -147.5
s36.5 -115.333 36.5 -178c0 -64.667 -12.167 -125.334 -36.5 -182.001s-57.333 -106.167 -99 -148.5s-90.167 -75.666 -145.5 -99.999s-114.333 -36.5 -177 -36.5c-64.667 0 -125.5 12.167 -182.5 36.5s-106.833 57.666 -149.5 99.999s-76.5 91.833 -101.5 148.5
s-37.5 117.334 -37.5 182.001zM741 844c0 -38 6.83301 -73.5 20.5 -106.5s32.5 -61.667 56.5 -86s52.5 -43.5 85.5 -57.5s69.167 -21 108.5 -21c36 0 69.667 7 101 21s58.666 33.167 81.999 57.5s41.666 53 54.999 86s20 68.5 20 106.5c0 36 -6.66699 69.833 -20 101.5
s-31.666 59.334 -54.999 83.001s-50.666 42.5 -81.999 56.5s-65 21 -101 21c-39.333 0 -75.5 -7 -108.5 -21s-61.5 -32.833 -85.5 -56.5s-42.833 -51.334 -56.5 -83.001s-20.5 -65.5 -20.5 -101.5z" />
    <glyph glyph-name="dochadaphinthuthai" unicode="&#xe0e;&#xe3a;" horiz-adv-x="1794" 
d="M1286 -840c0 26.667 5.33301 52 16 76s25 45 43 63s39.167 32.167 63.5 42.5s50.5 15.5 78.5 15.5c26.667 0 51.834 -5.16699 75.501 -15.5s44.5 -24.5 62.5 -42.5s32.167 -39 42.5 -63s15.5 -49.333 15.5 -76c0 -27.333 -5.16699 -53.166 -15.5 -77.499
s-24.5 -45.5 -42.5 -63.5s-38.833 -32.333 -62.5 -43s-48.834 -16 -75.501 -16c-28 0 -54.167 5.33301 -78.5 16s-45.5 25 -63.5 43s-32.333 39.167 -43 63.5s-16 50.166 -16 77.499zM1626 -512l-274 -0.000976562c-22.667 32.667 -49 61.167 -79 85.5
s-62.5 44.5 -97.5 60.5s-72 27.833 -111 35.5s-78.5 11.5 -118.5 11.5c-45.333 0 -90 -4.66699 -134 -14s-86.333 -23 -127 -41s-78.5 -40.667 -113.5 -68s-65.833 -59 -92.5 -95v250c32 30 66.333 56 103 78s75 40.167 115 54.5s81 25.166 123 32.499s84 11 126 11
c72.667 0 143.5 -10.833 212.5 -32.5s133.5 -53.167 193.5 -94.5v1287c0 52 -7.83301 103.667 -23.5 155s-41.834 97.5 -78.501 138.5s-85.167 74.333 -145.5 100s-134.833 39.167 -223.5 40.5c-52 0.666992 -99.5 -3.83301 -142.5 -13.5s-81.5 -22.5 -115.5 -38.5
s-64 -34.333 -90 -55s-47.667 -42 -65 -64s-30.833 -43.5 -40.5 -64.5s-15.5 -39.5 -17.5 -55.5c19.333 -11.333 36.5 -26.5 51.5 -45.5s27.833 -41 38.5 -66s18.667 -52.333 24 -82s8 -60.834 8 -93.501v-905h-434v209h164v700c0 26 -1.83301 52.167 -5.5 78.5
s-10.5 52 -20.5 77s-23.667 48.333 -41 70s-40 40.834 -68 57.501c14 63.333 38.667 126.333 74 189s83.333 118.834 144 168.501s135.167 89.834 223.5 120.501s192.5 46 312.5 46c94.667 0 178.834 -9 252.501 -27s138.167 -42.833 193.5 -74.5s102 -69.5 140 -113.5
s68.833 -91.833 92.5 -143.5s40.667 -106.5 51 -164.5s15.5 -117 15.5 -177v-1528z" />
    <glyph glyph-name="topatakphintuthai" unicode="&#xe0f;&#xe3a;" horiz-adv-x="1794" 
d="M1286 -840c0 26.667 5.33301 52 16 76s25 45 43 63s39.167 32.167 63.5 42.5s50.5 15.5 78.5 15.5c26.667 0 51.834 -5.16699 75.501 -15.5s44.5 -24.5 62.5 -42.5s32.167 -39 42.5 -63s15.5 -49.333 15.5 -76c0 -27.333 -5.16699 -53.166 -15.5 -77.499
s-24.5 -45.5 -42.5 -63.5s-38.833 -32.333 -62.5 -43s-48.834 -16 -75.501 -16c-28 0 -54.167 5.33301 -78.5 16s-45.5 25 -63.5 43s-32.333 39.167 -43 63.5s-16 50.166 -16 77.499zM1352 1049c0 52 -7.83203 103.664 -23.499 154.997s-41.834 97.5 -78.501 138.5
s-85.167 74.333 -145.5 100s-134.833 39.167 -223.5 40.5c-52 0.666992 -99.5 -3.83301 -142.5 -13.5s-81.5 -22.5 -115.5 -38.5s-64 -34.333 -90 -55s-47.667 -42 -65 -64s-30.833 -43.5 -40.5 -64.5s-15.5 -39.5 -17.5 -55.5c19.333 -11.333 36.5 -26.5 51.5 -45.5
s27.833 -41 38.5 -66s18.667 -52.333 24 -82s8 -60.834 8 -93.501v-905h-434v209h164v700c0 26 -1.83301 52.167 -5.5 78.5s-10.5 52 -20.5 77s-23.667 48.333 -41 70s-40 40.834 -68 57.501c14 63.333 38.667 126.333 74 189s83.333 118.834 144 168.501
s135.167 89.834 223.5 120.501s192.5 46 312.5 46c94.667 0 178.834 -9 252.501 -27s138.167 -42.833 193.5 -74.5s102 -69.5 140 -113.5s68.833 -91.833 92.5 -143.5s40.667 -106.5 51 -164.5s15.5 -117 15.5 -177v-1528h-274c-4 19.333 -11 40 -21 62
s-23.5 42.333 -40.5 61s-37.667 34.167 -62 46.5s-52.833 18.5 -85.5 18.5s-61.334 -6 -86.001 -18s-45.167 -27.167 -61.5 -45.5s-28.666 -38.5 -36.999 -60.5s-12.5 -43.333 -12.5 -64h-217c0 14 -2.66699 32 -8 54s-15 43.333 -29 64s-32.833 38.334 -56.5 53.001
s-53.834 22 -90.501 22c-30.667 0 -56.667 -5.83301 -78 -17.5s-38.666 -26.834 -51.999 -45.501s-23 -39.334 -29 -62.001s-9 -45.334 -9 -68.001h-250c0 68.667 10.5 128.334 31.5 179.001s49.333 92.834 85 126.501s77.334 58.834 125.001 75.501s98.167 25 151.5 25
c72.667 0 134.167 -15.833 184.5 -47.5s89.833 -77.5 118.5 -137.5c15.333 30 34.166 55.833 56.499 77.5s46 39.5 71 53.5s50.667 24.333 77 31s51.166 10 74.499 10c34 0 64.333 -4.16699 91 -12.5s50.167 -18.5 70.5 -30.5s37.833 -24.833 52.5 -38.5
s26.667 -26.167 36 -37.5v1287z" />
    <glyph glyph-name="dochadasarauthai" unicode="&#xe0e;&#xe38;" horiz-adv-x="1794" 
d="M1372 -1257v397h-147v201h405v-598h-258zM1626 -512l-274 -0.000976562c-22.667 32.667 -49 61.167 -79 85.5s-62.5 44.5 -97.5 60.5s-72 27.833 -111 35.5s-78.5 11.5 -118.5 11.5c-45.333 0 -90 -4.66699 -134 -14s-86.333 -23 -127 -41s-78.5 -40.667 -113.5 -68
s-65.833 -59 -92.5 -95v250c32 30 66.333 56 103 78s75 40.167 115 54.5s81 25.166 123 32.499s84 11 126 11c72.667 0 143.5 -10.833 212.5 -32.5s133.5 -53.167 193.5 -94.5v1287c0 52 -7.83301 103.667 -23.5 155s-41.834 97.5 -78.501 138.5s-85.167 74.333 -145.5 100
s-134.833 39.167 -223.5 40.5c-52 0.666992 -99.5 -3.83301 -142.5 -13.5s-81.5 -22.5 -115.5 -38.5s-64 -34.333 -90 -55s-47.667 -42 -65 -64s-30.833 -43.5 -40.5 -64.5s-15.5 -39.5 -17.5 -55.5c19.333 -11.333 36.5 -26.5 51.5 -45.5s27.833 -41 38.5 -66
s18.667 -52.333 24 -82s8 -60.834 8 -93.501v-905h-434v209h164v700c0 26 -1.83301 52.167 -5.5 78.5s-10.5 52 -20.5 77s-23.667 48.333 -41 70s-40 40.834 -68 57.501c14 63.333 38.667 126.333 74 189s83.333 118.834 144 168.501s135.167 89.834 223.5 120.501
s192.5 46 312.5 46c94.667 0 178.834 -9 252.501 -27s138.167 -42.833 193.5 -74.5s102 -69.5 140 -113.5s68.833 -91.833 92.5 -143.5s40.667 -106.5 51 -164.5s15.5 -117 15.5 -177v-1528z" />
    <glyph glyph-name="topataksarauthai" unicode="&#xe0f;&#xe38;" horiz-adv-x="1794" 
d="M1372 -1257v397h-147v201h405v-598h-258zM1352 1049c0 52 -7.83203 103.664 -23.499 154.997s-41.834 97.5 -78.501 138.5s-85.167 74.333 -145.5 100s-134.833 39.167 -223.5 40.5c-52 0.666992 -99.5 -3.83301 -142.5 -13.5s-81.5 -22.5 -115.5 -38.5
s-64 -34.333 -90 -55s-47.667 -42 -65 -64s-30.833 -43.5 -40.5 -64.5s-15.5 -39.5 -17.5 -55.5c19.333 -11.333 36.5 -26.5 51.5 -45.5s27.833 -41 38.5 -66s18.667 -52.333 24 -82s8 -60.834 8 -93.501v-905h-434v209h164v700c0 26 -1.83301 52.167 -5.5 78.5
s-10.5 52 -20.5 77s-23.667 48.333 -41 70s-40 40.834 -68 57.501c14 63.333 38.667 126.333 74 189s83.333 118.834 144 168.501s135.167 89.834 223.5 120.501s192.5 46 312.5 46c94.667 0 178.834 -9 252.501 -27s138.167 -42.833 193.5 -74.5s102 -69.5 140 -113.5
s68.833 -91.833 92.5 -143.5s40.667 -106.5 51 -164.5s15.5 -117 15.5 -177v-1528h-274c-4 19.333 -11 40 -21 62s-23.5 42.333 -40.5 61s-37.667 34.167 -62 46.5s-52.833 18.5 -85.5 18.5s-61.334 -6 -86.001 -18s-45.167 -27.167 -61.5 -45.5
s-28.666 -38.5 -36.999 -60.5s-12.5 -43.333 -12.5 -64h-217c0 14 -2.66699 32 -8 54s-15 43.333 -29 64s-32.833 38.334 -56.5 53.001s-53.834 22 -90.501 22c-30.667 0 -56.667 -5.83301 -78 -17.5s-38.666 -26.834 -51.999 -45.501s-23 -39.334 -29 -62.001
s-9 -45.334 -9 -68.001h-250c0 68.667 10.5 128.334 31.5 179.001s49.333 92.834 85 126.501s77.334 58.834 125.001 75.501s98.167 25 151.5 25c72.667 0 134.167 -15.833 184.5 -47.5s89.833 -77.5 118.5 -137.5c15.333 30 34.166 55.833 56.499 77.5s46 39.5 71 53.5
s50.667 24.333 77 31s51.166 10 74.499 10c34 0 64.333 -4.16699 91 -12.5s50.167 -18.5 70.5 -30.5s37.833 -24.833 52.5 -38.5s26.667 -26.167 36 -37.5v1287z" />
    <glyph glyph-name="dochadasarauuthai" unicode="&#xe0e;&#xe39;" horiz-adv-x="1794" 
d="M627 -659h409.001v-201c0 -64 13.667 -112.167 41 -144.5s69.666 -48.5 126.999 -48.5c112 0 168 64.333 168 193v201h258v-201c0 -54 -7.33301 -105.167 -22 -153.5s-38.834 -90.5 -72.501 -126.5s-77.667 -64.5 -132 -85.5s-120.833 -31.5 -199.5 -31.5
c-78 0 -144.167 9.5 -198.5 28.5s-98.666 45.833 -132.999 80.5s-59.333 76.5 -75 125.5s-23.5 103.167 -23.5 162.5h-147v201zM1626 -512l-274 -0.000976562c-22.667 32.667 -49 61.167 -79 85.5s-62.5 44.5 -97.5 60.5s-72 27.833 -111 35.5s-78.5 11.5 -118.5 11.5
c-45.333 0 -90 -4.66699 -134 -14s-86.333 -23 -127 -41s-78.5 -40.667 -113.5 -68s-65.833 -59 -92.5 -95v250c32 30 66.333 56 103 78s75 40.167 115 54.5s81 25.166 123 32.499s84 11 126 11c72.667 0 143.5 -10.833 212.5 -32.5s133.5 -53.167 193.5 -94.5v1287
c0 52 -7.83301 103.667 -23.5 155s-41.834 97.5 -78.501 138.5s-85.167 74.333 -145.5 100s-134.833 39.167 -223.5 40.5c-52 0.666992 -99.5 -3.83301 -142.5 -13.5s-81.5 -22.5 -115.5 -38.5s-64 -34.333 -90 -55s-47.667 -42 -65 -64s-30.833 -43.5 -40.5 -64.5
s-15.5 -39.5 -17.5 -55.5c19.333 -11.333 36.5 -26.5 51.5 -45.5s27.833 -41 38.5 -66s18.667 -52.333 24 -82s8 -60.834 8 -93.501v-905h-434v209h164v700c0 26 -1.83301 52.167 -5.5 78.5s-10.5 52 -20.5 77s-23.667 48.333 -41 70s-40 40.834 -68 57.501
c14 63.333 38.667 126.333 74 189s83.333 118.834 144 168.501s135.167 89.834 223.5 120.501s192.5 46 312.5 46c94.667 0 178.834 -9 252.501 -27s138.167 -42.833 193.5 -74.5s102 -69.5 140 -113.5s68.833 -91.833 92.5 -143.5s40.667 -106.5 51 -164.5
s15.5 -117 15.5 -177v-1528z" />
    <glyph glyph-name="topataksarauuthai" unicode="&#xe0f;&#xe39;" horiz-adv-x="1794" 
d="M627 -659h409.001v-201c0 -64 13.667 -112.167 41 -144.5s69.666 -48.5 126.999 -48.5c112 0 168 64.333 168 193v201h258v-201c0 -54 -7.33301 -105.167 -22 -153.5s-38.834 -90.5 -72.501 -126.5s-77.667 -64.5 -132 -85.5s-120.833 -31.5 -199.5 -31.5
c-78 0 -144.167 9.5 -198.5 28.5s-98.666 45.833 -132.999 80.5s-59.333 76.5 -75 125.5s-23.5 103.167 -23.5 162.5h-147v201zM1352 1049c0 52 -7.83203 103.664 -23.499 154.997s-41.834 97.5 -78.501 138.5s-85.167 74.333 -145.5 100s-134.833 39.167 -223.5 40.5
c-52 0.666992 -99.5 -3.83301 -142.5 -13.5s-81.5 -22.5 -115.5 -38.5s-64 -34.333 -90 -55s-47.667 -42 -65 -64s-30.833 -43.5 -40.5 -64.5s-15.5 -39.5 -17.5 -55.5c19.333 -11.333 36.5 -26.5 51.5 -45.5s27.833 -41 38.5 -66s18.667 -52.333 24 -82
s8 -60.834 8 -93.501v-905h-434v209h164v700c0 26 -1.83301 52.167 -5.5 78.5s-10.5 52 -20.5 77s-23.667 48.333 -41 70s-40 40.834 -68 57.501c14 63.333 38.667 126.333 74 189s83.333 118.834 144 168.501s135.167 89.834 223.5 120.501s192.5 46 312.5 46
c94.667 0 178.834 -9 252.501 -27s138.167 -42.833 193.5 -74.5s102 -69.5 140 -113.5s68.833 -91.833 92.5 -143.5s40.667 -106.5 51 -164.5s15.5 -117 15.5 -177v-1528h-274c-4 19.333 -11 40 -21 62s-23.5 42.333 -40.5 61s-37.667 34.167 -62 46.5
s-52.833 18.5 -85.5 18.5s-61.334 -6 -86.001 -18s-45.167 -27.167 -61.5 -45.5s-28.666 -38.5 -36.999 -60.5s-12.5 -43.333 -12.5 -64h-217c0 14 -2.66699 32 -8 54s-15 43.333 -29 64s-32.833 38.334 -56.5 53.001s-53.834 22 -90.501 22
c-30.667 0 -56.667 -5.83301 -78 -17.5s-38.666 -26.834 -51.999 -45.501s-23 -39.334 -29 -62.001s-9 -45.334 -9 -68.001h-250c0 68.667 10.5 128.334 31.5 179.001s49.333 92.834 85 126.501s77.334 58.834 125.001 75.501s98.167 25 151.5 25
c72.667 0 134.167 -15.833 184.5 -47.5s89.833 -77.5 118.5 -137.5c15.333 30 34.166 55.833 56.499 77.5s46 39.5 71 53.5s50.667 24.333 77 31s51.166 10 74.499 10c34 0 64.333 -4.16699 91 -12.5s50.167 -18.5 70.5 -30.5s37.833 -24.833 52.5 -38.5
s26.667 -26.167 36 -37.5v1287z" />
    <glyph glyph-name=".notdef" horiz-adv-x="1151" 
d="M1176 1114v-41h16c13.333 0 20 9.66699 20 29c-0.666992 2 -2 4 -4 6c-4 4 -9.33301 6 -16 6h-16zM1184 1069l-8 0.000976562v-37h-13v94h29c10 0 18 -2 24 -6s9 -10 9 -18c0 -16.667 -2.83301 -26.334 -8.5 -29.001s-12.5 -4 -20.5 -4l29 -37h-13zM1192 1020
c11.333 0 20.833 1.83301 28.5 5.5s14 8.16699 19 13.5s8.5 11 10.5 17s3 11.667 3 17c0 22.667 -5.5 39.334 -16.5 50.001s-25.833 16 -44.5 16s-34.334 -5.33301 -47.001 -16s-19 -27.334 -19 -50.001c0 -14.667 4.83301 -27.167 14.5 -37.5s26.834 -15.5 51.501 -15.5z
M1192 1147c22.667 0 40 -6.66699 52 -20s18 -31.333 18 -54c0 -14.667 -6 -28.5 -18 -41.5s-29.333 -19.5 -52 -19.5c-24.667 0 -43.167 6.5 -55.5 19.5s-18.5 26.833 -18.5 41.5c0 22.667 6.16699 40.667 18.5 54s30.833 20 55.5 20zM561 881.001
c18 -2 39.165 -4.5 63.498 -7.5s49.833 -6.5 76.5 -10.5s53.834 -8.5 81.501 -13.5s53.834 -10.5 78.501 -16.5s46.5 -12.5 65.5 -19.5s33.833 -14.5 44.5 -22.5c-19.333 36 -44.333 68.167 -75 96.5s-64.5 52.333 -101.5 72s-75.833 34.667 -116.5 45s-81 15.5 -121 15.5
c-32 0 -63.5 -3 -94.5 -9s-60.667 -15.167 -89 -27.5s-54.5 -27.833 -78.5 -46.5s-44.667 -40.334 -62 -65.001c33.333 2.66699 67 4.83398 101 6.50098s67.333 2.5 100 2.5h127zM1049 1102l-0.000976562 -397.002c-93.333 26.667 -197.166 49.667 -311.499 69
s-234.5 29 -360.5 29c-88.667 0 -176 -4 -262 -12c8 40.667 24.167 79.834 48.5 117.501s55.5 70.834 93.5 99.501s82 51.5 132 68.5s104.667 25.5 164 25.5c57.333 0 109 -6.5 155 -19.5s86.5 -29.167 121.5 -48.5s64.333 -40 88 -62s41.5 -41.667 53.5 -59v189h78z
M425.997 351.999c0 16.667 -5 28.334 -15 35.001s-20 10 -30 10c-16.667 0 -29 -3.33301 -37 -10s-12 -18.334 -12 -35.001c0 -27.333 16.333 -41 49 -41c10 0 20 3.33301 30 10s15 17 15 31zM89.9971 388.999c0 42 8.5 79.499 25.5 112.499s39.333 60.833 67 83.5
s59.167 40 94.5 52s71.333 18 108 18c38 0 74.167 -5.16699 108.5 -15.5s64.333 -26.166 90 -47.499s46.167 -48.166 61.5 -80.499s23 -70.5 23 -114.5v-323h303v565h78v-635h-533v70h82v332c0 29.333 -5.5 54.833 -16.5 76.5s-26 39.5 -45 53.5s-41.167 24.5 -66.5 31.5
s-52.333 10.5 -81 10.5s-56.334 -4 -83.001 -12s-50.167 -19.833 -70.5 -35.5s-36.666 -34.667 -48.999 -57s-18.5 -47.833 -18.5 -76.5v-295l164 164c-4 0.666992 -9.5 3.16699 -16.5 7.5s-13.833 10 -20.5 17s-12.5 15.667 -17.5 26s-7.5 22.166 -7.5 35.499
c0 35.333 10.333 62.666 31 81.999s48.667 29 84 29c15.333 0 29.666 -2.83301 42.999 -8.5s25 -13.5 35 -23.5s18 -21.833 24 -35.5s9 -28.167 9 -43.5c0 -12 -1.83301 -23.167 -5.5 -33.5s-8 -19.166 -13 -26.499s-10.5 -13.333 -16.5 -18s-11 -7.33398 -15 -8.00098
c-1.33301 -4 -6.16602 -10.167 -14.499 -18.5l-31.5 -30.5l-42.5 -41c-15.667 -15.333 -31.167 -31.666 -46.5 -48.999l-64 -58.5l-67 -64.5h-90v385z" />
    <glyph glyph-name=".null" 
 />
    <glyph glyph-name=".null" 
 />
    <glyph glyph-name="nonmarkingreturn" unicode="&#xd;" horiz-adv-x="791" 
 />
    <glyph glyph-name="space" unicode=" " horiz-adv-x="696" 
 />
    <glyph glyph-name="exclam" unicode="!" horiz-adv-x="885" 
d="M602 321v-321h-323v321h323zM526 497h-167l-60 909v549h287v-549z" />
    <glyph glyph-name="quotedbl" unicode="&#x22;" horiz-adv-x="1184" 
d="M893 1955v-707h-209v707h209zM504 1955v-707h-209v707h209z" />
    <glyph glyph-name="numbersign" unicode="#" horiz-adv-x="1544" 
d="M590 778h332l53 402h-324zM86 573v205h299l53 402h-278v200h307l82 574h205l-82 -574h332l77 574h209l-78 -574h246v-200h-270l-58 -402h246v-205h-278l-78 -573h-213l82 573h-324l-82 -573h-209l78 573h-266z" />
    <glyph glyph-name="dollar" unicode="$" horiz-adv-x="1544" 
d="M325 568c0.666992 -58 11.166 -110.003 31.499 -156.003s47.166 -85.167 80.499 -117.5s72 -57.5 116 -75.5s90.333 -28 139 -30v700c-90 25.333 -170.667 52.666 -242 81.999s-131.833 64.5 -181.5 105.5s-87.667 89.333 -114 145s-39.5 122.5 -39.5 200.5
c0 82 15.167 157.333 45.5 226s71.5 128.167 123.5 178.5s113 90.833 183 121.5s145 49 225 55v180h168v-180c74 -11.333 139.667 -30.166 197 -56.499s107.5 -61.5 150.5 -105.5s79 -97.5 108 -160.5s52.167 -136.5 69.5 -220.5h-254c-14 48 -28.833 89.833 -44.5 125.5
s-34 65.834 -55 90.501s-45.5 43.834 -73.5 57.501s-60.667 23.167 -98 28.5v-657l160 -46c24 -6.66699 51.5 -16 82.5 -28s62.833 -27.333 95.5 -46s64.834 -41 96.501 -67s59.834 -56.667 84.501 -92s44.667 -75.5 60 -120.5s23 -95.833 23 -152.5
c0 -85.333 -15 -163.5 -45 -234.5s-71.833 -132.333 -125.5 -184s-117.334 -92.667 -191.001 -123s-153.834 -47.5 -240.501 -51.5v-228h-168v228c-93.333 8.66699 -178.166 28.334 -254.499 59.001s-141.666 71.5 -195.999 122.5s-96.333 112.167 -126 183.5
s-44.5 152.333 -44.5 243h254zM859.999 179.997c46.667 2.66699 90.502 11.666 131.502 26.999s76.667 37.166 107 65.499s54.166 63.5 71.499 105.5s26 91 26 147c0 50 -8.33301 92.333 -25 127s-39.834 64.334 -69.501 89.001s-65 45.334 -106 62.001
s-86.167 32 -135.5 46v-669zM385.001 1450c0 -47.333 7.66504 -86.833 22.998 -118.5s36.833 -58.5 64.5 -80.5s60.167 -40.5 97.5 -55.5s78 -28.833 122 -41.5v612c-43.333 -4.66699 -83.666 -14.667 -120.999 -30s-69.666 -36 -96.999 -62s-49 -57.667 -65 -95
s-24 -80.333 -24 -129z" />
    <glyph glyph-name="percent" unicode="%" horiz-adv-x="2777" 
d="M471 1406c0 -26.667 0.995117 -54.8311 2.99512 -84.498s6 -58.834 12 -87.501s14.167 -56.167 24.5 -82.5s24 -49.5 41 -69.5s37.667 -35.833 62 -47.5s53.166 -17.5 86.499 -17.5c50 0 90.333 12.5 121 37.5s54.334 56.833 71.001 95.5s27.834 80.667 33.501 126
s8.5 88.666 8.5 129.999c0 26 -0.833008 53.667 -2.5 83s-5.16699 58.333 -10.5 87s-13.166 56.334 -23.499 83.001s-24 50 -41 70s-37.833 36 -62.5 48s-54.334 18 -89.001 18c-32.667 0 -61.167 -6 -85.5 -18s-45.166 -28 -62.499 -48s-31.666 -43.333 -42.999 -70
s-20.166 -54.334 -26.499 -83.001s-10.666 -57.667 -12.999 -87s-3.5 -57 -3.5 -83zM249.995 1402c0 73.333 7.33301 143.498 22 210.498s39.5 126.167 74.5 177.5s81.667 92.333 140 123s131.166 46 218.499 46c88 0 161.167 -14.667 219.5 -44
s104.833 -69.166 139.5 -119.499s59.167 -109 73.5 -176s21.5 -138.167 21.5 -213.5c0 -71.333 -8.33301 -140.166 -25 -206.499s-43.167 -125.166 -79.5 -176.499s-83.166 -92.5 -140.499 -123.5s-127 -46.5 -209 -46.5c-84 0 -155 14.167 -213 42.5
s-104.833 67.166 -140.5 116.499s-61.5 107.333 -77.5 174s-24 138.667 -24 216zM1843 533.001c0 -25.333 0.995117 -52.5 2.99512 -81.5s5.83301 -57.667 11.5 -86s13.834 -55.666 24.501 -81.999s24.334 -49.333 41.001 -69s36.834 -35.5 60.501 -47.5
s51.834 -18 84.501 -18c51.333 0 92.5 12.333 123.5 37s55 56 72 94s28.333 79.833 34 125.5s8.5 89.5 8.5 131.5c0 26 -1 53.667 -3 83s-6 58.333 -12 87s-14.167 56.167 -24.5 82.5s-24 49.5 -41 69.5s-37.667 36 -62 48s-53.166 18 -86.499 18s-62.333 -6 -87 -18
s-45.667 -28 -63 -48s-31.5 -43.333 -42.5 -70s-19.5 -54.5 -25.5 -83.5s-10.167 -58.333 -12.5 -88s-3.5 -57.834 -3.5 -84.501zM1617.99 529.001c0 74 7.66602 144.832 22.999 212.499s40.666 127.167 75.999 178.5s82.333 92.333 141 123s131.667 46 219 46
c88.667 0 162.334 -14.667 221 -44c58.667 -29.333 105.167 -69.166 139.5 -119.499s58.5 -109 72.5 -176s21 -137.833 21 -212.5c0 -72 -8.33301 -141.333 -25 -208s-43.167 -125.5 -79.5 -176.5s-83.166 -91.833 -140.5 -122.5c-57.333 -30.667 -127 -46 -209 -46
c-84 0 -155.167 14.333 -213.5 43s-105.666 67.667 -141.999 117s-62.666 107 -78.999 173s-24.5 136.667 -24.5 212zM2137.99 1995l-1232 -2035h-262l1236 2035h258z" />
    <glyph glyph-name="ampersand" unicode="&#x26;" horiz-adv-x="1749" 
d="M760 1222c28 19.333 56.834 40.499 86.501 63.499s56.667 48.833 81 77.5s44 60.334 59 95.001s22.167 73.667 21.5 117c-0.666992 29.333 -5.83398 56.5 -15.501 81.5s-24 46.5 -43 64.5s-43 32 -72 42s-62.833 15 -101.5 15c-30 0 -58 -4.66699 -84 -14
s-48.5 -23 -67.5 -41s-34 -40.167 -45 -66.5s-16.5 -56.833 -16.5 -91.5c0 -30 6 -59.5 18 -88.5s27.5 -57.833 46.5 -86.5s40.167 -57 63.5 -85zM1274 245.999c-34 -47.333 -72.1631 -88.4961 -114.496 -123.496s-87.5 -64 -135.5 -87s-98.333 -40.167 -151 -51.5
s-106 -17 -160 -17c-90 0 -167.833 9.66699 -233.5 29s-121.5 44.833 -167.5 76.5s-83.167 67.167 -111.5 106.5s-50.333 79.166 -66 119.499s-26.334 78.833 -32.001 115.5s-8.5 68 -8.5 94c0 80 12.167 149.5 36.5 208.5s57.5 111.833 99.5 158.5s91.167 88.5 147.5 125.5
s116.166 73.5 179.499 109.5l-86.5 110c-27.667 35.333 -52.167 71.166 -73.5 107.499s-38.5 74.5 -51.5 114.5s-19.5 83.667 -19.5 131c0 54 9.16699 105.333 27.5 154s45.5 91.5 81.5 128.5s81 66.833 135 89.5s116.667 35 188 37c62.667 2 122.5 -4.16699 179.5 -18.5
s107.5 -37.333 151.5 -69s79.333 -72.334 106 -122.001s40.667 -108.834 42 -177.501c1.33301 -54 -7.16699 -106.167 -25.5 -156.5s-43.5 -98.166 -75.5 -143.499s-69.833 -87.5 -113.5 -126.5s-89.834 -74.167 -138.501 -105.5l368 -442
c10.667 21.333 19.334 44.5 26.001 69.5s12.167 49.5 16.5 73.5s7.66602 46.667 9.99902 68s4.16602 38.666 5.49902 51.999h225c-5.33301 -53.333 -11.5 -100.333 -18.5 -141s-15.5 -77.667 -25.5 -111s-21.667 -64.833 -35 -94.5s-29 -60.167 -47 -91.5l385 -446h-311z
M684.005 958.003c-45.333 -26.667 -88.5 -54.002 -129.5 -82.002s-77 -59.167 -108 -93.5s-55.833 -73.5 -74.5 -117.5s-28 -95 -28 -153c0 -51.333 10.667 -97.666 32 -138.999s49.5 -76.666 84.5 -105.999s75.167 -51.833 120.5 -67.5s92 -23.5 140 -23.5
c90.667 0 170.5 21 239.5 63s128.5 100.333 178.5 175z" />
    <glyph glyph-name="quotesingle" unicode="'" horiz-adv-x="770" 
d="M489 1955v-707h-209v707h209z" />
    <glyph glyph-name="parenleft" unicode="(" horiz-adv-x="721" 
d="M561 -545c-65.333 101.333 -125.167 203.497 -179.5 306.497s-101 208 -140 315s-69.167 216.667 -90.5 329s-32 228.5 -32 348.5c0 111.333 9.16699 223.333 27.5 336s46 224 83 334s83 217.5 138 322.5s119.5 205.5 193.5 301.5h201
c-67.333 -108.667 -124.833 -215.834 -172.5 -321.501s-86.667 -211.667 -117 -318s-52.5 -213.666 -66.5 -321.999s-21 -219.166 -21 -332.499c0 -114 7 -225.167 21 -333.5s36.167 -215.666 66.5 -321.999s69.333 -212.666 117 -318.999s105.167 -214.5 172.5 -324.5h-201
z" />
    <glyph glyph-name="parenright" unicode=")" horiz-adv-x="721" 
d="M-37 -545c66.667 103.333 123.334 207.332 170.001 311.999s84.667 210.5 114 317.5s50.833 215 64.5 324s20.5 219.833 20.5 332.5c0 114.667 -6.83301 226.5 -20.5 335.5s-35.5 217 -65.5 324s-68.833 214 -116.5 321s-105.834 215.833 -174.501 326.5h201
c68.667 -104.667 130 -208.834 184 -312.501s99.833 -209 137.5 -316s66.5 -216.667 86.5 -329s30 -228.833 30 -349.5c0 -110.667 -9 -222 -27 -334s-45.167 -222.667 -81.5 -332s-81.833 -216.166 -136.5 -320.499s-119 -204.166 -193 -299.499h-193z" />
    <glyph glyph-name="asterisk" unicode="*" horiz-adv-x="975" 
d="M860 1760l52 -147l-289 -107l180 -254l-131 -90l-185 262l-176 -262l-143 90l180 254l-288 102l51 152l295 -107v308h163v-308z" />
    <glyph glyph-name="plus" unicode="+" horiz-adv-x="1667" 
d="M1542 860v-217h-598v-606h-217v606h-602v217h602v606h217v-606h598z" />
    <glyph glyph-name="comma" unicode="," horiz-adv-x="770" 
d="M549 328v-290.999c0 -54.667 -6.16699 -107.334 -18.5 -158.001s-31.833 -97.167 -58.5 -139.5s-60.667 -79 -102 -110s-91 -54.167 -149 -69.5v174c31.333 8.66699 57.833 23.5 79.5 44.5s39 44.167 52 69.5s22.333 51.5 28 78.5s8.5 51.5 8.5 73.5h-168v328h328z" />
    <glyph glyph-name="hyphen" unicode="-" horiz-adv-x="1286" 
d="M1155 870v-237h-1024v237h1024z" />
    <glyph glyph-name="period" unicode="." horiz-adv-x="770" 
d="M549 328v-328h-328v328h328z" />
    <glyph glyph-name="slash" unicode="/" horiz-adv-x="926" 
d="M967 1998l-807 -2039h-217l799 2039h225z" />
    <glyph glyph-name="zero" unicode="0" horiz-adv-x="1556" 
d="M778 201c64.667 0 119.5 12.5 164.5 37.5s82.167 58.333 111.5 100s52.166 89.5 68.499 143.5s28.333 109.833 36 167.5s12.334 115 14.001 172s2.5 109.5 2.5 157.5s-0.833008 100.5 -2.5 157.5s-6.33398 114.333 -14.001 172s-19.667 113.5 -36 167.5
s-39.166 101.833 -68.499 143.5s-66.5 75 -111.5 100s-99.833 37.5 -164.5 37.5s-119.5 -12.5 -164.5 -37.5s-82.167 -58.333 -111.5 -100s-52.166 -89.5 -68.499 -143.5s-28.333 -109.833 -36 -167.5s-12.334 -115 -14.001 -172s-2.5 -109.5 -2.5 -157.5
s0.833008 -100.5 2.5 -157.5s6.33398 -114.333 14.001 -172s19.667 -113.5 36 -167.5s39.166 -101.833 68.499 -143.5s66.5 -75 111.5 -100s99.833 -37.5 164.5 -37.5zM778 -29c-74.667 0 -141.33 8.33301 -199.997 25s-110.667 40 -156 70s-84.333 65.5 -117 106.5
s-60.334 86 -83.001 135s-41.167 101.167 -55.5 156.5s-25.333 111.833 -33 169.5s-12.834 115.667 -15.501 174s-4 115.5 -4 171.5c0 74 2.5 150.5 7.5 229.5s15.5 155.833 31.5 230.5s38.833 145.167 68.5 211.5s69.167 124.5 118.5 174.5s109.666 89.5 180.999 118.5
s157 43.5 257 43.5c99.333 0 184.833 -14.5 256.5 -43.5s132.167 -68.5 181.5 -118.5s88.833 -108.167 118.5 -174.5s52.5 -136.833 68.5 -211.5s26.5 -151.5 31.5 -230.5s7.5 -155.5 7.5 -229.5s-2.5 -150.5 -7.5 -229.5s-15.5 -155.833 -31.5 -230.5
s-38.833 -145.167 -68.5 -211.5s-69.167 -124.5 -118.5 -174.5s-109.833 -89.5 -181.5 -118.5s-157.167 -43.5 -256.5 -43.5z" />
    <glyph glyph-name="one" unicode="1" horiz-adv-x="1556" 
d="M231 1569c70.667 4 136.332 10.667 196.999 20s114.834 27.333 162.501 54s88 64.334 121 113.001s57.167 114.667 72.5 198h217v-1954h-250v1458c-32.667 -22.667 -67.5 -41.334 -104.5 -56.001s-76.833 -26.5 -119.5 -35.5s-88.5 -15.667 -137.5 -20
s-101.833 -6.83301 -158.5 -7.5v230z" />
    <glyph glyph-name="two" unicode="2" horiz-adv-x="1556" 
d="M141 1262c-8 102 1.50293 196.671 28.5029 284.004s69 163 126 227s127.333 114.167 211 150.5s177.5 54.5 281.5 54.5c86 0 166.833 -12.833 242.5 -38.5s141.667 -63 198 -112s100.833 -109.333 133.5 -181s49 -153.5 49 -245.5c0 -60 -7 -115.5 -21 -166.5
s-32.833 -98 -56.5 -141s-51.5 -82.667 -83.5 -119s-66.167 -69.833 -102.5 -100.5s-73.833 -59.167 -112.5 -85.5l-113 -73.5l-169.5 -106c-57 -36 -109.833 -73.833 -158.5 -113.5s-90.667 -81.334 -126 -125.001s-59.333 -90.834 -72 -141.501h999v-229h-1303
c4.66699 74 15.834 141.667 33.501 203s40 117.5 67 168.5s58.167 97.667 93.5 140s73.166 81.666 113.499 117.999s82.5 70.333 126.5 102l133 91.5l154 103.5c46 31.667 86.667 62 122 91s65.666 57.667 90.999 86s46.166 57.666 62.499 87.999s28.333 62.833 36 97.5
s11.5 73.334 11.5 116.001c0 53.333 -9.33301 101.166 -28 143.499s-44.167 78.333 -76.5 108s-70.5 52.5 -114.5 68.5s-91 24 -141 24c-66.667 0 -124.334 -13.833 -173.001 -41.5s-88.667 -64.334 -120 -110.001s-54 -97.667 -68 -156s-19.333 -118.166 -16 -179.499h-258
z" />
    <glyph glyph-name="three" unicode="3" horiz-adv-x="1556" 
d="M642 1122h80.998c48 0 93.667 6.66699 137 20s81.5 33 114.5 59s59.333 58.5 79 97.5s29.5 84.167 29.5 135.5c0 52 -8.5 97.833 -25.5 137.5s-40.5 73 -70.5 100s-65.833 47.333 -107.5 61s-87.167 20.5 -136.5 20.5c-62.667 0 -116.167 -12 -160.5 -36
s-80.666 -56.333 -108.999 -97s-49.166 -87.334 -62.499 -140.001s-20 -107.667 -20 -165h-262c2.66699 95.333 17.834 183.5 45.501 264.5s67.167 151 118.5 210s114.666 105.167 189.999 138.5s162 50 260 50c86.667 0 167 -11.333 241 -34s138 -56.667 192 -102
s96.333 -102.333 127 -171s46 -149 46 -241c0 -43.333 -6.33301 -84.333 -19 -123s-30.167 -74.667 -52.5 -108s-49 -63.666 -80 -90.999s-64.833 -51.333 -101.5 -72c57.333 -14 107 -35.5 149 -64.5s76.833 -64.167 104.5 -105.5s48.167 -88 61.5 -140
s20 -108.333 20 -169c0 -62.667 -8 -121 -24 -175s-38 -103.167 -66 -147.5s-61.333 -83.833 -100 -118.5s-80.334 -63.667 -125.001 -87c-25.333 -13.333 -52.666 -24.333 -81.999 -33s-59.833 -15.5 -91.5 -20.5s-64 -8.33301 -97 -10s-65.833 -2.5 -98.5 -2.5
c-100 0 -190.667 14.167 -272 42.5s-150.666 69.833 -207.999 124.5s-101.5 122.334 -132.5 203.001s-46.5 173 -46.5 277h262c0.666992 -62.667 9.66699 -120.334 27 -173.001s42.666 -98 75.999 -136s74.5 -67.667 123.5 -89s105.833 -32 170.5 -32
c61.333 0 117.5 8.5 168.5 25.5s94.667 41.5 131 73.5s64.5 71 84.5 117s30 98.333 30 157c0 60.667 -10.167 113.667 -30.5 159s-48.5 83.333 -84.5 114s-78.833 53.667 -128.5 69s-103.5 23 -161.5 23c-21.333 0 -41.333 -0.666992 -60 -2l-54 -4v210z" />
    <glyph glyph-name="four" unicode="4" horiz-adv-x="1556" 
d="M956 1557l-624 -881h624v881zM1472 676v-230h-266v-446h-250v446h-864v242l901 1286h213v-1298h266z" />
    <glyph glyph-name="five" unicode="5" horiz-adv-x="1556" 
d="M533 1730l-84.9971 -538.001c52 44.667 107.833 76.334 167.5 95.001s121.5 28 185.5 28c90 0 174.167 -14.167 252.5 -42.5s146.333 -70.666 204 -126.999s103.167 -127 136.5 -212s50 -184.5 50 -298.5c0 -56.667 -6.33301 -112.334 -19 -167.001
s-31.834 -106.5 -57.501 -155.5s-57.834 -94 -96.501 -135s-83.834 -76.5 -135.501 -106.5s-109.834 -53.5 -174.501 -70.5s-136 -25.5 -214 -25.5c-85.333 0 -165.666 12.5 -240.999 37.5s-141.666 61.833 -198.999 110.5s-103.333 109 -138 181s-53.667 155 -57 249h259
c4.66699 -51.333 17.167 -98.666 37.5 -141.999s47.333 -80.833 81 -112.5s73.834 -56.5 120.501 -74.5s99.334 -27 158.001 -27c56 0 108.667 9.5 158 28.5s92.333 47.5 129 85.5s65.5 85.667 86.5 143s31.5 124.333 31.5 201c0 63.333 -10.333 121.833 -31 175.5
s-49.834 100 -87.501 139s-82.834 69.5 -135.501 91.5s-111.334 33 -176.001 33c-80 0 -148.667 -15.833 -206 -47.5s-106 -74.834 -146 -129.501l-229 1l174 1037h991v-225h-794z" />
    <glyph glyph-name="six" unicode="6" horiz-adv-x="1556" 
d="M1150 1466c-5.33301 45.333 -18.3311 86.002 -38.998 122.002s-46.167 66.5 -76.5 91.5s-64.833 44.167 -103.5 57.5s-78.667 20 -120 20c-62.667 0 -117 -10.5 -163 -31.5s-85.333 -49.333 -118 -85s-59.334 -77 -80.001 -124s-37.167 -96.667 -49.5 -149
s-21.333 -105.833 -27 -160.5s-9.5 -107.334 -11.5 -158.001c26.667 36.667 57.5 69.667 92.5 99s73 54.166 114 74.499s84.5 36 130.5 47s93.667 16.5 143 16.5c97.333 0 183.833 -16.833 259.5 -50.5s139.5 -79.667 191.5 -138s91.5 -126.833 118.5 -205.5
s40.5 -163 40.5 -253c0 -50 -4.66699 -101.167 -14 -153.5s-24.5 -103.5 -45.5 -153.5s-48.333 -97 -82 -141s-75.167 -82.667 -124.5 -116s-106.833 -59.666 -172.5 -78.999s-140.834 -29 -225.501 -29c-98.667 0 -184.167 14 -256.5 42s-133.833 65.833 -184.5 113.5
s-91.834 103.167 -123.501 166.5s-56.334 130.5 -74.001 201.5s-29.667 143.333 -36 217s-9.5 145.167 -9.5 214.5c0 91.333 4.66699 181 14 269s25 171.5 47 250.5s51 151.833 87 218.5s80.833 124.167 134.5 172.5s116.834 86.166 189.501 113.499s156.334 41 251.001 41
c78 0 150.167 -11.333 216.5 -34s124.833 -56.167 175.5 -100.5s92 -98.833 124 -163.5s52 -139 60 -223h-253zM801.002 1057c-64.667 0 -122 -11.334 -172 -34.001s-92 -53.5 -126 -92.5s-59.833 -85 -77.5 -138s-26.5 -109.5 -26.5 -169.5c0 -61.333 9 -118.333 27 -171
s44.167 -98.167 78.5 -136.5s76.5 -68.333 126.5 -90s106.667 -32.5 170 -32.5c62 0 117.167 11.167 165.5 33.5s89 52.833 122 91.5s58.167 83.834 75.5 135.501s26 106.5 26 164.5c0 60.667 -8 117.667 -24 171s-40.167 99.833 -72.5 139.5s-72.833 71 -121.5 94
s-105.667 34.5 -171 34.5z" />
    <glyph glyph-name="seven" unicode="7" horiz-adv-x="1556" 
d="M1427 1741c-68.667 -70 -135.001 -145.831 -199.001 -227.498s-123.667 -167.834 -179 -258.501s-105.833 -185.334 -151.5 -284.001s-84.667 -200.834 -117 -306.501s-57.5 -214.167 -75.5 -325.5s-27 -224.333 -27 -339h-287c0 142 18.167 286.333 54.5 433
s87.5 292.834 153.5 438.501s144.833 289.167 236.5 430.5s192.834 278 303.501 410h-1002v242h1290v-213v0z" />
    <glyph glyph-name="eight" unicode="8" horiz-adv-x="1556" 
d="M450 1462c0 -50 9 -94.168 27 -132.501s42.333 -70.333 73 -96s66.5 -45.167 107.5 -58.5s84.5 -20 130.5 -20c45.333 0 86.666 7 123.999 21s69.5 34.167 96.5 60.5s48 58.5 63 96.5s22.5 81 22.5 129c0 46.667 -7.5 88.334 -22.5 125.001s-36.167 67.5 -63.5 92.5
s-60.333 44.167 -99 57.5s-81.667 20 -129 20c-43.333 0 -84.833 -6.33301 -124.5 -19s-74.667 -31.5 -105 -56.5s-54.666 -55.833 -72.999 -92.5s-27.5 -79 -27.5 -127zM188 1475c0 81.333 15.666 153.662 46.999 216.995s73.333 116.833 126 160.5s113.834 77 183.501 100
s142.834 34.5 219.501 34.5c107.333 0 198.833 -15 274.5 -45s137.334 -69.333 185.001 -118s82.334 -103.5 104.001 -164.5s32.5 -122.5 32.5 -184.5c0 -89.333 -21 -169 -63 -239s-102.333 -125.667 -181 -167c52 -21.333 99.333 -48 142 -80s79.167 -68.833 109.5 -110.5
s53.666 -88 69.999 -139s24.5 -106.5 24.5 -166.5c0 -97.333 -18.167 -183.666 -54.5 -258.999s-85.333 -138.666 -147 -189.999s-133.334 -90.333 -215.001 -117s-167.5 -40 -257.5 -40c-95.333 0 -184.833 12.833 -268.5 38.5s-156.834 63.834 -219.501 114.501
s-112 113.834 -148 189.501s-54 163.5 -54 263.5c0 120.667 28.833 222.5 86.5 305.5s140.167 145.167 247.5 186.5c-39.333 18.667 -74 42.334 -104 71.001s-55.5 61 -76.5 97s-36.833 74.5 -47.5 115.5s-16 83.167 -16 126.5zM364.999 564.995
c0 -59.333 10.667 -111.998 32 -157.998s51 -84.833 89 -116.5s82.833 -55.834 134.5 -72.501s107.5 -25 167.5 -25c58.667 0 112.667 9.16699 162 27.5s92 44.166 128 77.499s64 73 84 119s30 96.667 30 152c0 54 -11 103.333 -33 148s-51.833 83 -89.5 115
s-81.167 57 -130.5 75s-101 27 -155 27c-56 0 -109.333 -8 -160 -24s-95.167 -39.5 -133.5 -70.5s-68.833 -69.5 -91.5 -115.5s-34 -99 -34 -159z" />
    <glyph glyph-name="nine" unicode="9" horiz-adv-x="1556" 
d="M390 488c5.33301 -45.333 18.3311 -86.002 38.998 -122.002s46.167 -66.5 76.5 -91.5s64.833 -44.167 103.5 -57.5s78.667 -20 120 -20c62.667 0 117 10.5 163 31.5s85.333 49.333 118 85s59.334 77 80.001 124s37.167 96.667 49.5 149s21.333 105.833 27 160.5
s9.5 107.334 11.5 158.001c-26.667 -36.667 -57.5 -69.667 -92.5 -99s-73 -54.166 -114 -74.499s-84.5 -36 -130.5 -47s-93.667 -16.5 -143 -16.5c-97.333 0 -183.833 16.833 -259.5 50.5s-139.5 79.667 -191.5 138s-91.5 126.833 -118.5 205.5s-40.5 163 -40.5 253
c0 50 4.66699 101.167 14 153.5s24.5 103.5 45.5 153.5s48.333 97 82 141s75.167 82.667 124.5 116s106.833 59.666 172.5 78.999s140.834 29 225.501 29c98.667 0 184.167 -14 256.5 -42s133.833 -65.833 184.5 -113.5s91.834 -103.167 123.501 -166.5
s56.334 -130.5 74.001 -201.5s29.667 -143.5 36 -217.5s9.5 -145.333 9.5 -214c0 -91.333 -4.66699 -181 -14 -269s-25 -171.5 -47 -250.5s-51 -151.833 -87 -218.5s-80.833 -124.167 -134.5 -172.5s-116.834 -86.166 -189.501 -113.499s-156.334 -41 -251.001 -41
c-78 0 -150.333 11.333 -217 34s-125.167 56.167 -175.5 100.5s-91.5 98.833 -123.5 163.5s-52 139 -60 223h253zM738.998 896.998c64.667 0 122 11.334 172 34.001s92 53.5 126 92.5s59.833 85 77.5 138s26.5 109.5 26.5 169.5c0 61.333 -9 118.333 -27 171
s-44.167 98.167 -78.5 136.5s-76.5 68.333 -126.5 90s-106.667 32.5 -170 32.5c-62 0 -117.167 -11.167 -165.5 -33.5s-89 -52.833 -122 -91.5s-58.167 -83.834 -75.5 -135.501s-26 -106.5 -26 -164.5c0 -60.667 8 -117.667 24 -171s40.167 -99.833 72.5 -139.5
s72.833 -71 121.5 -94s105.667 -34.5 171 -34.5z" />
    <glyph glyph-name="colon" unicode=":" horiz-adv-x="770" 
d="M221 1126v328h328v-328h-328zM549 328v-328h-328v328h328z" />
    <glyph glyph-name="semicolon" unicode=";" horiz-adv-x="770" 
d="M221 1126v328h328v-328h-328zM549 328v-290.999c0 -54.667 -6.16699 -107.334 -18.5 -158.001s-31.833 -97.167 -58.5 -139.5s-60.667 -79 -102 -110s-91 -54.167 -149 -69.5v174c31.333 8.66699 57.833 23.5 79.5 44.5s39 44.167 52 69.5s22.333 51.5 28 78.5
s8.5 51.5 8.5 73.5h-168v328h328z" />
    <glyph glyph-name="less" unicode="&#x3c;" horiz-adv-x="1667" 
d="M381 758l1167 -525v-213l-1433 639v201l1433 643v-217z" />
    <glyph glyph-name="equal" unicode="=" horiz-adv-x="1667" 
d="M123 926v209h1417v-209h-1417zM123 369v209h1417v-209h-1417z" />
    <glyph glyph-name="greater" unicode="&#x3e;" horiz-adv-x="1667" 
d="M115 1286v217l1433 -643v-201l-1433 -639v213l1167 525z" />
    <glyph glyph-name="question" unicode="?" horiz-adv-x="1544" 
d="M922 321v-321h-324v321h324zM153 1324c-3.33301 99.333 9.16699 190.668 37.5 274.001s69.666 155 123.999 215s120.5 106.667 198.5 140s165 50 261 50c88 0 168.5 -12.5 241.5 -37.5s135.5 -61.167 187.5 -108.5s92.5 -105.166 121.5 -173.499
s43.5 -146.166 43.5 -233.499c0 -57.333 -10.167 -109.833 -30.5 -157.5s-45.166 -91.167 -74.499 -130.5s-61 -74.5 -95 -105.5l-91 -82.5c-28.667 -27.333 -54.334 -54.166 -77.001 -80.499s-42 -54.5 -58 -84.5s-28.167 -63 -36.5 -99s-12.5 -77.667 -12.5 -125v-133
h-254v157c2 54.667 10.167 104.667 24.5 150s32.666 86.666 54.999 123.999s47.5 71.5 75.5 102.5s56.667 59.833 86 86.5c24 21.333 49.667 45.5 77 72.5s52.5 57 75.5 90s41.5 69.333 55.5 109s20 83.167 18 130.5c-4 48 -13.5 91.333 -28.5 130s-36 71.5 -63 98.5
s-60.333 47.833 -100 62.5s-86.5 22 -140.5 22c-66.667 0 -123.167 -11.333 -169.5 -34s-84.166 -54.334 -113.499 -95.001s-50.666 -89.334 -63.999 -146.001s-20 -119.334 -20 -188.001h-254z" />
    <glyph glyph-name="at" unicode="@" horiz-adv-x="2220" 
d="M1491 733l-11.0059 -31.4961c-4.66699 -13 -9 -27.167 -13 -42.5s-7 -30.5 -9 -45.5s-1.66699 -28.833 1 -41.5s8 -22.834 16 -30.501s20.333 -11.5 37 -11.5c27.333 0 55.666 8.5 84.999 25.5s58.333 40.333 87 70s55.834 64.334 81.501 104.001
s48.167 82.167 67.5 127.5s34.666 92.166 45.999 140.499s17 96.166 17 143.499c0 72 -9.5 139.333 -28.5 202s-45.667 119.667 -80 171s-74.833 97 -121.5 137s-97.5 73.5 -152.5 100.5s-113.333 47.667 -175 62s-124.167 21.5 -187.5 21.5
c-79.333 0 -155 -10.333 -227 -31s-139 -49.834 -201 -87.501s-118.167 -82.834 -168.5 -135.501s-93.166 -111.167 -128.499 -175.5s-62.666 -133.333 -81.999 -207s-29 -150.167 -29 -229.5s10.167 -155.333 30.5 -228s48.833 -140.5 85.5 -203.5
s80.834 -120.167 132.501 -171.5s109 -95.166 172 -131.499s130.5 -64.5 202.5 -84.5s147 -30 225 -30c132 0 252.333 23.833 361 71.5s201.667 117.834 279 210.501h201c-42.667 -68.667 -93.667 -130.334 -153 -185.001s-125 -101 -197 -139s-149.667 -67.167 -233 -87.5
s-170.666 -30.5 -261.999 -30.5c-98.667 0 -193 11.833 -283 35.5s-174 57.167 -252 100.5s-148.833 95.833 -212.5 157.5s-118.167 130.5 -163.5 206.5s-80.333 158.333 -105 247s-37 181.667 -37 279c0 94.667 12.5 185.5 37.5 272.5s60.333 168.167 106 243.5
s100.334 143.833 164.001 205.5s134 114.334 211 158.001s159.667 77.5 248 101.5s179.833 36 274.5 36c86 0 169.333 -9.5 250 -28.5s156.334 -46 227.001 -81s135.167 -77.667 193.5 -128s108.5 -106.833 150.5 -169.5s74.667 -130.834 98 -204.501s35 -151.5 35 -233.5
c0 -78 -10.167 -152 -30.5 -222s-47.5 -134.5 -81.5 -193.5s-73.333 -112 -118 -159s-91.667 -87 -141 -120s-99.166 -58.333 -149.499 -76s-97.833 -26.5 -142.5 -26.5c-24 0 -45.333 3.5 -64 10.5s-34.5 18.333 -47.5 34s-23 36.167 -30 61.5s-10.5 56.333 -10.5 93
c-20.667 -22 -44.334 -45.333 -71.001 -70s-56.667 -47.167 -90 -67.5s-70.166 -37.166 -110.499 -50.499s-83.833 -20 -130.5 -20c-53.333 0 -103 12.667 -149 38s-86.167 59.5 -120.5 102.5s-61.333 92.333 -81 148s-29.5 114.167 -29.5 175.5
c0 63.333 7.16699 126.166 21.5 188.499s35 121.5 62 177.5s60 108 99 156s83 89.5 132 124.5s102.833 62.5 161.5 82.5s121 30 187 30c32.667 0 64.5 -4.33301 95.5 -13s60.167 -22.334 87.5 -41.001s52.333 -42.5 75 -71.5s41.667 -63.5 57 -103.5l50 176h197z
M1166.99 1374c-44 0 -85.166 -8.5 -123.499 -25.5s-73.5 -39.833 -105.5 -68.5s-60.667 -62 -86 -100s-46.833 -77.833 -64.5 -119.5s-31.167 -84.167 -40.5 -127.5s-14 -84.666 -14 -123.999c0 -36 5.33301 -69.5 16 -100.5s26 -57.667 46 -80s44.167 -40 72.5 -53
s60.166 -19.5 95.499 -19.5c38 0 74.833 9 110.5 27s68.834 42 99.501 72s58.834 64.5 84.501 103.5s47.5 79.667 65.5 122s32 84.666 42 126.999s15 81.833 15 118.5c0 32 -5.83301 62.833 -17.5 92.5s-27.334 56 -47.001 79s-42.334 41.5 -68.001 55.5s-52.5 21 -80.5 21z
" />
    <glyph glyph-name="A" unicode="A" horiz-adv-x="1819" 
d="M910 1666l-329 -873h654zM495 565l-216 -565h-292l765 1955h312l765 -1955h-292l-216 565h-826z" />
    <glyph glyph-name="B" unicode="B" horiz-adv-x="1902" 
d="M958 1102c88 0 159.669 10 215.002 30s98.666 45.833 129.999 77.5s52.666 67.5 63.999 107.5s17 80 17 120c0 52 -8.33301 95.833 -25 131.5s-42.167 64.5 -76.5 86.5s-77.5 38 -129.5 48s-113.333 15 -184 15h-463v-616h452zM952.002 1955
c58 0 115.667 -2.83203 173 -8.49902s112.166 -15.834 164.499 -30.501s101 -34.5 146 -59.5s84 -56.667 117 -95s59 -84.166 78 -137.499s28.5 -115.666 28.5 -186.999c0 -43.333 -6.16699 -86 -18.5 -128s-30.833 -81.5 -55.5 -118.5s-55.167 -70 -91.5 -99
s-78.833 -52.167 -127.5 -69.5c74 -18.667 136.5 -42.834 187.5 -72.501s92.5 -64.334 124.5 -104.001s55 -84 69 -133s21 -101.833 21 -158.5c0 -73.333 -11.333 -143.333 -34 -210s-60.167 -125.5 -112.5 -176.5s-121.166 -91.667 -206.499 -122s-191 -45.5 -317 -45.5
h-871v1955h725zM1072 233.001c64.667 0 122.666 6.33203 173.999 18.999s95 32.334 131 59.001s63.667 60 83 100s29 87.667 29 143c0 108 -41.667 188.5 -125 241.5s-204.666 79.5 -363.999 79.5h-494v-642h566z" />
    <glyph glyph-name="C" unicode="C" horiz-adv-x="2007" 
d="M1561 1298c0 34.667 -5.16113 70.3301 -15.4941 106.997s-25.666 72.5 -45.999 107.5s-45.333 68 -75 99s-63.334 58.333 -101.001 82s-79.167 42.334 -124.5 56.001s-94 20.5 -146 20.5c-76 0 -144.667 -10 -206 -30s-115.833 -47.833 -163.5 -83.5
s-89 -77.834 -124 -126.501s-63.667 -102 -86 -160s-39 -119.167 -50 -183.5s-16.5 -129.833 -16.5 -196.5c0 -109.333 13.5 -212.5 40.5 -309.5s67.667 -182 122 -255s122.166 -130.667 203.499 -173s176 -63.5 284 -63.5c74 0 142.167 14.667 204.5 44
s116.5 68.5 162.5 117.5s82.667 105 110 168s43.333 128.5 48 196.5h275c0 -57.333 -8.5 -115.666 -25.5 -174.999s-41.5 -117 -73.5 -173s-71.333 -108.667 -118 -158s-99.334 -92.5 -158.001 -129.5s-122.834 -66.167 -192.501 -87.5s-143.834 -32 -222.501 -32
c-154 0 -289.5 25.5 -406.5 76.5s-214.833 121.5 -293.5 211.5s-138 196.5 -178 319.5s-60 256.833 -60 401.5c0 91.333 8.83301 180.333 26.5 267s43.834 168.334 78.501 245.001s78 147 130 211s112.333 119 181 165s145.667 81.833 231 107.5s179 38.5 281 38.5
c81.333 0 157.5 -9.66699 228.5 -29s135.667 -45.833 194 -79.5s110.166 -73.167 155.499 -118.5s83.666 -94.166 114.999 -146.499s55.166 -106.833 71.499 -163.5s24.5 -112.667 24.5 -168h-285v0z" />
    <glyph glyph-name="D" unicode="D" horiz-adv-x="1958" 
d="M877 233c22 0 48.5 0.5 79.5 1.5s64.333 4.66699 100 11s72.667 16.333 111 30s75.833 33 112.5 58s71.334 56.667 104.001 95s61.5 85.333 86.5 141s44.667 121 59 196s21.5 161.833 21.5 260.5c0 114 -11.5 214.167 -34.5 300.5s-59.833 158.5 -110.5 216.5
s-115.834 101.667 -195.501 131s-176.167 44 -289.5 44h-415v-1485h371zM886 1955c153.333 0 288.5 -19.167 405.5 -57.5s215 -96 294 -173s138.667 -173.667 179 -290s60.5 -252.5 60.5 -408.5c0 -164 -17.667 -309.833 -53 -437.5s-91 -235 -167 -322
s-173.667 -153.167 -293 -198.5s-263 -68 -431 -68h-654v1955h659z" />
    <glyph glyph-name="E" unicode="E" horiz-adv-x="1696" 
d="M1589 1955v-237h-1093v-586h975v-237h-975v-662h1097v-233h-1376v1955h1372z" />
    <glyph glyph-name="F" unicode="F" horiz-adv-x="1593" 
d="M1510 1955v-237h-1014v-586h873v-237h-873v-895h-279v1955h1293z" />
    <glyph glyph-name="G" unicode="G" horiz-adv-x="2088" 
d="M1057 189c50 0 98.167 7.66895 144.5 23.002s89.5 36.5 129.5 63.5s76.5 59.5 109.5 97.5s61.167 79.667 84.5 125s41.5 93.666 54.5 144.999s19.5 104 19.5 158h-532v237h810v-1038h-158l-83 271c-19.333 -26.667 -45 -57.834 -77 -93.501s-71.333 -69.667 -118 -102
s-101 -59.666 -163 -81.999s-132.333 -33.5 -211 -33.5c-154 0 -289.5 25.5 -406.5 76.5s-214.833 121.5 -293.5 211.5s-138 196.5 -178 319.5s-60 256.833 -60 401.5c0 91.333 9 180.333 27 267s44.833 168.334 80.5 245.001s79.834 147 132.501 211s113.667 119 183 165
s147 81.833 233 107.5s180 38.5 282 38.5c81.333 0 158.166 -9.33301 230.499 -28s138.833 -44.334 199.5 -77.001s115 -70.834 163 -114.501s88.833 -90.834 122.5 -141.501s59.334 -103.167 77.001 -157.5s26.5 -108.166 26.5 -161.499h-285c0 31.333 -6 64.333 -18 99
s-29.167 68.5 -51.5 101.5s-49.666 64.333 -81.999 94s-68.333 55.834 -108 78.501s-83 40.667 -130 54s-96.5 20 -148.5 20c-76 0 -144.833 -10 -206.5 -30s-116.834 -47.833 -165.501 -83.5s-90.834 -77.834 -126.501 -126.501s-65.167 -102 -88.5 -160
s-40.666 -119.167 -51.999 -183.5s-17 -129.833 -17 -196.5c0 -109.333 13.5 -212.5 40.5 -309.5s67.667 -182 122 -255s122.166 -130.667 203.499 -173s176 -63.5 284 -63.5z" />
    <glyph glyph-name="H" unicode="H" horiz-adv-x="2007" 
d="M496 1955v-823h1015v823h279v-1955h-279v895h-1015v-895h-279v1955h279z" />
    <glyph glyph-name="I" unicode="I" horiz-adv-x="770" 
d="M528 1955v-1955h-286v1955h286z" />
    <glyph glyph-name="J" unicode="J" horiz-adv-x="1442" 
d="M1225 529c0 -49.333 -4.00391 -97.6689 -12.0039 -145.002s-21 -92.166 -39 -134.499s-41.833 -81.166 -71.5 -116.499s-66.167 -65.833 -109.5 -91.5s-94.166 -45.667 -152.499 -60s-125.5 -21.5 -201.5 -21.5c-89.333 0 -169.333 11.333 -240 34
s-130.5 57.667 -179.5 105s-86.667 107.333 -113 180s-39.5 158.667 -39.5 258v70h287v-66c0 -58 6.83301 -109 20.5 -153s33.334 -81 59.001 -111s56.5 -52.5 92.5 -67.5s76.333 -22.5 121 -22.5c50.667 0 94.834 8 132.501 24s68.834 39 93.501 69s43 66 55 108
s18 89 18 141v1426h279v-1426z" />
    <glyph glyph-name="K" unicode="K" horiz-adv-x="1851" 
d="M496 1955v-937l983 937h356l-811 -753l844 -1202h-357l-682 1019l-333 -310v-709h-279v1955h279z" />
    <glyph glyph-name="L" unicode="L" horiz-adv-x="1488" 
d="M496 1955v-1722h962v-233h-1241v1955h279z" />
    <glyph glyph-name="M" unicode="M" horiz-adv-x="2408" 
d="M564 1955l639 -1603l640 1603h347v-1955h-279v1544l-614 -1544h-187l-614 1544v-1544h-279v1955h347z" />
    <glyph glyph-name="N" unicode="N" horiz-adv-x="2015" 
d="M1485 0l-989 1578v-1578h-279v1955h300l1003 -1590v1590h278v-1955h-313z" />
    <glyph glyph-name="O" unicode="O" horiz-adv-x="2114" 
d="M395 977c0 -64.667 5.5 -129 16.5 -193s28 -125.167 51 -183.5s52.167 -112.666 87.5 -162.999s77.333 -93.833 126 -130.5s104.334 -65.5 167.001 -86.5s132.667 -31.5 210 -31.5c78.667 0 149.834 10.5 213.501 31.5s120.167 49.833 169.5 86.5
s91.833 80.167 127.5 130.5s65 104.666 88 162.999s40 119.5 51 183.5s16.5 128.333 16.5 193s-5.5 129.167 -16.5 193.5s-28 126 -51 185s-52.333 113.667 -88 164s-78.167 94.166 -127.5 131.499s-105.833 66.5 -169.5 87.5s-134.834 31.5 -213.501 31.5
c-77.333 0 -147.333 -10.5 -210 -31.5s-118.334 -50.167 -167.001 -87.5s-90.667 -81.166 -126 -131.499s-64.5 -105 -87.5 -164s-40 -120.667 -51 -185s-16.5 -128.833 -16.5 -193.5zM116 977c0 89.333 8.83301 176.833 26.5 262.5s44.167 166.5 79.5 242.5
s79.333 145.833 132 209.5s113.667 118.667 183 165s147 82.333 233 108s180.333 38.5 283 38.5c103.333 0 198.333 -12.833 285 -38.5s165 -61.667 235 -108s131.5 -101.333 184.5 -165s97.167 -133.5 132.5 -209.5s62 -156.833 80 -242.5s27 -173.167 27 -262.5
s-9 -176.5 -27 -261.5s-44.667 -165.167 -80 -240.5s-79.5 -144.5 -132.5 -207.5s-114.5 -117.333 -184.5 -163s-148.333 -81.167 -235 -106.5s-181.667 -38 -285 -38c-102.667 0 -197 12.667 -283 38s-163.667 60.833 -233 106.5s-130.333 100 -183 163
s-96.667 132.167 -132 207.5s-61.833 155.5 -79.5 240.5s-26.5 172.167 -26.5 261.5z" />
    <glyph glyph-name="P" unicode="P" horiz-adv-x="1802" 
d="M1007 1030c74 -1.33301 136.833 6.33398 188.5 23.001s94 40.334 127 71.001s57 67.167 72 109.5s22.5 89.166 22.5 140.499c0 50.667 -7.5 97.167 -22.5 139.5s-39 78.666 -72 108.999s-75.333 53.833 -127 70.5s-114.5 25 -188.5 25h-511v-688h511zM1077 1955
c102.667 0 192.334 -14.3291 269.001 -42.9961s140.667 -68.834 192 -120.501s89.833 -113 115.5 -184s38.5 -148.833 38.5 -233.5c0 -84 -12.833 -161.333 -38.5 -232s-64.167 -131.834 -115.5 -183.501s-115.333 -91.834 -192 -120.501s-166.334 -42.334 -269.001 -41.001
h-581v-797h-279v1955h860z" />
    <glyph glyph-name="Q" unicode="Q" horiz-adv-x="2114" 
d="M116 977c0 89.333 8.83398 176.831 26.501 262.498s44.167 166.5 79.5 242.5s79.333 145.833 132 209.5s113.667 118.667 183 165s147 82.333 233 108s180.333 38.5 283 38.5c103.333 0 198.333 -12.833 285 -38.5s165 -61.667 235 -108s131.5 -101.333 184.5 -165
s97.167 -133.5 132.5 -209.5s62 -156.833 80 -242.5s27 -173.167 27 -262.5c0 -82.667 -7.66699 -163.667 -23 -243s-38.333 -154.666 -69 -225.999s-68.834 -137.666 -114.501 -198.999s-98.5 -115.333 -158.5 -162l288 -335h-329l-181 210
c-53.333 -20 -109.5 -35.333 -168.5 -46s-121.833 -16 -188.5 -16c-102.667 0 -197 12.667 -283 38s-163.667 60.833 -233 106.5s-130.333 100 -183 163s-96.667 132.167 -132 207.5s-61.833 155.5 -79.5 240.5s-26.5 172.167 -26.5 261.5zM1277 559.998l193.003 -225.002
c43.333 38 80.666 81.333 111.999 130s57.166 100.834 77.499 156.501s35.333 113.667 45 174s14.5 120.833 14.5 181.5c0 64.667 -5.5 129.167 -16.5 193.5s-28 126 -51 185s-52.333 113.667 -88 164s-78.167 94.166 -127.5 131.499s-105.833 66.5 -169.5 87.5
s-134.834 31.5 -213.501 31.5c-77.333 0 -147.333 -10.5 -210 -31.5s-118.334 -50.167 -167.001 -87.5s-90.667 -81.166 -126 -131.499s-64.5 -105 -87.5 -164s-40 -120.667 -51 -185s-16.5 -128.833 -16.5 -193.5s5.5 -129 16.5 -193s28 -125.167 51 -183.5
s52.167 -112.666 87.5 -162.999s77.333 -93.833 126 -130.5s104.334 -65.5 167.001 -86.5s132.667 -31.5 210 -31.5c71.333 0 135.333 8.33301 192 25l-298 346h330z" />
    <glyph glyph-name="R" unicode="R" horiz-adv-x="1905" 
d="M1143 1955c96 0 181.834 -11.666 257.501 -34.999s139.667 -57.333 192 -102s92.166 -99 119.499 -163s41 -136.333 41 -217c0 -58 -8.5 -114.167 -25.5 -168.5s-41.667 -104 -74 -149s-72 -84 -119 -117s-100.5 -57.5 -160.5 -73.5
c38.667 -14.667 72 -35.334 100 -62.001s51.5 -55 70.5 -85s34 -60 45 -90s19.5 -55.333 25.5 -76l80 -292l28 -98c8.66699 -30 18.167 -58 28.5 -84s22 -50.833 35 -74.5s29.167 -46.5 48.5 -68.5h-303c-9.33301 11.333 -18.333 27.333 -27 48s-17.334 43.667 -26.001 69
s-17.167 52.333 -25.5 81l-24.5 85l-85 292c-10 34 -21.833 66.333 -35.5 97s-33.167 57.667 -58.5 81s-58.166 41.833 -98.499 55.5s-91.5 20.5 -153.5 20.5h-502v-829h-279v1955h926zM1024 1057c58 0 114.17 5.16895 168.503 15.502s102.5 28.666 144.5 54.999
s75.5 61.666 100.5 105.999s37.5 100.5 37.5 168.5c0 46.667 -6.83301 89.5 -20.5 128.5s-34.834 72.333 -63.501 100s-64.834 49.167 -108.501 64.5s-95.834 23 -156.501 23h-630v-661h528z" />
    <glyph glyph-name="S" unicode="S" horiz-adv-x="1802" 
d="M1358 1354c-14.667 140.667 -62.165 245.161 -142.498 313.494s-188.166 102.5 -323.499 102.5c-53.333 0 -105.666 -5.33301 -156.999 -16s-97.333 -28.667 -138 -54s-73.334 -58.666 -98.001 -99.999s-37 -92.666 -37 -153.999c0 -51.333 13.667 -94.5 41 -129.5
s64.166 -64.833 110.499 -89.5s100.166 -45.167 161.499 -61.5s126.333 -31.5 195 -45.5c58.667 -12 117.334 -24.667 176.001 -38s115 -29.333 169 -48s104.167 -41.167 150.5 -67.5s86.5 -59 120.5 -98s60.833 -85.167 80.5 -138.5s29.5 -116.333 29.5 -189
c0 -70.667 -10.667 -134.167 -32 -190.5s-50.333 -106 -87 -149s-80 -79.833 -130 -110.5s-103.667 -55.667 -161 -75s-117 -33.5 -179 -42.5s-123.667 -13.5 -185 -13.5c-112.667 0 -218.5 13.667 -317.5 41s-185.5 69.833 -259.5 127.5s-132.333 131 -175 220
s-64 195.167 -64 318.5h263c0 -83.333 15 -155 45 -215s70.667 -109.5 122 -148.5s110.833 -67.833 178.5 -86.5s139.5 -28 215.5 -28c39.333 0 78.833 2 118.5 6s77.667 11.167 114 21.5s70.333 23.833 102 40.5s59 37.834 82 63.501s41.167 56 54.5 91s20 75.5 20 121.5
c0 60 -13 108.667 -39 146s-62.333 68 -109 92s-102.167 44 -166.5 60l-210.5 51l-171 41.5c-57.333 14.333 -112.5 31 -165.5 50s-102.333 41.333 -148 67s-85.334 56.334 -119.001 92.001s-60.167 77.5 -79.5 125.5s-29 104 -29 168c0 66 9.33301 126.167 28 180.5
s44.334 102.833 77.001 145.5s71.667 79.834 117 111.501s94.666 57.834 147.999 78.501s109.833 36 169.5 46s120.167 15 181.5 15c102 0 195.833 -13.333 281.5 -40s160 -67 223 -121s113.167 -121.667 150.5 -203s58.666 -176.333 63.999 -285h-266v0z" />
    <glyph glyph-name="T" unicode="T" horiz-adv-x="1537" 
d="M8 1718v237h1521v-237h-625v-1718h-279v1718h-617z" />
    <glyph glyph-name="U" unicode="U" horiz-adv-x="2032" 
d="M1014 -40c-119.333 0 -227.833 14.667 -325.5 44s-181.5 74.5 -251.5 135.5s-124.167 138.667 -162.5 233s-57.5 206.5 -57.5 336.5v1246h279v-1246c0 -87.333 12.167 -163.5 36.5 -228.5s59 -119 104 -162s99.333 -75.333 163 -97s135.167 -32.5 214.5 -32.5
c78.667 0 150.167 10.833 214.5 32.5s119.333 54 165 97s80.834 97 105.501 162s37 141.167 37 228.5v1246h279v-1246c0 -130 -19.333 -242.167 -58 -336.5s-93.334 -172 -164.001 -233s-155.167 -106.167 -253.5 -135.5s-206.833 -44 -325.5 -44z" />
    <glyph glyph-name="V" unicode="V" horiz-adv-x="1696" 
d="M692 0l-696 1955h303l557 -1655l557 1655h295l-704 -1955h-312z" />
    <glyph glyph-name="W" unicode="W" horiz-adv-x="2572" 
d="M841 0h-286l-522 1955h286l400 -1576l416 1576h286l415 -1576l400 1576h286l-522 -1955h-286l-436 1592z" />
    <glyph glyph-name="X" unicode="X" horiz-adv-x="1696" 
d="M29 1955h336l483 -753l504 753h305l-655 -950l696 -1005h-334l-520 789l-537 -789h-315l684 1005z" />
    <glyph glyph-name="Y" unicode="Y" horiz-adv-x="1787" 
d="M1034 0h-282v801l-752 1154h322l571 -944l572 944h322l-752 -1154z" />
    <glyph glyph-name="Z" unicode="Z" horiz-adv-x="1696" 
d="M1270 1718h-1114v237h1450v-223l-1200 -1499h1226v-233h-1575v218z" />
    <glyph glyph-name="bracketleft" unicode="[" horiz-adv-x="729" 
d="M434 1843v-2183h295v-205h-541v2593h541v-205h-295z" />
    <glyph glyph-name="backslash" unicode="\" horiz-adv-x="926" 
d="M762 -41l-804 2038h217l812 -2038h-225z" />
    <glyph glyph-name="bracketright" unicode="]" horiz-adv-x="729" 
d="M295 -340v2183h-295v205h532v-2593h-532v205h295z" />
    <glyph glyph-name="asciicircum" unicode="^" horiz-adv-x="1667" 
d="M925 1956l624 -1221h-221l-497 987l-497 -987h-221l624 1221h189h-1z" />
    <glyph glyph-name="underscore" unicode="_" horiz-adv-x="1405" 
d="M1405 -188v-160h-1405v160h1405z" />
    <glyph glyph-name="grave" unicode="`" horiz-adv-x="614" 
d="M263 2014l250 -414h-197l-373 414h320z" />
    <glyph glyph-name="a" unicode="a" horiz-adv-x="1491" 
d="M631 193c76 0 140.664 10.334 193.997 31.001s96.833 46.5 130.5 77.5s58.334 65 74.001 102s23.5 71.833 23.5 104.5v196c-27.333 2 -63.333 3.83301 -108 5.5s-92.667 0.5 -144 -3.5s-103.166 -12 -155.499 -24s-99.666 -29.833 -141.999 -53.5
s-76.833 -54.667 -103.5 -93s-40 -85.833 -40 -142.5c0 -38 7.33301 -69.667 22 -95s34.5 -45.833 59.5 -61.5s53.833 -26.834 86.5 -33.501s67 -10 103 -10zM1101 0.000976562c-9.33301 26 -16.167 53.835 -20.5 83.502s-8.16602 66.167 -11.499 109.5
c-28 -38 -60.167 -71.167 -96.5 -99.5s-75.833 -51.833 -118.5 -70.5s-87.334 -32.667 -134.001 -42s-94 -14 -142 -14c-66 0 -128 8.16699 -186 24.5s-108.833 41.666 -152.5 75.999s-78.167 77.833 -103.5 130.5s-38 115 -38 187c0 70.667 11.5 132 34.5 184
s53.667 96.667 92 134s82.5 68.166 132.5 92.499s102.333 43.666 157 57.999s109.667 24.666 165 30.999s107.333 10.166 156 11.499s92 1.16602 130 -0.500977s67.333 -3.16699 88 -4.5v121c0 36 -5.33301 67.167 -16 93.5s-24.834 48.833 -42.501 67.5s-38 33.667 -61 45
s-46.667 20.333 -71 27s-48.666 11.167 -72.999 13.5s-46.5 3.5 -66.5 3.5c-43.333 0 -84.333 -3.83301 -123 -11.5s-73.334 -20.667 -104.001 -39s-56 -43.166 -76 -74.499s-32.333 -70.666 -37 -117.999h-254c6.66699 86 27.667 158.667 63 218s80.833 107.5 136.5 144.5
s119.167 63.833 190.5 80.5s146.333 25 225 25c40 0 81.667 -2.16699 125 -6.5s85.833 -12.666 127.5 -24.999s81.334 -29.333 119.001 -51s70.667 -50 99 -85s50.833 -77.5 67.5 -127.5s25 -109 25 -177v-720c0 -25.333 1.66699 -52 5 -80s7.83301 -55.333 13.5 -82
s12.167 -51.667 19.5 -75s15 -42.666 23 -57.999h-267z" />
    <glyph glyph-name="b" unicode="b" horiz-adv-x="1647" 
d="M430 1999v-730.001c49.333 74 112.333 128.667 189 164s162.667 53 258 53c73.333 0 140.833 -9.66699 202.5 -29s117.167 -46.166 166.5 -80.499s92.666 -75.166 129.999 -122.499s68.5 -99.333 93.5 -156s43.667 -116.667 56 -180s18.5 -128 18.5 -194
c0 -104.667 -13.833 -203 -41.5 -295s-69 -172.333 -124 -241s-123.667 -122.834 -206 -162.501s-178.166 -59.5 -287.499 -59.5c-35.333 0 -73.333 3.16699 -114 9.5s-81.5 17.5 -122.5 33.5s-80.5 37.333 -118.5 64s-71.333 60.667 -100 102v-176h-254v2000h254z
M1274 740.999c0 64.667 -8 128.169 -24 190.502s-41.333 118 -76 167s-79.167 88.5 -133.5 118.5s-119.833 45 -196.5 45c-78 0 -144 -15.667 -198 -47s-98 -72.333 -132 -123s-58.5 -107.667 -73.5 -171s-22.5 -127.333 -22.5 -192c0 -69.333 7.83301 -136.333 23.5 -201
s41 -121.834 76 -171.501s80.667 -89.334 137 -119.001s124.833 -44.5 205.5 -44.5c78.667 0 144.5 15.5 197.5 46.5s95.5 72 127.5 123s54.833 109.5 68.5 175.5s20.5 133.667 20.5 203z" />
    <glyph glyph-name="c" unicode="c" horiz-adv-x="1491" 
d="M1143 975c0 30 -6.99805 61.8311 -20.998 95.498s-35.333 64.667 -64 93s-64.5 51.833 -107.5 70.5s-93.5 28 -151.5 28c-84 0 -154.167 -15.333 -210.5 -46s-101.333 -71.667 -135 -123s-57.667 -110.333 -72 -177s-21.5 -135.667 -21.5 -207
c0 -44 3.33301 -87.167 10 -129.5s17 -82.666 31 -120.999s31.833 -73.666 53.5 -105.999s47.667 -60.333 78 -84s65.166 -42.167 104.499 -55.5s83.666 -20 132.999 -20c62.667 0 117.5 8 164.5 24s86.333 38 118 66s55.667 60.667 72 98s25.166 77.333 26.499 120h262
c-7.33301 -82.667 -27.333 -157 -60 -223s-76.5 -122 -131.5 -168s-120.5 -81.333 -196.5 -106s-161 -37 -255 -37c-111.333 0 -209 18.5 -293 55.5s-154 88.5 -210 154.5s-98.167 144.333 -126.5 235s-42.5 189.667 -42.5 297s13.667 208.333 41 303s69 177.167 125 247.5
s126.667 125.833 212 166.5s186 61 302 61c88.667 0 171 -11 247 -33s141.833 -54.5 197.5 -97.5s99.334 -96.333 131.001 -160s47.5 -137.5 47.5 -221.5h-258v0z" />
    <glyph glyph-name="d" unicode="d" horiz-adv-x="1642" 
d="M1466 1999l0.000976562 -1999h-254v176c-28.667 -41.333 -62 -75.333 -100 -102s-77.5 -48 -118.5 -64s-82 -27.167 -123 -33.5s-78.833 -9.5 -113.5 -9.5c-109.333 0 -205.166 19.833 -287.499 59.5s-151 93.834 -206 162.501s-96.333 149 -124 241
s-41.5 190.333 -41.5 295c0 66 6.16699 130.667 18.5 194s31 123.333 56 180s56.167 108.667 93.5 156s80.666 88.166 129.999 122.499s104.666 61.166 165.999 80.499s129 29 203 29c95.333 0 181.333 -17.667 258 -53s139.667 -90 189 -164v729h254zM368.001 741.001
c0 -46.667 2.83301 -92.502 8.5 -137.502s15.167 -87.833 28.5 -128.5s30.5 -78.167 51.5 -112.5s46.833 -64 77.5 -89s66.5 -44.667 107.5 -59s87.833 -21.5 140.5 -21.5c80.667 0 149.167 14.833 205.5 44.5s102 69.334 137 119.001s60.333 106.834 76 171.501
s23.5 131.667 23.5 201c0 64.667 -7.5 128.667 -22.5 192s-39.5 120.333 -73.5 171s-78 91.667 -132 123s-120 47 -198 47c-76.667 0 -142.167 -15 -196.5 -45s-98.833 -69.5 -133.5 -118.5s-60 -104.667 -76 -167s-24 -125.833 -24 -190.5z" />
    <glyph glyph-name="e" unicode="e" horiz-adv-x="1491" 
d="M1410 448c-14 -72.667 -39 -138.499 -75 -197.499s-80.833 -109.5 -134.5 -151.5s-115.167 -74.5 -184.5 -97.5s-144.333 -34.5 -225 -34.5c-116 0 -217.333 19 -304 57s-158.834 91 -216.501 159s-100.834 148.833 -129.501 242.5s-43 196.167 -43 307.5
c0 108.667 16.333 209 49 301s78.834 171.5 138.501 238.5s131 119.5 214 157.5s174.5 57 274.5 57c87.333 0 164.333 -12.667 231 -38s124.5 -59.5 173.5 -102.5s90 -92.5 123 -148.5s59.167 -115 78.5 -177s32.833 -124.833 40.5 -188.5s10.834 -124.167 9.50098 -181.5
h-1070c0 -62.667 8.83301 -121.667 26.5 -177s44.667 -103.833 81 -145.5s82 -74.667 137 -99s119.833 -36.5 194.5 -36.5c44.667 0 86.5 6 125.5 18s74 29 105 51s57.833 48.667 80.5 80s40 66.666 52 105.999h248zM762 1262c-59.333 0 -113.166 -10.499 -161.499 -31.499
s-89.833 -49.833 -124.5 -86.5s-62.167 -79.334 -82.5 -128.001s-31.833 -101 -34.5 -157h805c-3.33301 56.667 -15.5 109.667 -36.5 159s-49.333 92 -85 128s-77.334 64.333 -125.001 85s-99.5 31 -155.5 31z" />
    <glyph glyph-name="f" unicode="f" horiz-adv-x="896" 
d="M33 1225l0.00195312 228.999h237v175c0 58.667 7.83301 111.5 23.5 158.5s39.5 87 71.5 120s72.167 58.333 120.5 76s105.166 26.5 170.499 26.5c12 0 27.5 -0.666992 46.5 -2s39 -3.66602 60 -6.99902s41.5 -8 61.5 -14s37.333 -14 52 -24v-216
c-13.333 6.66699 -27.833 12.5 -43.5 17.5s-31.5 9 -47.5 12s-31.833 5.16699 -47.5 6.5s-29.834 2 -42.501 2c-62 0 -106 -13.5 -132 -40.5s-39 -69.167 -39 -126.5v-164h319v-229h-319v-1225h-254v1225h-237z" />
    <glyph glyph-name="g" unicode="g" horiz-adv-x="1597" 
d="M1421 131c0 -123.333 -16.6689 -229.993 -50.002 -319.993s-79.833 -164.333 -139.5 -223s-131 -102.334 -214 -131.001s-173.833 -43 -272.5 -43c-43.333 0 -88 4 -134 12s-90.667 20.167 -134 36.5s-84.333 36.666 -123 60.999s-72.667 52.833 -102 85.5
s-52.833 69.667 -70.5 111s-27.5 87 -29.5 137h254c2.66699 -42 15.834 -77.833 39.501 -107.5s53 -53.834 88 -72.501s73 -32.334 114 -41.001s80.5 -13 118.5 -13c68 0 128 12.833 180 38.5s95.667 62.167 131 109.5s62 104.5 80 171.5s27 142.167 27 225.5v77
c-21.333 -40 -47.166 -75.167 -77.499 -105.5s-63.666 -55.833 -99.999 -76.5s-75.333 -36.334 -117 -47.001s-84.5 -16 -128.5 -16c-107.333 0 -202.333 19 -285 57s-152 89.667 -208 155s-98.333 141.666 -127 228.999s-43 180.666 -43 279.999c0 60 5 120.5 15 181.5
s26 120 48 177s50.667 110.167 86 159.5s78 92.5 128 129.5s108 66 174 87s141 31.5 225 31.5c36 0 73.667 -5 113 -15s77.833 -24.667 115.5 -44s73.167 -42.833 106.5 -70.5s61.666 -59.5 84.999 -95.5v192h227v-1323zM773.998 221.007c78 0 143.833 15.667 197.5 47
s97.167 72.333 130.5 123s57.333 108 72 172s22 128.667 22 194c0 61.333 -7.83301 122.166 -23.5 182.499s-40.167 114.333 -73.5 162s-76 86.334 -128 116.001s-114.333 44.5 -187 44.5c-77.333 0 -142.833 -14 -196.5 -42s-97.334 -65.833 -131.001 -113.5
s-58.167 -102.667 -73.5 -165s-23 -127.833 -23 -196.5c0 -42 3.33301 -84.167 10 -126.5s17 -83 31 -122s32 -75.167 54 -108.5s48.333 -62.5 79 -87.5s65.834 -44.5 105.501 -58.5s84.5 -21 134.5 -21z" />
    <glyph glyph-name="h" unicode="h" horiz-adv-x="1548" 
d="M430 1999l-0.000976562 -742.001c21.333 34 49.5 65.167 84.5 93.5s73 52.5 114 72.5s83.167 35.667 126.5 47s84 17 122 17c97.333 0 177.833 -13.333 241.5 -40s114.334 -63.667 152.001 -111s64 -103.666 79 -168.999s22.5 -136.333 22.5 -213v-954h-254v979
c0 88 -23.833 157.167 -71.5 207.5s-116.5 75.5 -206.5 75.5c-68.667 0 -128.667 -11.5 -180 -34.5s-94 -54.333 -128 -94s-59.5 -86.167 -76.5 -139.5s-25.5 -110.333 -25.5 -171v-823h-254v1999h254z" />
    <glyph glyph-name="i" unicode="i" horiz-adv-x="639" 
d="M193 1692v307h253v-307h-253zM451 1454v-1454h-254v1454h254z" />
    <glyph glyph-name="j" unicode="j" horiz-adv-x="638" 
d="M197 1692v307h253v-307h-253zM450 -172c0 -65.333 -8.33203 -121.499 -24.999 -168.499s-40.5 -85.667 -71.5 -116s-68.5 -52.666 -112.5 -66.999s-93 -21.5 -147 -21.5c-24.667 0 -47.334 0.833008 -68.001 2.5s-40.334 3.5 -59.001 5.5v218
c18.667 -2.66699 35.334 -4.16699 50.001 -4.5s32.334 -0.5 53.001 -0.5c23.333 0 43.166 3.16699 59.499 9.5s29.5 16.666 39.5 30.999s17.167 33.666 21.5 57.999s6.5 54.5 6.5 90.5v1589h253v-1626z" />
    <glyph glyph-name="k" unicode="k" horiz-adv-x="1457" 
d="M426 1999v-1163l643 618h332l-570 -526l620 -928h-301l-499 761l-225 -208v-553h-250v1999h250z" />
    <glyph glyph-name="l" unicode="l" horiz-adv-x="635" 
d="M442 1999v-1999h-249v1999h249z" />
    <glyph glyph-name="m" unicode="m" horiz-adv-x="2367" 
d="M418 1454l-0.00195312 -211.001c53.333 82.667 117.166 144 191.499 184s161.833 60 262.5 60c42.667 0 84.167 -5.5 124.5 -16.5s77.5 -27.5 111.5 -49.5s64.333 -49 91 -81s48.334 -69 65.001 -111c53.333 84.667 117.5 148.834 192.5 192.501s158.833 65.5 251.5 65.5
c74 0 140.667 -9.83301 200 -29.5s110 -48.667 152 -87s74.333 -86.166 97 -143.499s34 -124 34 -200v-1027h-249v920c0 42.667 -3.33301 85.167 -10 127.5s-19.667 80 -39 113s-46.666 59.833 -81.999 80.5s-82 31 -140 31c-56 0 -106.333 -10.5 -151 -31.5
s-82.5 -49.667 -113.5 -86s-54.667 -78.833 -71 -127.5s-24.5 -100.667 -24.5 -156v-871h-254v920c0 44 -3.16699 87 -9.5 129s-18.666 79.5 -36.999 112.5s-44 59.667 -77 80s-76.5 30.5 -130.5 30.5c-46.667 0 -88.167 -7.33301 -124.5 -22s-68.333 -33.834 -96 -57.501
s-51.167 -50.167 -70.5 -79.5s-35 -58.833 -47 -88.5s-20.833 -58 -26.5 -85s-8.5 -49.833 -8.5 -68.5v-871h-254v1454h242z" />
    <glyph glyph-name="n" unicode="n" horiz-adv-x="1548" 
d="M418 1454l0.99707 -237.002c48.667 84 111 150 187 198s166.333 72 271 72c97.333 0 177.833 -14.333 241.5 -43s114.334 -68 152.001 -118s64 -108.667 79 -176s22.5 -139.333 22.5 -216v-934h-250v959c0 44 -5.83301 85 -17.5 123s-29.167 71.167 -52.5 99.5
s-52.666 50.5 -87.999 66.5s-76.666 24 -123.999 24c-63.333 0 -120.333 -13.167 -171 -39.5s-93.667 -61.166 -129 -104.499s-62.5 -93.166 -81.5 -149.499s-28.5 -114.833 -28.5 -175.5v-803h-254v1454h242z" />
    <glyph glyph-name="o" unicode="o" horiz-adv-x="1593" 
d="M360 725c0 -88 10.333 -165.833 31 -233.5s50.167 -124.667 88.5 -171s84.5 -81.333 138.5 -105s114.333 -35.5 181 -35.5c63.333 0 121.5 11.833 174.5 35.5s98.833 58.667 137.5 105s68.667 103.333 90 171s32 145.5 32 233.5c0 84.667 -10.667 161 -32 229
s-51.333 125.833 -90 173.5s-84.5 84.167 -137.5 109.5s-111.167 38 -174.5 38c-66.667 0 -127 -12.667 -181 -38s-100.167 -61.833 -138.5 -109.5s-67.833 -105.5 -88.5 -173.5s-31 -144.333 -31 -229zM98 725c0 107.333 13.833 208 41.5 302s70.334 175.833 128.001 245.5
s130.5 124.5 218.5 164.5s192.333 60 313 60c119.333 0 223 -20 311 -60s160.833 -94.833 218.5 -164.5s100.5 -151.5 128.5 -245.5s42 -194.667 42 -302c0 -105.333 -14 -204.666 -42 -297.999s-70.833 -174.833 -128.5 -244.5s-130.5 -124.667 -218.5 -165
s-191.667 -60.5 -311 -60.5c-120.667 0 -225 20.167 -313 60.5s-160.833 95.333 -218.5 165s-100.334 151.167 -128.001 244.5s-41.5 192.666 -41.5 297.999z" />
    <glyph glyph-name="p" unicode="p" horiz-adv-x="1647" 
d="M420 1454l-0.00195312 -190.001c22.667 36 50.334 67.833 83.001 95.5s68.834 51 108.501 70s82 33.333 127 43s91.167 14.5 138.5 14.5c73.333 0 140.833 -9.66699 202.5 -29s117.167 -46.166 166.5 -80.499s92.666 -75.166 129.999 -122.499s68.5 -99.333 93.5 -156
s43.667 -116.667 56 -180s18.5 -128 18.5 -194c0 -104.667 -13.833 -203 -41.5 -295s-69 -172.333 -124 -241s-123.667 -122.834 -206 -162.501s-178.166 -59.5 -287.499 -59.5c-35.333 0 -73.333 3.16699 -114 9.5s-81.5 17.5 -122.5 33.5s-80.5 37.333 -118.5 64
s-71.333 60.667 -100 102v-721h-254v1999h244zM1274 740.999c0 64.667 -8 128.169 -24 190.502s-41.333 118 -76 167s-79.167 88.5 -133.5 118.5s-119.833 45 -196.5 45c-78 0 -144 -15.667 -198 -47s-98 -72.333 -132 -123s-58.5 -107.667 -73.5 -171
s-22.5 -127.333 -22.5 -192c0 -69.333 7.83301 -136.333 23.5 -201s41 -121.834 76 -171.501s80.667 -89.334 137 -119.001s124.833 -44.5 205.5 -44.5c78.667 0 144.5 15.5 197.5 46.5s95.5 72 127.5 123s54.833 109.5 68.5 175.5s20.5 133.667 20.5 203z" />
    <glyph glyph-name="q" unicode="q" horiz-adv-x="1638" 
d="M360 713c0 -65.333 8.50098 -129.167 25.501 -191.5s43.167 -117.833 78.5 -166.5s80.333 -87.834 135 -117.501s120 -44.5 196 -44.5c52.667 0 99.667 7 141 21s77.833 33.5 109.5 58.5s58.5 54.5 80.5 88.5s40.167 70.667 54.5 110s24.666 80.5 30.999 123.5
s9.5 86.5 9.5 130.5c0 46.667 -3.5 92.334 -10.5 137.001s-18 86.834 -33 126.501s-34.167 76.167 -57.5 109.5s-51.333 62.166 -84 86.499s-70 43.333 -112 57s-89.333 20.5 -142 20.5c-78.667 0 -145 -15.333 -199 -46s-97.5 -71.5 -130.5 -122.5
s-56.667 -109.5 -71 -175.5s-21.5 -134.333 -21.5 -205zM1212 -545.001l-3.99707 721c-22.667 -32.667 -50 -62 -82 -88s-67.333 -48 -106 -66s-79.834 -31.667 -123.501 -41s-88.5 -14 -134.5 -14c-74.667 0 -142.834 9.33301 -204.501 28s-117.167 44.834 -166.5 78.501
s-92.333 74 -129 121s-67.167 99 -91.5 156s-42.5 117.667 -54.5 182s-18 131.166 -18 200.499c0 102.667 13.667 199.667 41 291s68.166 171.333 122.499 240s122.5 123 204.5 163s178 60 288 60c40 0 81.333 -3.16699 124 -9.5s84.5 -17.833 125.5 -34.5
s80.333 -39.5 118 -68.5s71.167 -65.833 100.5 -110.5v190h240v-1999h-250z" />
    <glyph glyph-name="r" unicode="r" horiz-adv-x="948" 
d="M414 1454l-0.00292969 -307.999c18.667 55.333 44.834 104.5 78.501 147.5s73.5 79 119.5 108s97.333 50.667 154 65s117.334 21.166 182.001 20.499v-266c-91.333 0 -169.833 -12.833 -235.5 -38.5s-119.667 -61.5 -162 -107.5s-73.666 -100.667 -93.999 -164
s-30.5 -132.333 -30.5 -207v-704h-250v1454h238z" />
    <glyph glyph-name="s" unicode="s" horiz-adv-x="1389" 
d="M336 467c0 -53.333 10.3281 -97.499 30.9951 -132.499s48.334 -63 83.001 -84s74.5 -35.833 119.5 -44.5s91.5 -13 139.5 -13c36 0 73.333 2.5 112 7.5s74.334 15 107.001 30s59.5 35.667 80.5 62s31.5 61.166 31.5 104.499c0 40 -9.5 73 -28.5 99s-45 47.833 -78 65.5
s-71.667 32.167 -116 43.5s-91.5 22.666 -141.5 33.999c-42.667 9.33301 -85.5 19.333 -128.5 30s-84.667 23.5 -125 38.5s-78.166 32.833 -113.499 53.5s-66.166 45.334 -92.499 74.001s-47 62.167 -62 100.5s-22.5 82.833 -22.5 133.5c0 74 16 137.333 48 190
s73.833 95.834 125.5 129.501s110 58.5 175 74.5s130.167 24 195.5 24c78.667 0 153.167 -8.5 223.5 -25.5s131.833 -44.333 184.5 -82s94.334 -86 125.001 -145s46.334 -130.5 47.001 -214.5h-254c0 40.667 -9 76.167 -27 106.5s-41.667 55.5 -71 75.5s-62.333 35 -99 45
s-74 15 -112 15c-32.667 0 -66.5 -2.66699 -101.5 -8s-66.833 -14.666 -95.5 -27.999s-52.167 -31.5 -70.5 -54.5s-27.5 -51.833 -27.5 -86.5c0 -32.667 10 -60.834 30 -84.501s46.667 -44 80 -61s71.666 -31.667 114.999 -44s88.666 -23.5 135.999 -33.5
c86.667 -18.667 164 -39.334 232 -62.001s125.333 -50.5 172 -83.5s82.334 -72.667 107.001 -119s37 -102.166 37 -167.499c0 -60 -8.33301 -113.167 -25 -159.5s-39.334 -86.5 -68.001 -120.5s-62.667 -62.833 -102 -86.5s-81.5 -42.5 -126.5 -56.5
s-92.167 -24.167 -141.5 -30.5s-98.666 -9.5 -147.999 -9.5c-82.667 0 -161.167 9.33301 -235.5 28s-139.5 48 -195.5 88s-100.5 91.667 -133.5 155s-49.5 139.666 -49.5 228.999h254v0z" />
    <glyph glyph-name="t" unicode="t" horiz-adv-x="876" 
d="M516 382c0 -32.667 2.16895 -59.832 6.50195 -81.499s11.5 -39.167 21.5 -52.5s23 -22.833 39 -28.5s35.667 -8.5 59 -8.5h36c14 0 28 0.166992 42 0.5s27.667 0.833008 41 1.5s24.666 1.66699 33.999 3v-218c-9.33301 -1.33301 -21.5 -2.33301 -36.5 -3
s-30.833 -1.5 -47.5 -2.5s-33.334 -1.66699 -50.001 -2s-31 -0.5 -43 -0.5c-54 0 -103 5.16699 -147 15.5s-81.5 28.333 -112.5 54s-54.833 60.167 -71.5 103.5s-25 97.666 -25 162.999v899h-237v229h237v375h254v-375h279v-229h-279v-843z" />
    <glyph glyph-name="u" unicode="u" horiz-adv-x="1556" 
d="M1142 0l-0.999023 230c-24.667 -39.333 -53 -75 -85 -107s-67.5 -59.667 -106.5 -83s-81.167 -41.333 -126.5 -54s-93 -19 -143 -19c-93.333 0 -172.166 13.167 -236.499 39.5s-116.333 63.333 -156 111s-68.167 104.667 -85.5 171s-26 139.5 -26 219.5v946h262v-959
c0 -53.333 7 -99.166 21 -137.499s33.167 -69.833 57.5 -94.5s53.166 -42.834 86.499 -54.501s69.666 -17.5 108.999 -17.5c71.333 0 132.833 13.333 184.5 40s94.167 60.167 127.5 100.5s58 84.333 74 132s24 92.5 24 134.5v856h258v-1454h-238z" />
    <glyph glyph-name="v" unicode="v" horiz-adv-x="1382" 
d="M315 1454l381 -1142l381 1142h276l-532 -1454h-256l-536 1454h286z" />
    <glyph glyph-name="w" unicode="w" horiz-adv-x="2096" 
d="M760 0h-270l-453 1454h277l315 -1157l303 1157h234l303 -1157l315 1157h277l-453 -1454h-270l-289 1070z" />
    <glyph glyph-name="x" unicode="x" horiz-adv-x="1442" 
d="M299 0h-283l537 762l-504 692h304l360 -521l360 521h304l-504 -692l537 -762h-283l-414 607z" />
    <glyph glyph-name="y" unicode="y" horiz-adv-x="1389" 
d="M750 -188c-26.667 -68.667 -54.168 -127.331 -82.501 -175.998s-59.166 -88.5 -92.499 -119.5s-70.166 -53.667 -110.499 -68s-85.833 -21.5 -136.5 -21.5c-33.333 0 -64.833 2.16699 -94.5 6.5s-56.834 11.5 -81.501 21.5v234c26.667 -10.667 52.667 -18.834 78 -24.501
s48.333 -8.5 69 -8.5c43.333 0 81.5 10.167 114.5 30.5s57.5 51.166 73.5 92.499l95 241l-566 1434h283l405 -1139l402 1139h266z" />
    <glyph glyph-name="z" unicode="z" horiz-adv-x="1335" 
d="M918 1235h-795v219h1126v-176l-864 -1059h852v-219h-1171v193z" />
    <glyph glyph-name="braceleft" unicode="{" horiz-adv-x="926" 
d="M721 1864c-24.667 0 -45.334 -6.50098 -62.001 -19.501s-30.167 -30.167 -40.5 -51.5s-17.666 -46.166 -21.999 -74.499s-6.5 -57.833 -6.5 -88.5v-504c0 -53.333 -7.66699 -101.166 -23 -143.499s-34 -79.5 -56 -111.5s-45.167 -58.5 -69.5 -79.5
s-45.833 -36.5 -64.5 -46.5c18.667 -7.33301 40.167 -18.833 64.5 -34.5s47.5 -38 69.5 -67s40.667 -65.833 56 -110.5s23 -99.334 23 -164.001v-504c0 -28 2.16699 -55.333 6.5 -82s11.666 -50.667 21.999 -72s23.833 -38.5 40.5 -51.5s37.334 -19.5 62.001 -19.5h147v-185
h-204c-35.333 0 -71.333 7.66699 -108 23s-70.167 38.333 -100.5 69s-55.166 69.167 -74.499 115.5s-29 100.166 -29 161.499v504c0 48.667 -6 92.834 -18 132.501s-28.333 73.167 -49 100.5s-44.834 48.5 -72.501 63.5s-57.5 22.5 -89.5 22.5v201
c32 0 61.833 8.33301 89.5 25s51.834 39.5 72.501 68.5s37 62.833 49 101.5s18 80 18 124v508c0 59.333 9.66699 112.166 29 158.499s44.166 85.333 74.499 117s63.833 55.834 100.5 72.501s72.667 25 108 25h204v-184h-147z" />
    <glyph glyph-name="bar" unicode="|" horiz-adv-x="614" 
d="M410 2200v-2790h-205v2790h205z" />
    <glyph glyph-name="braceright" unicode="}" horiz-adv-x="926" 
d="M205 -360c24.667 0 45.168 6.16406 61.501 18.4971s29.333 28.833 39 49.5s16.5 44.5 20.5 71.5s6 55.5 6 85.5v504c0 57.333 7.66699 107.5 23 150.5s34.166 79.833 56.499 110.5s46 55.834 71 75.501s47.167 34.5 66.5 44.5c-20.667 6.66699 -43.5 19 -68.5 37
s-48.5 42.167 -70.5 72.5s-40.5 67.5 -55.5 111.5s-22.5 95.667 -22.5 155v500c0 32 -2 62.333 -6 91s-10.833 53.834 -20.5 75.501s-22.667 39 -39 52s-36.833 19.5 -61.5 19.5h-148v184h205c34.667 0 70.167 -8.33301 106.5 -25s69.333 -40.834 99 -72.501
s54 -70.667 73 -117s28.5 -99.166 28.5 -158.499v-508c0 -47.333 6.33301 -90.5 19 -129.5s29.667 -72.5 51 -100.5s45.833 -49.833 73.5 -65.5s56.5 -23.5 86.5 -23.5v-201c-30 0 -58.833 -7.83301 -86.5 -23.5s-52.167 -37.5 -73.5 -65.5s-38.333 -61.667 -51 -101
s-19 -82.333 -19 -129v-504c0 -61.333 -9.5 -115.166 -28.5 -161.499s-43.333 -84.833 -73 -115.5s-62.667 -53.667 -99 -69s-71.833 -23 -106.5 -23h-205v185h148z" />
    <glyph glyph-name="asciitilde" unicode="~" horiz-adv-x="1667" 
d="M541 956c36.667 0 71.832 -5.00293 105.499 -15.0029s66.667 -22.5 99 -37.5s64.166 -31.167 95.499 -48.5s62.833 -33.5 94.5 -48.5s63.834 -27.5 96.501 -37.5s66.667 -15 102 -15c8 0 20.5 1.33301 37.5 4s34 9.83398 51 21.501s31.833 29.334 44.5 53.001
s19 56.167 19 97.5h192c-6.66699 -74.667 -20.834 -136.334 -42.501 -185.001s-48.5 -87.167 -80.5 -115.5s-67.667 -48.166 -107 -59.499s-80 -17 -122 -17c-35.333 0 -70.333 5 -105 15s-68.667 22.5 -102 37.5s-66.5 31.167 -99.5 48.5s-65.667 33.5 -98 48.5
s-64.333 27.5 -96 37.5s-63.5 15 -95.5 15c-10.667 0 -24.667 -1.33301 -42 -4s-34.166 -9.66699 -50.499 -21s-30.5 -28.666 -42.5 -51.999s-18 -55.666 -18 -96.999h-192c6.66699 74.667 21.334 136.167 44.001 184.5s50.5 86.666 83.5 114.999s69.333 48 109 59
s79.5 16.5 119.5 16.5z" />
    <glyph glyph-name="saraileftthai" 
d="M-1769 1962l102 209h995v-209h-1097z" />
    <glyph glyph-name="saraileftthai" unicode="&#xf701;" 
d="M-1769 1962l102 209h995v-209h-1097z" />
    <glyph glyph-name="saraiileftthai" 
d="M-1667 2171h733v258h262v-467h-1097z" />
    <glyph glyph-name="saraiileftthai" unicode="&#xf702;" 
d="M-1667 2171h733v258h262v-467h-1097z" />
    <glyph glyph-name="saraueleftthai" 
d="M-1016 2228c0 -28.667 10 -52.834 30 -72.5c20 -19.667 45.667 -29.5 77 -29.5c28.667 0 52.834 9.83301 72.501 29.5s29.5 43.834 29.5 72.5c0 31.333 -9.83301 57 -29.5 77s-43.834 30 -72.501 30c-31.333 0 -57 -10 -77 -30s-30 -45.667 -30 -77zM-1176 2228
c0 36.667 7.00098 71.167 21.001 103.5s33 60.5 57 84.5s52.167 43 84.5 57s67.166 21 104.499 21c36.667 0 71 -7 103 -21s59.667 -33 83 -57s41.833 -52.167 55.5 -84.5s20.5 -66.833 20.5 -103.5s-6.83301 -71.167 -20.5 -103.5s-32.167 -60.5 -55.5 -84.5
s-51 -43 -83 -57s-66.333 -21 -103 -21h-873l107 209h504c-2.66699 10 -4.16699 20 -4.5 30s-0.5 19 -0.5 27z" />
    <glyph glyph-name="saraueleftthai" unicode="&#xf703;" 
d="M-1016 2228c0 -28.667 10 -52.834 30 -72.5c20 -19.667 45.667 -29.5 77 -29.5c28.667 0 52.834 9.83301 72.501 29.5s29.5 43.834 29.5 72.5c0 31.333 -9.83301 57 -29.5 77s-43.834 30 -72.501 30c-31.333 0 -57 -10 -77 -30s-30 -45.667 -30 -77zM-1176 2228
c0 36.667 7.00098 71.167 21.001 103.5s33 60.5 57 84.5s52.167 43 84.5 57s67.166 21 104.499 21c36.667 0 71 -7 103 -21s59.667 -33 83 -57s41.833 -52.167 55.5 -84.5s20.5 -66.833 20.5 -103.5s-6.83301 -71.167 -20.5 -103.5s-32.167 -60.5 -55.5 -84.5
s-51 -43 -83 -57s-66.333 -21 -103 -21h-873l107 209h504c-2.66699 10 -4.16699 20 -4.5 30s-0.5 19 -0.5 27z" />
    <glyph glyph-name="saraueeleftthai" 
d="M-1683 2171h315v258h258v-258h180v258h258v-467h-1114z" />
    <glyph glyph-name="saraueeleftthai" unicode="&#xf704;" 
d="M-1683 2171h315v258h258v-258h180v258h258v-467h-1114z" />
    <glyph glyph-name="maieklowleftthai" 
d="M-934 2470h262v-508h-262v508z" />
    <glyph glyph-name="maieklowleftthai" unicode="&#xf705;" 
d="M-934 2470h262v-508h-262v508z" />
    <glyph glyph-name="maitholowleftthai" 
d="M-1380 1962l0.000976562 250h-144v201h373v-250c60.667 0 115 6.5 163 19.5s88.667 30.667 122 53s59 48.666 77 79c18 30.333 27 63.166 27 98.5h250c0 -58.667 -13.333 -115.167 -40 -169.5s-66.834 -102.333 -120.501 -144s-121 -75 -202 -100
s-175.833 -37.5 -284.5 -37.5h-221z" />
    <glyph glyph-name="maitholowleftthai" unicode="&#xf706;" 
d="M-1380 1962l0.000976562 250h-144v201h373v-250c60.667 0 115 6.5 163 19.5s88.667 30.667 122 53s59 48.666 77 79c18 30.333 27 63.166 27 98.5h250c0 -58.667 -13.333 -115.167 -40 -169.5s-66.834 -102.333 -120.501 -144s-121 -75 -202 -100
s-175.833 -37.5 -284.5 -37.5h-221z" />
    <glyph glyph-name="maitrilowleftthai" 
d="M-942 1962c0 12 -1.49805 28 -4.49805 48s-7.66699 39.5 -14 58.5s-14.166 35.333 -23.499 49s-20 20.5 -32 20.5c-13.333 0 -24.666 -5.83301 -33.999 -17.5s-17 -26.334 -23 -44c-6 -17.667 -10.333 -36.834 -13 -57.501s-4 -39.667 -4 -57h-172
c0 17.333 -1.5 36.333 -4.5 57s-7.33301 39.834 -13 57.501s-12.834 32.334 -21.501 44c-8.66699 11.667 -18.667 17.5 -30 17.5c-13.333 0 -24.666 -6.83301 -33.999 -20.5s-17 -30 -23 -49s-10.333 -38.5 -13 -58.5s-4 -36 -4 -48h-209
c-3.33301 66.667 1.5 124.5 14.5 173.5s31.167 89.833 54.5 122.5s50.5 57 81.5 73s62.833 24 95.5 24c43.333 0 81.5 -10.167 114.5 -30.5s57.5 -46.833 73.5 -79.5c14.667 30.667 39.167 56.667 73.5 78s74.166 32 119.499 32c25.333 0 49.666 -4.33301 72.999 -13
s44.5 -21.334 63.5 -38c19 -16.667 35.167 -37.667 48.5 -63s22.666 -54.333 27.999 -87c13.333 11.333 24.333 27 33 47s15.667 41.833 21 65.5s9.16602 48.334 11.499 74c2.33301 25.667 3.5 49.834 3.5 72.5h222c0 -30.667 -2.83301 -62.334 -8.5 -95
c-5.66699 -32.667 -14.167 -64.834 -25.5 -96.5c-11.333 -31.667 -25 -62 -41 -91s-34.333 -55 -55 -78s-43.5 -42.5 -68.5 -58.5s-51.833 -26.667 -80.5 -32h-180z" />
    <glyph glyph-name="maitrilowleftthai" unicode="&#xf707;" 
d="M-942 1962c0 12 -1.49805 28 -4.49805 48s-7.66699 39.5 -14 58.5s-14.166 35.333 -23.499 49s-20 20.5 -32 20.5c-13.333 0 -24.666 -5.83301 -33.999 -17.5s-17 -26.334 -23 -44c-6 -17.667 -10.333 -36.834 -13 -57.501s-4 -39.667 -4 -57h-172
c0 17.333 -1.5 36.333 -4.5 57s-7.33301 39.834 -13 57.501s-12.834 32.334 -21.501 44c-8.66699 11.667 -18.667 17.5 -30 17.5c-13.333 0 -24.666 -6.83301 -33.999 -20.5s-17 -30 -23 -49s-10.333 -38.5 -13 -58.5s-4 -36 -4 -48h-209
c-3.33301 66.667 1.5 124.5 14.5 173.5s31.167 89.833 54.5 122.5s50.5 57 81.5 73s62.833 24 95.5 24c43.333 0 81.5 -10.167 114.5 -30.5s57.5 -46.833 73.5 -79.5c14.667 30.667 39.167 56.667 73.5 78s74.166 32 119.499 32c25.333 0 49.666 -4.33301 72.999 -13
s44.5 -21.334 63.5 -38c19 -16.667 35.167 -37.667 48.5 -63s22.666 -54.333 27.999 -87c13.333 11.333 24.333 27 33 47s15.667 41.833 21 65.5s9.16602 48.334 11.499 74c2.33301 25.667 3.5 49.834 3.5 72.5h222c0 -30.667 -2.83301 -62.334 -8.5 -95
c-5.66699 -32.667 -14.167 -64.834 -25.5 -96.5c-11.333 -31.667 -25 -62 -41 -91s-34.333 -55 -55 -78s-43.5 -42.5 -68.5 -58.5s-51.833 -26.667 -80.5 -32h-180z" />
    <glyph glyph-name="maichattawalowleftthai" 
d="M-872 2175v-213h-263v213h-233v201h233v209h263v-209h241v-201h-241z" />
    <glyph glyph-name="maichattawalowleftthai" unicode="&#xf708;" 
d="M-872 2175v-213h-263v213h-233v201h233v209h263v-209h241v-201h-241z" />
    <glyph glyph-name="thanthakhatlowleftthai" 
d="M-672 2204c-100 0 -176.833 -19.334 -230.5 -58.001s-80.5 -100 -80.5 -184h-254c0 68.667 13 130.334 39 185.001s63.167 101.167 111.5 139.5s107.5 67.833 177.5 88.5s149 31.667 237 33v-204z" />
    <glyph glyph-name="thanthakhatlowleftthai" unicode="&#xf709;" 
d="M-672 2204c-100 0 -176.833 -19.334 -230.5 -58.001s-80.5 -100 -80.5 -184h-254c0 68.667 13 130.334 39 185.001s63.167 101.167 111.5 139.5s107.5 67.833 177.5 88.5s149 31.667 237 33v-204z" />
    <glyph glyph-name="maieklowrightthai" 
d="M-426 2474h262v-516h-262v516z" />
    <glyph glyph-name="maieklowrightthai" unicode="&#xf70a;" 
d="M-426 2474h262v-516h-262v516z" />
    <glyph glyph-name="maitholowrightthai" 
d="M-922 1966l-0.00195312 250h-143v201h373v-250c60 0 113.833 6.5 161.5 19.5s88 30.667 121 53s58.333 48.666 76 79c17.667 30.333 26.5 63.166 26.5 98.5h250c0 -58.667 -13.167 -115.167 -39.5 -169.5s-66.166 -102.333 -119.499 -144s-120.166 -75 -200.499 -100
s-174.833 -37.5 -283.5 -37.5h-222z" />
    <glyph glyph-name="maitholowrightthai" unicode="&#xf70b;" 
d="M-922 1966l-0.00195312 250h-143v201h373v-250c60 0 113.833 6.5 161.5 19.5s88 30.667 121 53s58.333 48.666 76 79c17.667 30.333 26.5 63.166 26.5 98.5h250c0 -58.667 -13.167 -115.167 -39.5 -169.5s-66.166 -102.333 -119.499 -144s-120.166 -75 -200.499 -100
s-174.833 -37.5 -283.5 -37.5h-222z" />
    <glyph glyph-name="maitrilowrightthai" 
d="M-540 1962c0 12 -1.83691 28 -5.50391 48s-9 39.5 -16 58.5s-15.333 35.333 -25 49s-20.834 20.5 -33.501 20.5c-13.333 0 -25.166 -5.83301 -35.499 -17.5s-18.833 -26.334 -25.5 -44c-6.66699 -17.667 -11.667 -36.834 -15 -57.501s-5 -39.667 -5 -57h-175
c0 17.333 -1.83301 36.333 -5.5 57s-8.83398 39.834 -15.501 57.501s-14.667 32.334 -24 44c-9.33301 11.667 -19.666 17.5 -30.999 17.5c-13.333 0 -25 -6.83301 -35 -20.5s-18.333 -30 -25 -49s-11.667 -38.5 -15 -58.5s-5 -36 -5 -48h-213
c-3.33301 66.667 1.66699 124.5 15 173.5s31.833 89.833 55.5 122.5s51.334 57 83.001 73s64.167 24 97.5 24c22 0 43.333 -2.66699 64 -8s39.834 -12.833 57.501 -22.5s33.334 -21.334 47.001 -35c13.667 -13.667 24.5 -28.5 32.5 -44.5c15.333 30.667 40.5 56.667 75.5 78
s75.5 32 121.5 32c26 0 51.5 -4.33301 76.5 -13s47.833 -21.334 68.5 -38c20.667 -16.667 38.334 -37.667 53.001 -63s24.667 -54.333 30 -87c13.333 11.333 24.5 27 33.5 47s16.167 41.833 21.5 65.5s9.16602 48.334 11.499 74c2.33301 25.667 3.5 49.834 3.5 72.5h226
c0 -46 -6.66699 -93.833 -20 -143.5s-32.166 -96 -56.499 -139s-54 -79.833 -89 -110.5s-74.5 -50 -118.5 -58h-184z" />
    <glyph glyph-name="maitrilowrightthai" unicode="&#xf70c;" 
d="M-540 1962c0 12 -1.83691 28 -5.50391 48s-9 39.5 -16 58.5s-15.333 35.333 -25 49s-20.834 20.5 -33.501 20.5c-13.333 0 -25.166 -5.83301 -35.499 -17.5s-18.833 -26.334 -25.5 -44c-6.66699 -17.667 -11.667 -36.834 -15 -57.501s-5 -39.667 -5 -57h-175
c0 17.333 -1.83301 36.333 -5.5 57s-8.83398 39.834 -15.501 57.501s-14.667 32.334 -24 44c-9.33301 11.667 -19.666 17.5 -30.999 17.5c-13.333 0 -25 -6.83301 -35 -20.5s-18.333 -30 -25 -49s-11.667 -38.5 -15 -58.5s-5 -36 -5 -48h-213
c-3.33301 66.667 1.66699 124.5 15 173.5s31.833 89.833 55.5 122.5s51.334 57 83.001 73s64.167 24 97.5 24c22 0 43.333 -2.66699 64 -8s39.834 -12.833 57.501 -22.5s33.334 -21.334 47.001 -35c13.667 -13.667 24.5 -28.5 32.5 -44.5c15.333 30.667 40.5 56.667 75.5 78
s75.5 32 121.5 32c26 0 51.5 -4.33301 76.5 -13s47.833 -21.334 68.5 -38c20.667 -16.667 38.334 -37.667 53.001 -63s24.667 -54.333 30 -87c13.333 11.333 24.5 27 33.5 47s16.167 41.833 21.5 65.5s9.16602 48.334 11.499 74c2.33301 25.667 3.5 49.834 3.5 72.5h226
c0 -46 -6.66699 -93.833 -20 -143.5s-32.166 -96 -56.499 -139s-54 -79.833 -89 -110.5s-74.5 -50 -118.5 -58h-184z" />
    <glyph glyph-name="maichattawalowrightthai" 
d="M-164 2171v-213h-262v213h-242v201h242v208h262v-208h242v-201h-242z" />
    <glyph glyph-name="maichattawalowrightthai" unicode="&#xf70d;" 
d="M-164 2171v-213h-262v213h-242v201h242v208h262v-208h242v-201h-242z" />
    <glyph glyph-name="thanthakhatlowrightthai" 
d="M-82 2204c-100.667 0 -177.667 -19.334 -231 -58.001s-80 -100 -80 -184h-254c0 68.667 13 130.334 39 185.001s63.167 101.167 111.5 139.5s107.5 67.833 177.5 88.5s149 31.667 237 33v-204z" />
    <glyph glyph-name="thanthakhatlowrightthai" unicode="&#xf70e;" 
d="M-82 2204c-100.667 0 -177.667 -19.334 -231 -58.001s-80 -100 -80 -184h-254c0 68.667 13 130.334 39 185.001s63.167 101.167 111.5 139.5s107.5 67.833 177.5 88.5s149 31.667 237 33v-204z" />
    <glyph glyph-name="maihanakatleftthai" 
d="M-1184 1962v352h262v-143h1086v-209h-1348z" />
    <glyph glyph-name="maihanakatleftthai" unicode="&#xf710;" 
d="M-1184 1962v352h262v-143h1086v-209h-1348z" />
    <glyph glyph-name="nikhahitleftthai" 
d="M-1217 2224c0 38.667 7.5 75.334 22.5 110c15 34.667 35.167 64.667 60.5 90s55.166 45.5 89.499 60.5s71.166 22.5 110.499 22.5c38 0 74.167 -7.5 108.5 -22.5s64.333 -35.167 90 -60.5s46.167 -55.333 61.5 -90s23 -71.334 23 -110c0 -39.333 -7.66699 -76 -23 -110
s-35.833 -63.833 -61.5 -89.5s-55.667 -45.834 -90 -60.501s-70.5 -22 -108.5 -22c-39.333 0 -76.166 7.33301 -110.499 22s-64.166 34.834 -89.499 60.501s-45.5 55.5 -60.5 89.5s-22.5 70.667 -22.5 110zM-1049 2224c0 -15.333 3.16699 -30 9.5 -44
s14.666 -26.167 24.999 -36.5s22.5 -18.666 36.5 -25c14 -6.33301 28.667 -9.5 44 -9.5s30 3.16699 44 9.5s26.167 14.666 36.5 25c10.333 10.333 18.666 22.5 24.999 36.5s9.5 28.667 9.5 44s-3.16699 30 -9.5 44s-14.666 26.167 -24.999 36.5s-22.5 18.666 -36.5 25
c-14 6.33301 -28.667 9.5 -44 9.5s-30 -3.16699 -44 -9.5s-26.167 -14.666 -36.5 -25c-10.333 -10.333 -18.666 -22.5 -24.999 -36.5s-9.5 -28.667 -9.5 -44z" />
    <glyph glyph-name="nikhahitleftthai" unicode="&#xf711;" 
d="M-1217 2224c0 38.667 7.5 75.334 22.5 110c15 34.667 35.167 64.667 60.5 90s55.166 45.5 89.499 60.5s71.166 22.5 110.499 22.5c38 0 74.167 -7.5 108.5 -22.5s64.333 -35.167 90 -60.5s46.167 -55.333 61.5 -90s23 -71.334 23 -110c0 -39.333 -7.66699 -76 -23 -110
s-35.833 -63.833 -61.5 -89.5s-55.667 -45.834 -90 -60.501s-70.5 -22 -108.5 -22c-39.333 0 -76.166 7.33301 -110.499 22s-64.166 34.834 -89.499 60.501s-45.5 55.5 -60.5 89.5s-22.5 70.667 -22.5 110zM-1049 2224c0 -15.333 3.16699 -30 9.5 -44
s14.666 -26.167 24.999 -36.5s22.5 -18.666 36.5 -25c14 -6.33301 28.667 -9.5 44 -9.5s30 3.16699 44 9.5s26.167 14.666 36.5 25c10.333 10.333 18.666 22.5 24.999 36.5s9.5 28.667 9.5 44s-3.16699 30 -9.5 44s-14.666 26.167 -24.999 36.5s-22.5 18.666 -36.5 25
c-14 6.33301 -28.667 9.5 -44 9.5s-30 -3.16699 -44 -9.5s-26.167 -14.666 -36.5 -25c-10.333 -10.333 -18.666 -22.5 -24.999 -36.5s-9.5 -28.667 -9.5 -44z" />
    <glyph glyph-name="maitaikhuleftthai" 
d="M-1405 2306c0 -10 1.33496 -21.8311 4.00195 -35.498s8.33398 -26.667 17.001 -39s21.167 -22.833 37.5 -31.5s37.833 -13 64.5 -13c21.333 0 40.166 3.83301 56.499 11.5s29.833 18.5 40.5 32.5s18.5 30.5 23.5 49.5s7.16699 39.833 6.5 62.5h180
c-1.33301 -22.667 0.333984 -43.5 5.00098 -62.5s12.167 -35.5 22.5 -49.5s23.5 -24.833 39.5 -32.5s34.667 -11.5 56 -11.5c23.333 0 42.666 4.16699 57.999 12.5s27.166 19.5 35.499 33.5s13.333 30.5 15 49.5s1.16699 39.167 -1.5 60.5h204
c8 -63.333 6 -117.833 -6 -163.5s-31 -83.167 -57 -112.5s-57.5 -50.833 -94.5 -64.5s-75.833 -20.5 -116.5 -20.5c-34.667 0 -66.167 5.83301 -94.5 17.5s-53 26.5 -74 44.5s-38.167 37.833 -51.5 59.5s-22 42.834 -26 63.5c-2 -20.667 -10.667 -41.834 -26 -63.501
s-35 -41.5 -59 -59.5s-51.333 -32.833 -82 -44.5s-62.334 -17.5 -95.001 -17.5c-62.667 0 -115.167 10.667 -157.5 32s-76.5 48.166 -102.5 80.499s-44.5 67.5 -55.5 105.5s-16.5 73.333 -16.5 106c0 63.333 11.833 117.166 35.5 161.5c23.667 44.333 55 80.333 94 108
s84 47.667 135 60s103.5 18.5 157.5 18.5h782v-192h-753c-46 0 -82.5 -5.33301 -109.5 -16s-47.167 -23.834 -60.5 -39.5c-13.333 -15.667 -21.833 -32.5 -25.5 -50.5s-5.5 -34.667 -5.5 -50z" />
    <glyph glyph-name="maitaikhuleftthai" unicode="&#xf712;" 
d="M-1405 2306c0 -10 1.33496 -21.8311 4.00195 -35.498s8.33398 -26.667 17.001 -39s21.167 -22.833 37.5 -31.5s37.833 -13 64.5 -13c21.333 0 40.166 3.83301 56.499 11.5s29.833 18.5 40.5 32.5s18.5 30.5 23.5 49.5s7.16699 39.833 6.5 62.5h180
c-1.33301 -22.667 0.333984 -43.5 5.00098 -62.5s12.167 -35.5 22.5 -49.5s23.5 -24.833 39.5 -32.5s34.667 -11.5 56 -11.5c23.333 0 42.666 4.16699 57.999 12.5s27.166 19.5 35.499 33.5s13.333 30.5 15 49.5s1.16699 39.167 -1.5 60.5h204
c8 -63.333 6 -117.833 -6 -163.5s-31 -83.167 -57 -112.5s-57.5 -50.833 -94.5 -64.5s-75.833 -20.5 -116.5 -20.5c-34.667 0 -66.167 5.83301 -94.5 17.5s-53 26.5 -74 44.5s-38.167 37.833 -51.5 59.5s-22 42.834 -26 63.5c-2 -20.667 -10.667 -41.834 -26 -63.501
s-35 -41.5 -59 -59.5s-51.333 -32.833 -82 -44.5s-62.334 -17.5 -95.001 -17.5c-62.667 0 -115.167 10.667 -157.5 32s-76.5 48.166 -102.5 80.499s-44.5 67.5 -55.5 105.5s-16.5 73.333 -16.5 106c0 63.333 11.833 117.166 35.5 161.5c23.667 44.333 55 80.333 94 108
s84 47.667 135 60s103.5 18.5 157.5 18.5h782v-192h-753c-46 0 -82.5 -5.33301 -109.5 -16s-47.167 -23.834 -60.5 -39.5c-13.333 -15.667 -21.833 -32.5 -25.5 -50.5s-5.5 -34.667 -5.5 -50z" />
    <glyph glyph-name="maiekupperleftthai" 
d="M-934 3060h262v-443h-262v443z" />
    <glyph glyph-name="maiekupperleftthai" unicode="&#xf713;" 
d="M-934 3060h262v-443h-262v443z" />
    <glyph glyph-name="maithoupperleftthai" 
d="M-1225 2621v250h-143v201h373v-250c60 0 113.833 6.5 161.5 19.5s88 30.833 121 53.5s58.333 49.167 76 79.5s26.5 62.833 26.5 97.5h250c0 -58 -13.167 -114.167 -39.5 -168.5s-66.166 -102.5 -119.499 -144.5s-120.333 -75.5 -201 -100.5
s-175.334 -37.5 -284.001 -37.5h-221z" />
    <glyph glyph-name="maithoupperleftthai" unicode="&#xf714;" 
d="M-1225 2621v250h-143v201h373v-250c60 0 113.833 6.5 161.5 19.5s88 30.833 121 53.5s58.333 49.167 76 79.5s26.5 62.833 26.5 97.5h250c0 -58 -13.167 -114.167 -39.5 -168.5s-66.166 -102.5 -119.499 -144.5s-120.333 -75.5 -201 -100.5
s-175.334 -37.5 -284.001 -37.5h-221z" />
    <glyph glyph-name="maitriupperleftthai" 
d="M-741 2617c0 12 -1.50195 28 -4.50195 48s-7.66699 39.5 -14 58.5s-14.166 35.333 -23.499 49s-20 20.5 -32 20.5c-13.333 0 -24.833 -5.83301 -34.5 -17.5s-17.834 -26.334 -24.501 -44c-6.66699 -17.667 -11.5 -36.834 -14.5 -57.5c-3 -20.667 -4.5 -39.667 -4.5 -57
h-172c0 17.333 -1.5 36.333 -4.5 57s-7.5 39.834 -13.5 57.5c-6 17.667 -13.333 32.334 -22 44c-8.66699 11.667 -18.667 17.5 -30 17.5c-13.333 0 -24.666 -6.83301 -33.999 -20.5s-16.833 -30 -22.5 -49s-9.83398 -38.5 -12.501 -58.5s-4 -36 -4 -48h-213
c-4 66.667 0.333008 124.667 13 174s30.834 90.333 54.501 123s51.5 57 83.5 73s65 24 99 24c43.333 0 81.5 -10.167 114.5 -30.5s58.833 -47.166 77.5 -80.5c14.667 30.667 39 56.834 73 78.5c34 21.667 74 32.5 120 32.5c26.667 0 51.834 -4.5 75.501 -13.5
s45 -22.167 64 -39.5s35 -38.333 48 -63s21.5 -53 25.5 -85c14 11.333 27 26.833 39 46.5s22.333 41.5 31 65.5s15.5 48.667 20.5 74s7.5 49.333 7.5 72h229c0 -46 -8 -93.833 -24 -143.5s-37.833 -95.834 -65.5 -138.5c-27.667 -42.667 -60.5 -79.5 -98.5 -110.5
s-79 -50.5 -123 -58.5h-184z" />
    <glyph glyph-name="maitriupperleftthai" unicode="&#xf715;" 
d="M-741 2617c0 12 -1.50195 28 -4.50195 48s-7.66699 39.5 -14 58.5s-14.166 35.333 -23.499 49s-20 20.5 -32 20.5c-13.333 0 -24.833 -5.83301 -34.5 -17.5s-17.834 -26.334 -24.501 -44c-6.66699 -17.667 -11.5 -36.834 -14.5 -57.5c-3 -20.667 -4.5 -39.667 -4.5 -57
h-172c0 17.333 -1.5 36.333 -4.5 57s-7.5 39.834 -13.5 57.5c-6 17.667 -13.333 32.334 -22 44c-8.66699 11.667 -18.667 17.5 -30 17.5c-13.333 0 -24.666 -6.83301 -33.999 -20.5s-16.833 -30 -22.5 -49s-9.83398 -38.5 -12.501 -58.5s-4 -36 -4 -48h-213
c-4 66.667 0.333008 124.667 13 174s30.834 90.333 54.501 123s51.5 57 83.5 73s65 24 99 24c43.333 0 81.5 -10.167 114.5 -30.5s58.833 -47.166 77.5 -80.5c14.667 30.667 39 56.834 73 78.5c34 21.667 74 32.5 120 32.5c26.667 0 51.834 -4.5 75.501 -13.5
s45 -22.167 64 -39.5s35 -38.333 48 -63s21.5 -53 25.5 -85c14 11.333 27 26.833 39 46.5s22.333 41.5 31 65.5s15.5 48.667 20.5 74s7.5 49.333 7.5 72h229c0 -46 -8 -93.833 -24 -143.5s-37.833 -95.834 -65.5 -138.5c-27.667 -42.667 -60.5 -79.5 -98.5 -110.5
s-79 -50.5 -123 -58.5h-184z" />
    <glyph glyph-name="maichattawaupperleftthai" 
d="M-677 2835v-218h-252v218h-242v191h242v214h252v-214h242v-191h-242z" />
    <glyph glyph-name="maichattawaupperleftthai" unicode="&#xf716;" 
d="M-677 2835v-218h-252v218h-242v191h242v214h252v-214h242v-191h-242z" />
    <glyph glyph-name="thanthakhatupperleftthai" 
d="M-328 2695c-100 0 -176.833 -19.333 -230.5 -58s-80.5 -99.667 -80.5 -183h-254c0 68.667 13 130.334 39 185c26 54.667 63.167 101.167 111.5 139.5s107.5 67.833 177.5 88.5s149 31.667 237 33v-205z" />
    <glyph glyph-name="thanthakhatupperleftthai" unicode="&#xf717;" 
d="M-328 2695c-100 0 -176.833 -19.333 -230.5 -58s-80.5 -99.667 -80.5 -183h-254c0 68.667 13 130.334 39 185c26 54.667 63.167 101.167 111.5 139.5s107.5 67.833 177.5 88.5s149 31.667 237 33v-205z" />
    <glyph glyph-name="uni00A0" unicode="&#xa0;" horiz-adv-x="496" 
 />
    <glyph glyph-name="cent" unicode="&#xa2;" horiz-adv-x="1544" 
d="M721 1769h180v-2068h-180v2068zM1186 999c-18 89.333 -56.834 158.502 -116.501 207.502s-137.5 73.5 -233.5 73.5c-84 0 -154.333 -15.333 -211 -46s-102 -71.5 -136 -122.5s-58.167 -109.833 -72.5 -176.5s-21.5 -136 -21.5 -208c0 -64.667 7.66699 -128 23 -190
s39.5 -117.167 72.5 -165.5s75.667 -87.333 128 -117s115.5 -44.5 189.5 -44.5c56 0 106.333 8 151 24s83.334 38.833 116.001 68.5s59.167 65.834 79.5 108.501s34.166 90.667 41.499 144h239c-13.333 -86 -36.666 -163.167 -69.999 -231.5s-76.166 -126 -128.499 -173
s-114.166 -83 -185.499 -108s-151.333 -37.5 -240 -37.5c-108 0 -203.333 17.833 -286 53.5s-151.834 85.5 -207.501 149.5s-97.834 140.167 -126.501 228.5s-43 185.166 -43 290.499c0 106 13.667 205.167 41 297.5s68.833 172.666 124.5 240.999
s125.334 122.166 209.001 161.499s181.5 59 293.5 59c80 0 155.167 -9.66699 225.5 -29s132.666 -48.833 186.999 -88.5s98.833 -90.167 133.5 -151.5s56 -134 64 -218h-240z" />
    <glyph glyph-name="sterling" unicode="&#xa3;" horiz-adv-x="1544" 
d="M1211 1329c-5.33301 72 -17.333 136.495 -36 193.495s-44.334 105 -77.001 144s-72.5 68.833 -119.5 89.5s-101.167 31 -162.5 31c-56 0 -108.167 -9 -156.5 -27s-90 -43 -125 -75s-62.5 -69.833 -82.5 -113.5s-30 -90.834 -30 -141.501c0 -40 4 -77.833 12 -113.5
s18.5 -69.667 31.5 -102s27.833 -63.666 44.5 -93.999l51 -90.5h443v-145h-373c12 -24 23.167 -53.5 33.5 -88.5s15.5 -69.5 15.5 -103.5c0 -55.333 -7.16699 -106.166 -21.5 -152.499s-33.166 -88.666 -56.499 -126.999s-50 -72.666 -80 -102.999
s-60.667 -56.833 -92 -79.5c44 14.667 86.333 25.167 127 31.5s84 9.5 130 9.5c34 0 72.667 -5.16699 116 -15.5s87 -21.666 131 -33.999l126.5 -34c40.333 -10.333 74.5 -15.5 102.5 -15.5c20.667 0 42.667 0.5 66 1.5s47.833 3.66699 73.5 8s52 11 79 20
s54.167 21.5 81.5 37.5v-212c-34 -17.333 -76.167 -30.333 -126.5 -39s-107.5 -13 -171.5 -13c-49.333 0 -97.333 4.5 -144 13.5s-93.834 18.833 -141.501 29.5s-96.5 20.5 -146.5 29.5s-103 13.5 -159 13.5c-18.667 0 -41 -1 -67 -3s-53.5 -5 -82.5 -9
s-58.667 -8.66699 -89 -14s-59.333 -11.5 -87 -18.5s-53.167 -14.667 -76.5 -23s-42.333 -17.166 -57 -26.499v192c32 18 66.167 43.667 102.5 77s70 71.833 101 115.5s56.667 90.5 77 140.5s30.5 100.667 30.5 152c0 18 -2.16699 37.667 -6.5 59
s-9.83301 42.833 -16.5 64.5s-14.167 42.5 -22.5 62.5s-16.5 38 -24.5 54h-237v145h155c-16 28 -31.5 57 -46.5 87s-28 62 -39 96s-19.833 70 -26.5 108s-10 78.667 -10 122c0 86.667 17.833 164.667 53.5 234s83.334 128.166 143.001 176.499s128.5 85.333 206.5 111
s159.667 38.5 245 38.5c100 0 190.5 -14.167 271.5 -42.5s150.333 -70.666 208 -126.999s102.667 -126.5 135 -210.5s49.833 -182 52.5 -294h-256z" />
    <glyph glyph-name="yen" unicode="&#xa5;" horiz-adv-x="1544" 
d="M246 452v181h393v120l-49 88h-344v176h246l-508 938h327l475 -950l459 950h316l-500 -938h254v-176h-352l-50 -88v-120h402v-181h-402v-452h-274v452h-393z" />
    <glyph glyph-name="copyright" unicode="&#xa9;" horiz-adv-x="2171" 
d="M282 965c0 -80 8.99805 -156.333 26.998 -229s43.833 -140 77.5 -202s74.5 -118.167 122.5 -168.5s101.833 -93.166 161.5 -128.499s124.5 -62.5 194.5 -81.5s144 -28.5 222 -28.5c75.333 0 147.666 9.5 216.999 28.5s133.833 46.167 193.5 81.5
s113.834 78.166 162.501 128.499s90.334 106.5 125.001 168.5s61.334 129.333 80.001 202s28 149 28 229s-9.33301 156.167 -28 228.5s-45.334 139.166 -80.001 200.499s-76.334 116.666 -125.001 165.999s-102.834 91.333 -162.501 126s-124.167 61.334 -193.5 80.001
s-141.666 28 -216.999 28c-117.333 0 -225.166 -20.667 -323.499 -62s-183.166 -98.666 -254.499 -171.999s-127 -160.833 -167 -262.5s-60 -212.5 -60 -332.5zM65.998 965c0 94.667 12.333 185.5 37 272.5s59.334 168 104.001 243s98.334 143.167 161.001 204.5
s131.834 113.666 207.501 156.999s156.667 76.833 243 100.5s175.833 35.5 268.5 35.5s182.167 -11.833 268.5 -35.5s167.333 -57.167 243 -100.5s144.5 -95.666 206.5 -156.999s115.333 -129.5 160 -204.5s79.167 -156 103.5 -243s36.5 -177.833 36.5 -272.5
c0 -97.333 -12.167 -190 -36.5 -278s-58.833 -169.667 -103.5 -245s-98 -143.166 -160 -203.499s-130.833 -111.833 -206.5 -154.5s-156.667 -75.5 -243 -98.5s-175.833 -34.5 -268.5 -34.5s-182.167 11.5 -268.5 34.5s-167.333 55.833 -243 98.5
s-144.834 94.167 -207.501 154.5s-116.334 128.166 -161.001 203.499s-79.334 157 -104.001 245s-37 180.667 -37 278zM1388 1165c0 24.667 -5.8291 50.666 -17.4961 77.999s-29 52.5 -52 75.5s-52.167 42.167 -87.5 57.5s-76.333 23 -123 23
c-68.667 0 -125.834 -12.5 -171.501 -37.5s-82.334 -58.333 -110.001 -100s-47.334 -89.667 -59.001 -144s-17.5 -110.833 -17.5 -169.5c0 -53.333 6.16699 -105.333 18.5 -156s31.833 -95.5 58.5 -134.5s61.334 -70.333 104.001 -94s94 -35.5 154 -35.5
c51.333 0 96.166 6.5 134.499 19.5s70.166 30.833 95.499 53.5s44.666 49.334 57.999 80.001s20.666 63.334 21.999 98.001h213c-6 -67.333 -22.167 -128 -48.5 -182s-61.833 -99.833 -106.5 -137.5s-98 -66.5 -160 -86.5s-131.333 -30 -208 -30
c-91.333 0 -171.166 15.167 -239.499 45.5s-125.333 72.333 -171 126s-80 117.5 -103 191.5s-34.5 154.667 -34.5 242c0 88 11.167 170.5 33.5 247.5s56.333 144.167 102 201.5s103.334 102.666 173.001 135.999s151.5 50 245.5 50c72 0 139 -9 201 -27
s115.667 -44.5 161 -79.5s81 -78.5 107 -130.5s39 -112.333 39 -181h-211z" />
    <glyph glyph-name="guillemotleft" unicode="&#xab;" horiz-adv-x="1294" 
d="M109 888l460 361v-258l-280 -217l280 -205v-262l-460 363v218zM672 888l460 361v-258l-280 -217l280 -205v-262l-460 363v218z" />
    <glyph glyph-name="registered" unicode="&#xae;" horiz-adv-x="2216" 
d="M287 987c0 -122.667 20.332 -236.332 60.999 -340.999s97.5 -195.167 170.5 -271.5s159.833 -136 260.5 -179s211 -64.5 331 -64.5c77.333 0 151.333 9.83301 222 29.5s136.5 47.5 197.5 83.5s116.333 79.667 166 131s92 108.666 127 171.999s62.167 132 81.5 206
s29 152 29 234s-9.66699 159.833 -29 233.5s-46.5 142 -81.5 205s-77.333 119.667 -127 170s-105 93.333 -166 129s-126.833 63 -197.5 82s-144.667 28.5 -222 28.5c-80 0 -155.833 -9.5 -227.5 -28.5s-138 -46.333 -199 -82s-116 -78.667 -165 -129s-90.667 -107 -125 -170
s-60.666 -131.333 -78.999 -205s-27.5 -151.5 -27.5 -233.5zM65.999 987.002c0 96.667 12.667 189.499 38 278.499s60.833 171.833 106.5 248.5s100.334 146.334 164.001 209.001s134.167 116.167 211.5 160.5s160.333 78.666 249 102.999s180.334 36.5 275.001 36.5
s186.167 -12.167 274.5 -36.5s171 -58.666 248 -102.999s147.333 -97.833 211 -160.5s118.167 -132.334 163.5 -209.001s80.5 -159.5 105.5 -248.5s37.5 -181.833 37.5 -278.5c0 -99.333 -12.5 -194 -37.5 -284s-60.167 -173.333 -105.5 -250s-99.833 -146 -163.5 -208
s-134 -114.833 -211 -158.5s-159.667 -77.167 -248 -100.5s-179.833 -35 -274.5 -35s-186.334 11.667 -275.001 35s-171.667 56.833 -249 100.5s-147.833 96.5 -211.5 158.5s-118.334 131.333 -164.001 208s-81.167 159.834 -106.5 249.501s-38 184.5 -38 284.5zM1183 1576
c58.667 0 111.169 -7.33203 157.502 -21.999s85.5 -35.834 117.5 -63.501s56.333 -61.167 73 -100.5s25 -83.666 25 -132.999c0 -32 -4.66699 -63.833 -14 -95.5s-22.833 -61 -40.5 -88s-39 -50.667 -64 -71s-53.167 -35.5 -84.5 -45.5
c21.333 -12.667 39.166 -26.667 53.499 -42s26.166 -31 35.499 -47s16.5 -31.333 21.5 -46s8.83301 -27.334 11.5 -38.001l47 -177c5.33301 -20 10.5 -38.167 15.5 -54.5s11.333 -32.333 19 -48s17.167 -31.667 28.5 -48s26 -34.833 44 -55.5h-230
c-6.66699 8.66699 -13.167 19.5 -19.5 32.5s-12.5 27.167 -18.5 42.5s-11.667 31.333 -17 48l-15 49l-49 176c-5.33301 18 -11.5 35 -18.5 51s-17 30 -30 42s-30 21.667 -51 29s-47.833 11 -80.5 11h-221v-481h-202v1175h506zM1114 1054c31.333 0 61.667 2.83203 91 8.49902
s55.333 15.334 78 29.001s40.834 32 54.501 55s20.5 52.167 20.5 87.5c0 50 -14.833 89.833 -44.5 119.5s-75.834 44.5 -138.501 44.5h-296v-344h235z" />
    <glyph glyph-name="guillemotright" unicode="&#xbb;" horiz-adv-x="1294" 
d="M1185 670l-460 -363v262l280 205l-280 217v258l460 -361v-218zM622 670l-460 -363v262l280 205l-280 217v258l460 -361v-218z" />
    <glyph glyph-name="onequarter" unicode="&#xbc;" horiz-adv-x="2335" 
d="M1827 1999l-1143 -1999h-197l1143 1999h197zM135 1720c40.667 2 79.5 7 116.5 15s70.333 20.667 100 38s55.167 40.5 76.5 69.5s37 66.167 47 111.5h164v-1188h-188v860c-41.333 -26.667 -87.833 -46.5 -139.5 -59.5s-110.5 -20.5 -176.5 -22.5v176zM1838 430v465
l-356 -465h356zM2190 430v-168h-164v-262h-188v262h-541v168l578 758h151v-758h164z" />
    <glyph glyph-name="onehalf" unicode="&#xbd;" horiz-adv-x="2335" 
d="M1411 754c0 59.333 9.66992 115.332 29.0029 167.999s47 98.667 83 138s80 70.5 132 93.5s110.667 34.5 176 34.5c55.333 0 107.333 -8 156 -24s91.167 -39 127.5 -69s65 -66.833 86 -110.5s31.5 -93.167 31.5 -148.5c0 -62.667 -11.833 -116.667 -35.5 -162
s-54.667 -86 -93 -122s-81.833 -68.833 -130.5 -98.5l-148 -90.5l-64 -41.5c-21.333 -14.333 -41.833 -29.5 -61.5 -45.5s-37.334 -33.333 -53.001 -52s-27.834 -38.667 -36.501 -60h605v-164h-839c0 42 5.5 81.333 16.5 118s25.667 70.834 44 102.501s39.5 61 63.5 88
s49.333 51.833 76 74.5s53.667 43.167 81 61.5l78 50.5c49.333 30 92.333 57.333 129 82s67 49.667 91 75s42 52.5 54 81.5s18 63.167 18 102.5c0 57.333 -17.167 103 -51.5 137s-82.5 51 -144.5 51c-40 0 -73.833 -8.16699 -101.5 -24.5s-49.834 -37.5 -66.501 -63.5
s-28.667 -55 -36 -87s-11 -63.667 -11 -95h-205zM1782 1999l-1143 -1999h-197l1143 1999h197zM135.003 1720c40.667 2 79.5 7 116.5 15s70.333 20.667 100 38s55.167 40.5 76.5 69.5s37 66.167 47 111.5h164v-1188h-188v860c-41.333 -26.667 -87.833 -46.5 -139.5 -59.5
s-110.5 -20.5 -176.5 -22.5v176z" />
    <glyph glyph-name="threequarters" unicode="&#xbe;" horiz-adv-x="2335" 
d="M573 1454c28 0 54.5 3.16602 79.5 9.49902s47 16.333 66 30s34.167 31 45.5 52s17 46.5 17 76.5c0 28 -5 52.167 -15 72.5s-23.667 37.333 -41 51s-37.5 23.834 -60.5 30.501s-47.833 10 -74.5 10c-39.333 0 -72.166 -6 -98.499 -18s-47.5 -28.667 -63.5 -50
s-27.5 -46.5 -34.5 -75.5s-10.5 -60.5 -10.5 -94.5h-205c4 61.333 16 117 36 167s47.5 92.667 82.5 128s77 62.666 126 81.999s104.833 29 167.5 29c57.333 0 109.666 -7.16699 156.999 -21.5s88 -35.5 122 -63.5s60.5 -62.667 79.5 -104s28.5 -89 28.5 -143
c0 -23.333 -4 -46.166 -12 -68.499s-19.5 -43.5 -34.5 -63.5s-32.833 -38.167 -53.5 -54.5s-44 -30.5 -70 -42.5c39.333 -12 73.333 -27.5 102 -46.5s52.167 -40.667 70.5 -65s32 -51 41 -80s13.5 -59.5 13.5 -91.5c0 -51.333 -11.5 -99.166 -34.5 -143.499
s-54.167 -82.833 -93.5 -115.5s-84.833 -58.5 -136.5 -77.5s-106.167 -28.5 -163.5 -28.5c-61.333 0 -119.166 8.33301 -173.499 25s-101.833 41.667 -142.5 75s-72.667 75.166 -96 125.499s-35 109.166 -35 176.499h209c2 -78 21.667 -137.167 59 -177.5
s97 -60.5 179 -60.5c32 0 61.667 5.33301 89 16s51 24.834 71 42.501s35.667 38.167 47 61.5s17 47.666 17 72.999c0 36.667 -6.33301 67.834 -19 93.501s-29.834 46.5 -51.501 62.5s-46.667 27.5 -75 34.5s-58.5 10.5 -90.5 10.5h-66v151h45zM1921 429.999v465l-356 -465
h356zM2273 429.999v-168h-164v-262h-188v262h-541v168l578 758h151v-758h164zM2036 1999l-1143 -1999h-197l1143 1999h197z" />
    <glyph glyph-name="multiply" unicode="&#xd7;" horiz-adv-x="1434" 
d="M573 750l-512 548l156 148l504 -541l508 541l155 -148l-516 -548l516 -545l-155 -148l-508 537l-504 -537l-156 148z" />
    <glyph glyph-name="divide" unicode="&#xf7;" horiz-adv-x="1667" 
d="M647 176c0 26 5.00195 50.667 15.002 74s23.5 43.833 40.5 61.5s36.5 31.667 58.5 42s45.333 15.5 70 15.5c26 0 50.333 -5.16699 73 -15.5s42.667 -24.333 60 -42s31 -38.167 41 -61.5s15 -48 15 -74c0 -22.667 -5 -44.5 -15 -65.5s-23.5 -39.667 -40.5 -56
s-36.5 -29.5 -58.5 -39.5s-45.333 -15 -70 -15s-48.334 4.5 -71.001 13.5s-42.834 21.5 -60.501 37.5s-31.667 34.667 -42 56s-15.5 44.333 -15.5 69zM647.002 1323c0 25.333 5.00195 49.5 15.002 72.5s23.5 43 40.5 60s36.5 30.5 58.5 40.5s45.333 15 70 15
c26 0 50.333 -5 73 -15s42.667 -23.5 60 -40.5s31 -37 41 -60s15 -47.167 15 -72.5c0 -24.667 -5 -48 -15 -70s-23.5 -41.5 -40.5 -58.5s-36.5 -30.5 -58.5 -40.5s-45.333 -15 -70 -15s-48.334 5 -71.001 15s-42.834 23.5 -60.501 40.5s-31.667 36.5 -42 58.5
s-15.5 45.333 -15.5 70zM1540 860v-217h-1417v217h1417z" />
    <glyph glyph-name="kokaithai" unicode="&#xe01;" horiz-adv-x="1720" 
d="M811 1483c-52 0.666992 -99.3291 -3.83496 -141.996 -13.502s-81.167 -22.5 -115.5 -38.5s-64.333 -34.333 -90 -55s-47.334 -42 -65.001 -64s-31.334 -43.5 -41.001 -64.5s-15.5 -39.5 -17.5 -55.5c19.333 -11.333 36.666 -26.5 51.999 -45.5s28.166 -41 38.499 -66
s18.333 -52.333 24 -82s8.5 -60.834 8.5 -93.501v-905h-270v909c0 26 -1.83301 52.167 -5.5 78.5s-10.5 52 -20.5 77s-23.833 48.333 -41.5 70s-40.5 40.834 -68.5 57.501c14.667 63.333 39.667 126.333 75 189s83.333 118.834 144 168.501s135 89.834 223 120.501
s192 46 312 46c94.667 0 178.834 -9 252.501 -27s138.167 -42.833 193.5 -74.5s102 -69.5 140 -113.5s68.833 -91.833 92.5 -143.5s40.667 -106.5 51 -164.5s15.5 -117 15.5 -177v-1016h-274v1049c0 52 -7.83301 103.667 -23.5 155s-41.834 97.5 -78.501 138.5
s-85.167 74.333 -145.5 100s-134.833 39.167 -223.5 40.5z" />
    <glyph glyph-name="khokhaithai" unicode="&#xe02;" horiz-adv-x="1442" 
d="M582 0l-332 1475h-213v204h450l308 -1466l307 1466h278l-376 -1679h-422z" />
    <glyph glyph-name="khokhuatthai" unicode="&#xe03;" horiz-adv-x="1548" 
d="M614 1393c-6 -12.667 -15.5 -24.8359 -28.5 -36.5029s-28.333 -22.167 -46 -31.5s-37 -16.833 -58 -22.5s-42.167 -8.5 -63.5 -8.5c-18 0 -39 1.66699 -63 5s-48.833 10 -74.5 20s-51.167 23.833 -76.5 41.5s-47.833 40.834 -67.5 69.501s-35.667 63.334 -48 104.001
s-18.5 89 -18.5 145h254c0 -22.667 3 -44.334 9 -65.001s15.167 -39 27.5 -55s27.666 -28.667 45.999 -38s39.833 -14 64.5 -14c23.333 0 44.5 4.33301 63.5 13s35 20.667 48 36s23 33.5 30 54.5s10.5 43.833 10.5 68.5h262v-327c0 -38 -6.16699 -71.5 -18.5 -100.5
s-29 -56.5 -50 -82.5s-45 -51.667 -72 -77l-85.5 -84c-27.333 -28.667 -50.833 -55.334 -70.5 -80.001s-35.834 -49.5 -48.501 -74.5s-22.334 -51 -29.001 -78s-10.334 -57.5 -11.001 -91.5v-111c0 -59.333 7.5 -111.833 22.5 -157.5s36.333 -84.167 64 -115.5
s60.5 -55 98.5 -71s80 -24 126 -24c42.667 0 82.5 6 119.5 18s69.167 31.5 96.5 58.5s48.666 62.5 63.999 106.5s23 97.667 23 161v1130h270v-1159c0 -96 -15.667 -179.333 -47 -250s-73.333 -129 -126 -175s-113.5 -80.167 -182.5 -102.5s-141.5 -33.5 -217.5 -33.5
c-78 0 -152.5 12 -223.5 36s-133.667 59.5 -188 106.5s-97.666 105.5 -129.999 175.5s-48.5 151 -48.5 243v82c0 44.667 1.16699 84.5 3.5 119.5s6.33301 66.333 12 94s13.334 52.834 23.001 75.501s22.334 44.334 38.001 65.001s34.334 41.334 56.001 62.001
s47.167 43 76.5 67l61.5 45.5c24.333 17.667 47.333 39 69 64s39.334 53.833 53.001 86.5s18.167 70 13.5 112h-13z" />
    <glyph glyph-name="khokhwaithai" unicode="&#xe04;" horiz-adv-x="1737" 
d="M434 0h-269.999v1004c0 60 4.33301 119.167 13 177.5s23.5 114 44.5 167s49 101.833 84 146.5s78.5 83.5 130.5 116.5s113.667 58.667 185 77s153.666 27.5 246.999 27.5c92.667 0 174.5 -9.16699 245.5 -27.5s132.667 -44 185 -77s96 -71.833 131 -116.5
s63.167 -93.5 84.5 -146.5s36.5 -108.667 45.5 -167s13.5 -117.5 13.5 -177.5v-1004h-275v1040c0 34 -3 68.667 -9 104s-15.833 69.333 -29.5 102s-31.5 63.5 -53.5 92.5s-49 54.167 -81 75.5s-69.167 38.166 -111.5 50.499s-90.833 18.5 -145.5 18.5
s-103.334 -6.16699 -146.001 -18.5s-80 -29.166 -112 -50.499s-59.167 -46.5 -81.5 -75.5s-40.5 -59.833 -54.5 -92.5s-24.167 -66.667 -30.5 -102s-9.5 -70 -9.5 -104v-376c30.667 59.333 64.334 109.833 101.001 151.5s77.167 75.667 121.5 102s93.5 45.333 147.5 57
s113.667 17.167 179 16.5v-229c-98 0 -181.833 -13.667 -251.5 -41s-126.5 -66.5 -170.5 -117.5s-76.167 -113.333 -96.5 -187s-30.5 -156.5 -30.5 -248.5v-168z" />
    <glyph glyph-name="khokhonthai" unicode="&#xe05;" horiz-adv-x="1753" 
d="M610 1438c-34 -13.333 -62.168 -34.666 -84.501 -63.999s-40.333 -62.166 -54 -98.499s-23.334 -74.5 -29.001 -114.5s-8.5 -77.333 -8.5 -112v-385c30.667 59.333 64.334 109.833 101.001 151.5s77.167 75.667 121.5 102s93.5 45.333 147.5 57s113.667 17.167 179 16.5
v-229c-98 0 -181.833 -13.667 -251.5 -41s-126.5 -66.5 -170.5 -117.5s-76.167 -113.333 -96.5 -187s-30.5 -156.5 -30.5 -248.5v-168h-270v1016c0 52 3 103.333 9 154s16.333 99.5 31 146.5s34.167 91.333 58.5 133s54.833 79 91.5 112s80.167 61 130.5 84
s108.5 39.833 174.5 50.5l218 -230l204 230c68 -10 127.833 -26.333 179.5 -49s96.334 -50.334 134.001 -83.001s69 -69.834 94 -111.501s45 -86 60 -133s25.5 -96.167 31.5 -147.5s9 -103.333 9 -156v-1016h-274v1049c0 34.667 -2.66699 72.167 -8 112.5
s-14.833 79 -28.5 116s-32 70 -55 99s-52.5 49.5 -88.5 61.5l-226 -234c-4 -4 -8.33301 -7.66699 -13 -11s-11 -5 -19 -5c-8.66699 0 -16 1.66699 -22 5s-11 7 -15 11z" />
    <glyph glyph-name="khorakhangthai" unicode="&#xe06;" horiz-adv-x="1733" 
d="M614 1393c-6 -12.667 -15.5059 -24.8359 -28.5059 -36.5029s-28.333 -22.167 -46 -31.5s-37 -16.833 -58 -22.5s-42.167 -8.5 -63.5 -8.5c-18 0 -39 1.66699 -63 5s-48.833 10 -74.5 20s-51.167 23.833 -76.5 41.5s-47.833 40.834 -67.5 69.501
s-35.667 63.334 -48 104.001s-18.5 89 -18.5 145h254c0 -22.667 3 -44.334 9 -65.001s15.167 -39 27.5 -55s27.666 -28.667 45.999 -38s39.833 -14 64.5 -14c23.333 0 44.5 4.33301 63.5 13s35 20.667 48 36s23 33.5 30 54.5s10.5 43.833 10.5 68.5h262v-327
c0 -49.333 -8.16699 -92.666 -24.5 -129.999s-36.333 -70.5 -60 -99.5s-48.667 -54.667 -75 -77s-49.833 -43.166 -70.5 -62.499c-29.333 -26.667 -54 -50.334 -74 -71.001s-36 -42.667 -48 -66s-20.5 -50.5 -25.5 -81.5s-7.5 -70.167 -7.5 -117.5
c0 -56 10.833 -110.667 32.5 -164s52.834 -100.5 93.501 -141.5s89.667 -74 147 -99s122 -37.5 194 -37.5c48.667 0 93.167 8.16699 133.5 24.5s74.833 39.333 103.5 69s50.834 65.334 66.501 107.001s23.5 88.167 23.5 139.5v1134h275v-1101
c0 -91.333 -9.16699 -175 -27.5 -251s-49.166 -141.167 -92.499 -195.5s-101.166 -96.666 -173.499 -126.999s-162.833 -45.5 -271.5 -45.5c-120 0 -222.167 25.5 -306.5 76.5s-154.5 129.167 -210.5 234.5l-8 -270h-258v590c0 42 0.333008 79.5 1 112.5
s2.83398 62.667 6.50098 89s9.33398 50.5 17.001 72.5s18.667 43.667 33 65s32.5 42.833 54.5 64.5s49 45.5 81 71.5l89.5 73c25.667 20 47.334 41 65.001 63s30.667 47.667 39 77s11.833 67.666 10.5 114.999h-4z" />
    <glyph glyph-name="ngonguthai" unicode="&#xe07;" horiz-adv-x="1274" 
d="M594 279c12 -29.333 28.668 -51 50.001 -65s44.333 -21 69 -21c39.333 0 70.333 11.5 93 34.5s34 50.833 34 83.5v1159h-234v209h504v-1314c0 -72 -10.333 -133.5 -31 -184.5s-49 -93 -85 -126s-78.5 -57.167 -127.5 -72.5s-101.5 -23 -157.5 -23
c-56.667 0 -106 7.16699 -148 21.5s-78.5 35 -109.5 62s-57.333 59.667 -79 98s-40.834 81.5 -57.501 129.5l-249 713h278z" />
    <glyph glyph-name="chochanthai" unicode="&#xe08;" horiz-adv-x="1573" 
d="M1430 1135c-0.666992 -44 -7.16406 -94.6699 -19.4971 -152.003s-28.333 -118.833 -48 -184.5s-42.334 -133.667 -68.001 -204s-52.5 -140.166 -80.5 -209.499l-84.5 -202.5l-80.5 -182.5h-377l-266 774h-218v209h430l246 -741l56 132.5l60 148.5l58.5 156
c19 52.667 35.833 104.334 50.5 155.001s26.5 99.334 35.5 146.001s13.833 90 14.5 130c2 124 -28.167 217.167 -90.5 279.5s-156.5 93.5 -282.5 93.5c-101.333 0 -182.333 -24.833 -243 -74.5s-101.334 -121.834 -122.001 -216.501h-303
c12 76.667 36.5 146.834 73.5 210.501s85.167 118.5 144.5 164.5s129.5 81.667 210.5 107s171.833 38 272.5 38c49.333 0 99.333 -3.66699 150 -11s99.5 -19.666 146.5 -36.999s91.167 -40.333 132.5 -69s77.166 -64.334 107.499 -107.001s54 -93.167 71 -151.5
s24.833 -125.5 23.5 -201.5z" />
    <glyph glyph-name="chochingthai" unicode="&#xe09;" horiz-adv-x="1720" 
d="M127 1204c7.33301 68 25.832 132.835 55.499 194.502s73 116 130 163s128.833 84.5 215.5 112.5s190.667 42 312 42c95.333 0 179.333 -9 252 -27s135.5 -42.833 188.5 -74.5s97.167 -69.5 132.5 -113.5s63.666 -91.833 84.999 -143.5s36.333 -106.5 45 -164.5
s13 -117 13 -177v-1016h-258l-8 270c-55.333 -105.333 -128.666 -183.5 -219.999 -234.5s-201 -76.5 -329 -76.5c-111.333 0 -204 15.167 -278 45.5s-133.167 72.666 -177.5 126.999s-75.666 119.5 -93.999 195.5s-27.5 159.667 -27.5 251v360h270v-393
c0 -51.333 8.16699 -97.833 24.5 -139.5s39.5 -77.334 69.5 -107.001s66.5 -52.667 109.5 -69s91.167 -24.5 144.5 -24.5c84 0 157.333 13.333 220 40s114.667 63.5 156 110.5s72.333 102.667 93 167s31 134.5 31 210.5v316c0 52 -6.83301 103.833 -20.5 155.5
s-37.5 98.167 -71.5 139.5s-79.333 74.833 -136 100.5s-128 38.5 -214 38.5c-78 0 -143.167 -8.5 -195.5 -25.5s-94.833 -39 -127.5 -66s-57.167 -57 -73.5 -90s-27.5 -65.5 -33.5 -97.5h-283z" />
    <glyph glyph-name="chochangthai" unicode="&#xe0a;" horiz-adv-x="1532" 
d="M1094 659c0 50.667 -3.83398 93.3291 -11.501 127.996s-18.5 63.334 -32.5 86.001s-31.167 40.167 -51.5 52.5s-43.166 21.5 -68.499 27.5s-53.166 9.66699 -83.499 11s-62.5 2.33301 -96.5 3v221c69.333 0 128 9.83301 176 29.5s86.833 49.667 116.5 90
s51 91.333 64 153s19.5 134.5 19.5 218.5h275c0 -67.333 -5 -133.833 -15 -199.5s-29 -125.5 -57 -179.5s-67.333 -99.667 -118 -137s-117 -61.666 -199 -72.999v-9c54 -5.33301 100.167 -16.166 138.5 -32.499s70.5 -36.166 96.5 -59.499s46.667 -49 62 -77
s27.166 -56.833 35.499 -86.5s13.666 -58.834 15.999 -87.501s3.5 -55 3.5 -79v-139c0 -96 -16.5 -179.333 -49.5 -250s-77 -129 -132 -175s-117.833 -80.167 -188.5 -102.5s-144 -33.5 -220 -33.5c-78 0 -153.333 12 -226 36s-137.167 59.5 -193.5 106.5
s-101.5 105.5 -135.5 175.5s-51 151 -51 243v139c0 44 1.16699 82.167 3.5 114.5s6 61 11 86s11.5 47.5 19.5 67.5s18 39.5 30 58.5s25.833 38.667 41.5 59l54.5 69.5l46.5 62.5c13.667 19 25.667 37.167 36 54.5s18.833 34.5 25.5 51.5s11.667 34.5 15 52.5
c8 50 0 89.167 -24 117.5s-60 42.5 -108 42.5c-27.333 0 -52.833 -2.16699 -76.5 -6.5s-45.5 -9.66602 -65.5 -15.999s-38.167 -12.666 -54.5 -18.999s-31.166 -11.5 -44.499 -15.5v200c28.667 11.333 57.167 21.166 85.5 29.499s55.166 15.166 80.499 20.499
s48.5 9.33301 69.5 12s38.167 4 51.5 4c58 0 110.667 -7 158 -21s87 -35.167 119 -63.5s55.333 -64.166 70 -107.499s19 -94 13 -152c-5.33301 -39.333 -14.5 -74.833 -27.5 -106.5s-29 -62.5 -48 -92.5s-40.333 -60.833 -64 -92.5s-48.167 -66.834 -73.5 -105.501
c-18.667 -28.667 -32.834 -54.5 -42.501 -77.5s-16.667 -45.667 -21 -68s-7 -46.166 -8 -71.499s-1.83301 -54.333 -2.5 -87v-86c0 -59.333 8.83301 -111.833 26.5 -157.5s41.834 -84.167 72.501 -115.5s66.334 -55 107.001 -71s84 -24 130 -24c44 0 85.333 6 124 18
s72.5 31.5 101.5 58.5s52 62.5 69 106.5s25.5 97.667 25.5 161v110z" />
    <glyph glyph-name="sosothai" unicode="&#xe0b;" horiz-adv-x="1573" 
d="M496 573c0 -59.333 8.83398 -111.834 26.501 -157.501s41.5 -84.167 71.5 -115.5s65 -55 105 -71s82.667 -24 128 -24c44 0 85.5 6 124.5 18s73 31.5 102 58.5s51.833 62.5 68.5 106.5s25 97.667 25 161v110c0 68.667 -7.16699 123.167 -21.5 163.5s-34.333 71 -60 92
s-56.667 34.667 -93 41s-76.5 10.166 -120.5 11.499v221c60.667 4 112 16.833 154 38.5s76.167 52.834 102.5 93.501s45.5 90.667 57.5 150s18 129 18 209h270c0 -67.333 -4.83301 -133.833 -14.5 -199.5s-28.667 -125.5 -57 -179.5s-67.833 -99.667 -118.5 -137
s-117 -61.666 -199 -72.999v-9c54 -5.33301 100.333 -16.166 139 -32.499s71.167 -36.166 97.5 -59.499s47.333 -49 63 -77s27.667 -56.833 36 -86.5s13.833 -58.834 16.5 -87.501s4 -55 4 -79v-139c0 -64 -7.66699 -122.333 -23 -175s-36.5 -99.834 -63.5 -141.501
s-59.167 -77.834 -96.5 -108.501s-78 -56 -122 -76s-90.5 -35 -139.5 -45s-98.833 -15 -149.5 -15c-78 0 -153.333 12 -226 36s-137.167 59.5 -193.5 106.5s-101.5 105.5 -135.5 175.5s-51 151 -51 243c0 68 1 128.833 3 182.5s8.5 103 19.5 148s28.667 86.333 53 124
s59.166 74.5 104.499 110.5l37 28.5c14.667 11 29.667 23.167 45 36.5s30.333 28.333 45 45s27.5 35 38.5 55s19.167 41.833 24.5 65.5s6.33301 49.5 3 77.5h-12c-5.33301 -12.667 -14.333 -24.834 -27 -36.501s-27.834 -22.167 -45.501 -31.5s-37.167 -16.833 -58.5 -22.5
s-43.333 -8.5 -66 -8.5c-18 0 -39 1.66699 -63 5s-48.833 10 -74.5 20s-51.167 23.833 -76.5 41.5s-47.833 40.834 -67.5 69.501s-35.667 63.334 -48 104.001s-18.5 89 -18.5 145h254c0 -22.667 3.16699 -44.334 9.5 -65.001s15.833 -39 28.5 -55s28.167 -28.667 46.5 -38
s39.166 -14 62.499 -14s44.5 4.33301 63.5 13s35 20.667 48 36s23 33.5 30 54.5s10.5 43.833 10.5 68.5h262v-327c0 -38 -6.16699 -71.5 -18.5 -100.5s-28.833 -56.5 -49.5 -82.5s-44.667 -51.667 -72 -77s-55.666 -53.333 -84.999 -84c-28 -28.667 -50.5 -60.667 -67.5 -96
s-30.167 -72.166 -39.5 -110.499s-15.666 -77 -18.999 -116s-5 -76.5 -5 -112.5z" />
    <glyph glyph-name="chochoethai" unicode="&#xe0c;" horiz-adv-x="2601" 
d="M1487 733c0 -76 9.00195 -146.162 27.002 -210.495s44.333 -120 79 -167s77.5 -83.833 128.5 -110.5s109.167 -40 174.5 -40c40.667 0 77.5 5.83301 110.5 17.5s61.167 30.834 84.5 57.501s41.166 61.667 53.5 105c12.333 43.333 18.5 96.666 18.5 159.999v1134h274
v-1101c0 -98.667 -8.16699 -186.334 -24.5 -263.001s-44 -141.334 -83 -194.001s-90.833 -92.834 -155.5 -120.501s-145 -41.5 -241 -41.5c-53.333 0 -103 8.5 -149 25.5s-88 39.833 -126 68.5s-72 61.667 -102 99s-55.667 76.666 -77 117.999l-9 -270h-258v1049
c0 52 -7.16699 103.667 -21.5 155s-38.5 97.5 -72.5 138.5s-78.667 74.333 -134 100s-124 39.167 -206 40.5c-69.333 0.666992 -130.333 -7.83301 -183 -25.5s-97 -40.834 -133 -69.501s-64.167 -60.334 -84.5 -95.001s-32.833 -68.334 -37.5 -101.001
c19.333 -11.333 36.666 -26.5 51.999 -45.5s28.166 -41 38.499 -66s18.333 -52.333 24 -82s8.5 -60.834 8.5 -93.501v-696h180v-209h-450v909c0 26 -1.83301 52.167 -5.5 78.5s-10.5 52 -20.5 77s-23.833 48.333 -41.5 70s-40.5 40.834 -68.5 57.501
c14.667 63.333 39.5 126.333 74.5 189s81.833 118.834 140.5 168.501s129.834 89.834 213.501 120.501s181.167 46 292.5 46c90 0 170 -9 240 -27s131.333 -42.833 184 -74.5s97.167 -69.5 133.5 -113.5s65.666 -91.833 87.999 -143.5s38.5 -106.5 48.5 -164.5
s15 -117 15 -177v-283z" />
    <glyph glyph-name="yoyingthai" unicode="&#xe0d;" horiz-adv-x="2601" 
d="M2171 414c-21.333 -41.333 -47.1621 -80.5039 -77.4961 -117.504c-30.333 -37 -64.5 -69.667 -102.5 -98s-80 -50.833 -126 -67.5s-95.667 -25 -149 -25c-96 0 -176.333 13.667 -241 41s-116.5 67.166 -155.5 119.499s-66.667 116.666 -83 192.999
s-24.5 163.5 -24.5 261.5v328c0 52 -7.16699 103.667 -21.5 155s-38.5 97.5 -72.5 138.5s-78.667 74.333 -134 100s-124 39.167 -206 40.5c-69.333 0.666992 -130.5 -7.66602 -183.5 -24.999s-97.667 -40.166 -134 -68.499s-64.5 -59.833 -84.5 -94.5s-32 -69 -36 -103
c19.333 -11.333 36.666 -26.5 51.999 -45.5s28.166 -41 38.499 -66s18.333 -52.333 24 -82s8.5 -60.834 8.5 -93.501v-696h180v-209h-450v909c0 26 -1.83301 52.167 -5.5 78.5s-10.5 52 -20.5 77s-23.833 48.333 -41.5 70s-40.5 40.834 -68.5 57.501
c14.667 63.333 39.5 126.333 74.5 189s81.833 118.834 140.5 168.501s129.834 89.834 213.501 120.501s181.167 46 292.5 46c90 0 170 -9 240 -27s131.333 -42.833 184 -74.5s97.167 -69.5 133.5 -113.5s65.666 -91.833 87.999 -143.5s38.5 -106.5 48.5 -164.5
s15 -117 15 -177v-328c0 -63.333 6.16699 -116.666 18.5 -159.999s30 -78.333 53 -105s50.833 -45.834 83.5 -57.501s69.667 -17.5 111 -17.5c65.333 0 123.5 13.5 174.5 40.5s94 64.333 129 112s61.5 103.667 79.5 168s27 133.833 27 208.5v802h274v-1331
c0 -78 -3.83301 -146.333 -11.5 -205s-17.667 -110.167 -30 -154.5s-26.666 -82.5 -43 -114.5c-16.333 -32 -33.166 -59.667 -50.499 -83c-32 -47.333 -68.167 -87.333 -108.5 -120s-83.833 -59.167 -130.5 -79.5s-95.834 -35.166 -147.501 -44.499s-104.5 -14 -158.5 -14
c-74.667 0 -146.334 9.33301 -215.001 28s-130 47.334 -184 86.001s-98.667 87.167 -134 145.5s-57 127.5 -65 207.5h254c6 -42 20.5 -79 43.5 -111s50.5 -59 82.5 -81s66.667 -38.5 104 -49.5s74 -16.5 110 -16.5c53.333 0 100.666 6.33301 141.999 19
s77.5 29.834 108.5 51.501s57.167 47.167 78.5 76.5s38.666 60.666 52 93.999c13.333 33.333 22.833 68 28.5 104s8.5 71.333 8.5 106v221z" />
    <glyph glyph-name="dochadathai" unicode="&#xe0e;" horiz-adv-x="1790" 
d="M1626 -545l-274 -0.00195312c-22.667 32.667 -49 61.167 -79 85.5s-62.5 44.5 -97.5 60.5s-72 27.833 -111 35.5s-78.5 11.5 -118.5 11.5c-45.333 0 -90 -4.66699 -134 -14s-86.333 -23 -127 -41s-78.5 -40.5 -113.5 -67.5s-65.833 -58.5 -92.5 -94.5v250
c64 59.333 136.667 103.5 218 132.5s164.333 43.5 249 43.5c72.667 0 143.5 -10.833 212.5 -32.5s133.5 -53.167 193.5 -94.5v1319c0 52 -7.83301 103.667 -23.5 155s-41.834 97.5 -78.501 138.5s-85.167 74.333 -145.5 100s-134.833 39.167 -223.5 40.5
c-52 0.666992 -99.5 -3.83301 -142.5 -13.5s-81.5 -22.5 -115.5 -38.5s-64 -34.333 -90 -55s-47.667 -42 -65 -64s-30.833 -43.5 -40.5 -64.5s-15.5 -39.5 -17.5 -55.5c19.333 -11.333 36.5 -26.5 51.5 -45.5s27.833 -41 38.5 -66s18.667 -52.333 24 -82
s8 -60.834 8 -93.501v-905h-434v209h164v700c0 26 -1.83301 52.167 -5.5 78.5s-10.5 52 -20.5 77s-23.667 48.333 -41 70s-40 40.834 -68 57.501c14 63.333 38.667 126.333 74 189s83.333 118.834 144 168.501s135.167 89.834 223.5 120.501s192.5 46 312.5 46
c94.667 0 178.834 -9 252.501 -27s138.167 -42.833 193.5 -74.5s102 -69.5 140 -113.5s68.833 -91.833 92.5 -143.5s40.667 -106.5 51 -164.5s15.5 -117 15.5 -177v-1561z" />
    <glyph glyph-name="topatakthai" unicode="&#xe0f;" horiz-adv-x="1790" 
d="M1352 1049c0 52 -7.83203 103.665 -23.499 154.998s-41.834 97.5 -78.501 138.5s-85.167 74.333 -145.5 100s-134.833 39.167 -223.5 40.5c-52 0.666992 -99.5 -3.83301 -142.5 -13.5s-81.5 -22.5 -115.5 -38.5s-64 -34.333 -90 -55s-47.667 -42 -65 -64
s-30.833 -43.5 -40.5 -64.5s-15.5 -39.5 -17.5 -55.5c19.333 -11.333 36.5 -26.5 51.5 -45.5s27.833 -41 38.5 -66s18.667 -52.333 24 -82s8 -60.834 8 -93.501v-905h-434v209h164v700c0 26 -1.83301 52.167 -5.5 78.5s-10.5 52 -20.5 77s-23.667 48.333 -41 70
s-40 40.834 -68 57.501c14 63.333 38.667 126.333 74 189s83.333 118.834 144 168.501s135.167 89.834 223.5 120.501s192.5 46 312.5 46c94.667 0 178.834 -9 252.501 -27s138.167 -42.833 193.5 -74.5s102 -69.5 140 -113.5s68.833 -91.833 92.5 -143.5
s40.667 -106.5 51 -164.5s15.5 -117 15.5 -177v-1561h-274c-4 19.333 -11 40.166 -21 62.499s-23.5 42.833 -40.5 61.5s-37.667 34.167 -62 46.5s-52.833 18.5 -85.5 18.5s-61.334 -6 -86.001 -18s-45.167 -27.333 -61.5 -46s-28.666 -39 -36.999 -61
s-12.5 -43.333 -12.5 -64h-217c0 14.667 -2.66699 32.834 -8 54.501s-15 42.834 -29 63.501s-32.833 38.334 -56.5 53.001s-53.834 22 -90.501 22c-30.667 0 -56.667 -5.83301 -78 -17.5s-38.666 -26.834 -51.999 -45.501s-23 -39.334 -29 -62.001s-9 -45.334 -9 -68.001
h-250c0 68.667 10.5 128.5 31.5 179.5s49.333 93.167 85 126.5s77.334 58.333 125.001 75s98.167 25 151.5 25c72.667 0 134.167 -15.833 184.5 -47.5s89.833 -77.5 118.5 -137.5c15.333 30 34.166 55.833 56.499 77.5s46 39.5 71 53.5s50.667 24.333 77 31
s51.166 10 74.499 10c34 0 64.333 -4.16699 91 -12.5s50.167 -18.666 70.5 -30.999s37.833 -25.333 52.5 -39s26.667 -25.5 36 -35.5v1319z" />
    <glyph glyph-name="thothanthai" unicode="&#xe10;" horiz-adv-x="1565" 
d="M733 -557l-154.996 -0.00390625c-5.33301 12 -10.833 26.333 -16.5 43s-13.167 32.334 -22.5 47.001s-21 27.167 -35 37.5s-31.667 15.5 -53 15.5c-18.667 0 -34.834 -4 -48.501 -12s-25.167 -18.667 -34.5 -32s-16.333 -28.5 -21 -45.5s-7 -34.833 -7 -53.5h-188
c-4 68.667 3.33301 125.334 22 170.001s42.667 80.167 72 106.5s60.5 44.833 93.5 55.5s61.833 16 86.5 16c25.333 0 48.166 -2.83301 68.499 -8.5s38.666 -13.167 54.999 -22.5s30.833 -20.166 43.5 -32.499s24 -25.166 34 -38.499c12 21.333 26.667 38.666 44 51.999
s35 23.666 53 30.999s35.167 12.333 51.5 15s29.5 4 39.5 4c20.667 0 40.167 -2.33301 58.5 -7s35.166 -10.667 50.499 -18s29 -15.666 41 -24.999s22 -18.666 30 -27.999h9v127h274v-397h-274c-5.33301 18.667 -11.666 36.5 -18.999 53.5s-16.5 32.167 -27.5 45.5
s-24.333 24 -40 32s-34.834 12 -57.501 12s-42 -3.66699 -58 -11s-29.167 -17.333 -39.5 -30s-17.833 -27.667 -22.5 -45s-7 -36.333 -7 -57zM1430 1135c-0.666992 -44 -7.16406 -94.6699 -19.4971 -152.003s-28.333 -118.833 -48 -184.5s-42.334 -133.667 -68.001 -204
s-52.5 -140.166 -80.5 -209.499l-84.5 -202.5l-80.5 -182.5h-377l-266 774h-218v209h430l246 -741l56 132.5l60 148.5l58.5 156c19 52.667 35.833 104.334 50.5 155.001s26.5 99.334 35.5 146.001s13.833 90 14.5 130c2 124 -28.167 217.167 -90.5 279.5
s-156.5 93.5 -282.5 93.5c-101.333 0 -182.333 -24.833 -243 -74.5s-101.334 -121.834 -122.001 -216.501h-303c12 76.667 36.5 146.834 73.5 210.501s85.167 118.5 144.5 164.5s129.5 81.667 210.5 107s171.833 38 272.5 38c45.333 0 91 -3.16699 137 -9.5
s91.667 -16.833 137 -31.5c32 2 58.833 8.66699 80.5 20s39.5 25.333 53.5 42s24.167 35 30.5 55s10.166 39.667 11.499 59h295c-1.33301 -28.667 -6.5 -58.667 -15.5 -90s-23.333 -61.333 -43 -90s-45.167 -54.667 -76.5 -78s-69.666 -41 -114.999 -53
c21.333 -22.667 40.666 -47.667 57.999 -75s32 -57.5 44 -90.5s20.833 -69 26.5 -108s8.16699 -81.5 7.5 -127.5z" />
    <glyph glyph-name="thonangmonthothai" unicode="&#xe11;" horiz-adv-x="1733" 
d="M885 1516c46 38.667 90.6719 71.0049 134.005 97.0049s84.5 47 123.5 63s75.167 27.333 108.5 34s62.666 10 87.999 10c48 0 87 -8.33301 117 -25s53.333 -40.334 70 -71.001s28 -67.667 34 -111s9 -91.666 9 -144.999v-1368h-275v1262
c0 25.333 -0.333008 49.666 -1 72.999s-3.16699 43.833 -7.5 61.5s-11.166 31.667 -20.499 42s-22.666 15.5 -39.999 15.5c-22.667 0 -50.667 -8.83301 -84 -26.5s-70.333 -42.834 -111 -75.501s-84.167 -72.334 -130.5 -119.001s-93.5 -98.667 -141.5 -156l-93 -111.5
c-26.667 -31 -49.834 -59 -69.501 -84s-35.834 -48.167 -48.501 -69.5s-22.834 -43.833 -30.501 -67.5s-13 -49.834 -16 -78.501s-4.5 -62.334 -4.5 -101.001v-565h-275v532c0 42 0.5 79.167 1.5 111.5s3.5 61.5 7.5 87.5s9.83301 50 17.5 72s18 44.167 31 66.5
s29.167 45.833 48.5 70.5s42.666 52.667 69.999 84c30.667 34.667 60.667 66.5 90 95.5s54.666 57.5 75.999 85.5s37.333 57 48 87s13 63.667 7 101h-4c-6 -12.667 -15.5 -24.834 -28.5 -36.501s-28.333 -22.167 -46 -31.5s-37 -16.833 -58 -22.5s-42.167 -8.5 -63.5 -8.5
c-18 0 -39 1.66699 -63 5s-48.833 10 -74.5 20s-51.167 23.833 -76.5 41.5s-47.833 40.834 -67.5 69.501s-35.667 63.334 -48 104.001s-18.5 89 -18.5 145h254c0 -22.667 3 -44.334 9 -65.001s15.167 -39 27.5 -55s27.666 -28.667 45.999 -38s39.833 -14 64.5 -14
c23.333 0 44.5 4.33301 63.5 13s35 20.667 48 36s23 33.5 30 54.5s10.5 43.833 10.5 68.5h262v-163z" />
    <glyph glyph-name="thophuthaothai" unicode="&#xe12;" horiz-adv-x="2671" 
d="M1556 733c0 -76 9.00098 -146.163 27.001 -210.496s44.5 -120 79.5 -167s78 -83.833 129 -110.5s109.167 -40 174.5 -40c42 0 79.5 5.83301 112.5 17.5s60.833 30.834 83.5 57.501s40 61.667 52 105s18 96.666 18 159.999v1134h275v-1101
c0 -98.667 -8.16699 -186.334 -24.5 -263.001s-44 -141.334 -83 -194.001s-90.833 -92.834 -155.5 -120.501s-145 -41.5 -241 -41.5c-53.333 0 -103 8.5 -149 25.5s-88 39.833 -126 68.5s-72.167 61.667 -102.5 99s-56.166 76.666 -77.499 117.999l-8 -270h-258v1077
c0 34 -1.83301 69.5 -5.5 106.5s-11 72.333 -22 106s-27.167 63.834 -48.5 90.501s-49.333 46 -84 58l-229 -234c-2 -4 -5.83301 -7.66699 -11.5 -11s-12.834 -5 -21.501 -5c-8 0 -15.167 1.66699 -21.5 5s-11.5 7 -15.5 11l-229 234c-34 -13.333 -61.333 -33.333 -82 -60
s-36.834 -56.667 -48.501 -90s-19.5 -68.333 -23.5 -105s-6 -72 -6 -106v-729l344 438h-139v209h410v-209l-615 -786h-270v1044c0 78 6.33301 153 19 225s36.5 137 71.5 195s83.667 107.333 146 148s143.166 68.667 242.499 84l217 -230l205 230
c102.667 -14.667 186 -42 250 -82s113.833 -89 149.5 -147s59.834 -123.333 72.501 -196s19 -148.334 19 -227.001v-311z" />
    <glyph glyph-name="nonenthai" unicode="&#xe13;" horiz-adv-x="2601" 
d="M2437 0l-257.998 -0.0078125l-8 270c-21.333 -41.333 -47.166 -80.666 -77.5 -117.999c-30.333 -37.333 -64.5 -70.333 -102.5 -99s-80 -51.5 -126 -68.5s-95.667 -25.5 -149 -25.5c-96 0 -176.333 13.833 -241 41.5s-116.5 67.834 -155.5 120.501
s-66.667 117.334 -83 194.001s-24.5 164.334 -24.5 263.001v471c0 52 -7.16699 103.667 -21.5 155s-38.5 97.5 -72.5 138.5s-78.667 74.333 -134 100s-124 39.167 -206 40.5c-69.333 0.666992 -130.5 -7.66602 -183.5 -24.999s-97.667 -40.166 -134 -68.499
s-64.5 -59.833 -84.5 -94.5s-32 -69 -36 -103c19.333 -11.333 36.666 -26.5 51.999 -45.5s28.166 -41 38.499 -66s18.333 -52.333 24 -82s8.5 -60.834 8.5 -93.501v-696h180v-209h-450v909c0 26 -1.83301 52.167 -5.5 78.5s-10.5 52 -20.5 77s-23.833 48.333 -41.5 70
s-40.5 40.834 -68.5 57.501c14.667 63.333 39.5 126.333 74.5 189s81.833 118.834 140.5 168.501s129.834 89.834 213.501 120.501s181.167 46 292.5 46c90 0 170 -9 240 -27s131.333 -42.833 184 -74.5s97.167 -69.5 133.5 -113.5s65.666 -91.833 87.999 -143.5
s38.5 -106.5 48.5 -164.5s15 -117 15 -177v-471c0 -63.333 6.16699 -116.666 18.5 -159.999s30 -78.333 53 -105s50.833 -45.834 83.5 -57.501s69.667 -17.5 111 -17.5c65.333 0 123.5 13.333 174.5 40s94 63.5 129 110.5s61.5 102.667 79.5 167s27 134.5 27 210.5v946h274
v-1679z" />
    <glyph glyph-name="dodekthai" unicode="&#xe14;" horiz-adv-x="1753" 
d="M815 786h-155.999v209h426v-209l-651 -786h-270v1008c0 60 4.33301 119.167 13 177.5s23.667 113.666 45 165.999s49.666 100.833 84.999 145.5s79.333 83.167 132 115.5s115 57.666 187 75.999s155.667 27.5 251 27.5c93.333 0 175.833 -9.16699 247.5 -27.5
s133.834 -43.666 186.501 -75.999s96.834 -70.833 132.501 -115.5s64.167 -93.167 85.5 -145.5s36.666 -107.666 45.999 -165.999s14 -117.5 14 -177.5v-1008h-274v1044c0 34 -2.5 68.5 -7.5 103.5s-13.833 68.833 -26.5 101.5s-29.834 63.167 -51.501 91.5
s-48.667 53 -81 74s-70.833 37.667 -115.5 50s-96.667 18.5 -156 18.5c-60 0 -112.667 -6.16699 -158 -18.5s-84.5 -29 -117.5 -50s-60.167 -45.667 -81.5 -74s-38.5 -58.833 -51.5 -91.5s-22 -66.5 -27 -101.5s-7.5 -69.5 -7.5 -103.5v-696z" />
    <glyph glyph-name="totaothai" unicode="&#xe15;" horiz-adv-x="1765" 
d="M434 0l-269.996 -0.00195312v1016c0 52 3.16699 103.333 9.5 154s17.166 99.5 32.499 146.5s35.5 91.333 60.5 133s56 79 93 112s80.667 61 131 84s108.166 39.833 173.499 50.5l221 -230l205 230c102 -14.667 186.167 -43.5 252.5 -86.5s118.666 -95.333 156.999 -157
s65 -130.167 80 -205.5s22.5 -152.333 22.5 -231v-1016h-271v1049c0 34.667 -3.33301 72.167 -10 112.5s-17.334 79 -32.001 116s-34 70 -58 99s-53.333 49.5 -88 61.5l-225 -234c-4.66699 -4 -9.83398 -7.66699 -15.501 -11s-11.5 -5 -17.5 -5
c-8.66699 0 -16 1.66699 -22 5s-11 7 -15 11l-230 234c-34 -13.333 -62.667 -34.666 -86 -63.999s-42.166 -62.166 -56.499 -98.499s-24.833 -74.5 -31.5 -114.5s-10 -77.333 -10 -112v-701l381 438h-156v209h431v-209z" />
    <glyph glyph-name="thothungthai" unicode="&#xe16;" horiz-adv-x="1688" 
d="M463 209l180.003 -0.00292969v-209h-450v909c0 26 -1.83301 52.167 -5.5 78.5s-10.5 52 -20.5 77s-23.833 48.333 -41.5 70s-40.5 40.834 -68.5 57.501c9.33301 42 23 84.333 41 127s41 83.334 69 122.001s61.5 74.834 100.5 108.501s84.167 62.834 135.5 87.501
s109.5 44 174.5 58s137.5 21 217.5 21c94.667 0 178.5 -9 251.5 -27s136.5 -42.833 190.5 -74.5s99.333 -69.5 136 -113.5s66.167 -91.833 88.5 -143.5s38.333 -106.5 48 -164.5s14.5 -117 14.5 -177v-1016h-271v1049c0 52 -7.16699 103.667 -21.5 155s-39 97.5 -74 138.5
s-82 74.333 -141 100s-132.833 39.167 -221.5 40.5c-54.667 0.666992 -103.667 -3.83301 -147 -13.5s-81.666 -22.667 -114.999 -39s-61.833 -35 -85.5 -56s-43.334 -42.5 -59.001 -64.5s-27.334 -43.167 -35.001 -63.5s-12.167 -38.5 -13.5 -54.5
c19.333 -11.333 36.666 -26.5 51.999 -45.5s28.166 -41 38.499 -66s18.333 -52.333 24 -82s8.5 -60.834 8.5 -93.501v-696z" />
    <glyph glyph-name="thothahanthai" unicode="&#xe17;" horiz-adv-x="1720" 
d="M422 1679l-0.000976562 -266h4c114.667 204.667 297.667 307 549 307c112.667 0 206.167 -15.167 280.5 -45.5s133.833 -72.5 178.5 -126.5s76.167 -118.667 94.5 -194s27.5 -158 27.5 -248v-1106h-274v1135c0 52 -8 99 -24 141s-38.833 77.667 -68.5 107
s-65.667 52 -108 68s-90.166 24 -143.499 24c-84 0 -157.5 -13.333 -220.5 -40s-115.5 -63.5 -157.5 -110.5s-73.5 -102.5 -94.5 -166.5s-31.5 -133.333 -31.5 -208v-950h-270v1679h258z" />
    <glyph glyph-name="thothongthai" unicode="&#xe18;" horiz-adv-x="1630" 
d="M434 831l-0.00390625 -352.006c0 -53.333 11.667 -98 35 -134s53.166 -65 89.499 -87s77.166 -37.667 122.499 -47s90 -14 134 -14c40 0 82.5 3.83301 127.5 11.5s86.667 21.834 125 42.501s70 49.334 95 86.001s37.5 84 37.5 142c0 31.333 -1.66699 59.333 -5 84
s-10.666 46.834 -21.999 66.501s-27.666 37.834 -48.999 54.501s-49.666 33 -84.999 49s-78.833 32.333 -130.5 49s-113.834 35 -186.501 55c-47.333 12.667 -94.166 26 -140.499 40s-90.333 29.667 -132 47s-80.167 37.166 -115.5 59.499s-65.833 48.166 -91.5 77.499
s-45.5 63 -59.5 101s-20.333 81.667 -19 131c1.33301 48.667 10.833 93 28.5 133s41.167 75.5 70.5 106.5s63.5 57.833 102.5 80.5s80.333 41.334 124 56.001s88.334 25.5 134.001 32.5s90.5 10.5 134.5 10.5c95.333 0 183.666 -9.33301 264.999 -28
s151.833 -48.5 211.5 -89.5s106.334 -94 140.001 -159s50.5 -143.5 50.5 -235.5h-282c-1.33301 52 -11 95.833 -29 131.5s-42.833 64.5 -74.5 86.5s-69.5 38 -113.5 48s-92 15.667 -144 17c-46 0.666992 -90 -2.33301 -132 -9s-79 -17.334 -111 -32.001s-57.5 -33 -76.5 -55
s-28.5 -48 -28.5 -78c0 -38 13.667 -69.667 41 -95s62.833 -47 106.5 -65s92.334 -33.667 146.001 -47l159.5 -41c100 -26.667 187 -54.667 261 -84s135.5 -65.5 184.5 -108.5s85.667 -95.667 110 -158s36.5 -139.5 36.5 -231.5c0 -61.333 -8.5 -116.5 -25.5 -165.5
s-40.5 -92.5 -70.5 -130.5s-65.667 -70.667 -107 -98s-86.666 -49.666 -135.999 -66.999s-101.5 -30.166 -156.5 -38.499s-111.167 -12.5 -168.5 -12.5c-58 0 -114.333 4.16699 -169 12.5s-106.167 21.333 -154.5 39s-92.5 40.334 -132.5 68.001s-74.5 60.334 -103.5 98.001
s-51.5 81 -67.5 130s-24 103.833 -24 164.5v352h270z" />
    <glyph glyph-name="nonuthai" unicode="&#xe19;" horiz-adv-x="1720" 
d="M1298 0l-8.00195 270.002c-55.333 -105.333 -128.666 -183.5 -219.999 -234.5s-201 -76.5 -329 -76.5c-111.333 0 -204 15.167 -278 45.5s-133.167 72.666 -177.5 126.999s-75.666 119.5 -93.999 195.5s-27.5 159.667 -27.5 251v1101h270v-1134
c0 -51.333 8.16699 -97.833 24.5 -139.5s39.5 -77.334 69.5 -107.001s66.5 -52.667 109.5 -69s91.167 -24.5 144.5 -24.5c84 0 157.333 13.333 220 40s114.667 63.5 156 110.5s72.333 102.667 93 167s31 134.5 31 210.5v946h274v-1679h-258z" />
    <glyph glyph-name="bobaimaithai" unicode="&#xe1a;" horiz-adv-x="1720" 
d="M860 197c54.667 0 103.002 6.16699 145.002 18.5s78.667 29.166 110 50.499s57.666 46.5 78.999 75.5s38.5 60 51.5 93s22.333 67.333 28 103s8.5 70.834 8.5 105.501v1036h274v-1003c0 -60 -4.33301 -119.333 -13 -178s-23.334 -114.5 -44.001 -167.5
s-48.167 -101.833 -82.5 -146.5s-77.166 -83.5 -128.499 -116.5s-112.333 -58.667 -183 -77s-152.334 -27.5 -245.001 -27.5c-93.333 0 -175.333 9.16699 -246 27.5s-131.834 44 -183.501 77s-94.667 71.833 -129 116.5s-61.666 93.5 -81.999 146.5
s-34.666 108.833 -42.999 167.5s-12.5 118 -12.5 178v1003h270v-1036c0 -34.667 3 -69.834 9 -105.501s15.667 -70 29 -103s30.666 -64 51.999 -93s47.833 -54.167 79.5 -75.5s68.667 -38.166 111 -50.499s90.833 -18.5 145.5 -18.5z" />
    <glyph glyph-name="poplathai" unicode="&#xe1b;" horiz-adv-x="1720" 
d="M860 197c54.667 0 103.002 6.16699 145.002 18.5s78.667 29.166 110 50.499s57.666 46.5 78.999 75.5s38.5 60 51.5 93s22.333 67.333 28 103s8.5 70.834 8.5 105.501v1770h274v-1737c0 -60 -4.33301 -119.333 -13 -178s-23.334 -114.5 -44.001 -167.5
s-48.167 -101.833 -82.5 -146.5s-77.166 -83.5 -128.499 -116.5s-112.333 -58.667 -183 -77s-152.334 -27.5 -245.001 -27.5c-93.333 0 -175.333 9.16699 -246 27.5s-131.834 44 -183.501 77s-94.667 71.833 -129 116.5s-61.666 93.5 -81.999 146.5
s-34.666 108.833 -42.999 167.5s-12.5 118 -12.5 178v1003h270v-1036c0 -34.667 3 -69.834 9 -105.501s15.667 -70 29 -103s30.666 -64 51.999 -93s47.833 -54.167 79.5 -75.5s68.667 -38.166 111 -50.499s90.833 -18.5 145.5 -18.5z" />
    <glyph glyph-name="phophungthai" unicode="&#xe1c;" horiz-adv-x="1847" 
d="M164 1679h490.997v-209h-221v-938c0 -116.667 15 -201.667 45 -255s73.667 -80 131 -80c44 0 77.833 10.5 101.5 31.5s41 49.833 52 86.5s17.5 79.667 19.5 129s3 102 3 158v242h275v-242c0 -56 1.33301 -108.667 4 -158s10.167 -92.333 22.5 -129s31 -65.5 56 -86.5
s60.167 -31.5 105.5 -31.5c55.333 0 96.5 26.667 123.5 80s40.5 138.333 40.5 255v1147h270v-1216c0 -85.333 -9.33301 -159 -28 -221s-45.167 -113.5 -79.5 -154.5s-75.666 -71.333 -123.999 -91s-102.166 -29.5 -161.499 -29.5c-88.667 0 -165.167 21.5 -229.5 64.5
s-111.833 104.833 -142.5 185.5c-25.333 -80.667 -67 -142.5 -125 -185.5s-132.667 -64.5 -224 -64.5c-61.333 0 -116.833 9.83301 -166.5 29.5s-92.167 50 -127.5 91s-62.666 92.5 -81.999 154.5s-29 135.667 -29 221v1216z" />
    <glyph glyph-name="fofathai" unicode="&#xe1d;" horiz-adv-x="1847" 
d="M164 1679h490.997v-209h-221v-942c0 -116.667 15 -201.667 45 -255s73.667 -80 131 -80c44 0 77.833 10.5 101.5 31.5s41 49.833 52 86.5s17.5 79.667 19.5 129s3 102 3 158v242h275v-242c0 -56 1.33301 -108.667 4 -158s10.167 -92.333 22.5 -129s31 -65.5 56 -86.5
s60.167 -31.5 105.5 -31.5c55.333 0 96.5 26.667 123.5 80s40.5 138.333 40.5 255v1885h270v-1954c0 -85.333 -9.33301 -159 -28 -221s-45.167 -113.5 -79.5 -154.5s-75.666 -71.333 -123.999 -91s-102.166 -29.5 -161.499 -29.5c-88.667 0 -165.167 21.5 -229.5 64.5
s-111.833 104.833 -142.5 185.5c-25.333 -80.667 -67 -142.5 -125 -185.5s-132.667 -64.5 -224 -64.5c-61.333 0 -116.833 9.83301 -166.5 29.5s-92.167 50 -127.5 91s-62.666 92.5 -81.999 154.5s-29 135.667 -29 221v1220z" />
    <glyph glyph-name="phophanthai" unicode="&#xe1e;" horiz-adv-x="2175" 
d="M1237 1679l295 -1364h4l279 1364h299l-426 -1679h-299l-295 1335h-13l-295 -1335h-299l-426 1679h299l279 -1364h4l295 1364h299z" />
    <glyph glyph-name="fofanthai" unicode="&#xe1f;" horiz-adv-x="2175" 
d="M1237 1679l295 -1364h4l397 2098h299l-544 -2413h-299l-295 1335h-13l-295 -1335h-299l-426 1679h299l279 -1364h4l295 1364h299z" />
    <glyph glyph-name="phosamphaothai" unicode="&#xe20;" horiz-adv-x="1790" 
d="M1626 0l-274 -0.00195312v1049c0 52 -7.83301 103.667 -23.5 155s-41.834 97.5 -78.501 138.5s-85.167 74.333 -145.5 100s-134.833 39.167 -223.5 40.5c-52 0.666992 -99.5 -3.83301 -142.5 -13.5s-81.5 -22.5 -115.5 -38.5s-64 -34.333 -90 -55s-47.667 -42 -65 -64
s-30.833 -43.5 -40.5 -64.5s-15.5 -39.5 -17.5 -55.5c19.333 -11.333 36.5 -26.5 51.5 -45.5s27.833 -41 38.5 -66s18.667 -52.333 24 -82s8 -60.834 8 -93.501v-905h-434v209h164v700c0 26 -1.83301 52.167 -5.5 78.5s-10.5 52 -20.5 77s-23.667 48.333 -41 70
s-40 40.834 -68 57.501c14 63.333 38.667 126.333 74 189s83.333 118.834 144 168.501s135.167 89.834 223.5 120.501s192.5 46 312.5 46c94.667 0 178.834 -9 252.501 -27s138.167 -42.833 193.5 -74.5s102 -69.5 140 -113.5s68.833 -91.833 92.5 -143.5
s40.667 -106.5 51 -164.5s15.5 -117 15.5 -177v-1016z" />
    <glyph glyph-name="momathai" unicode="&#xe21;" horiz-adv-x="1720" 
d="M164 0l0.000976562 1679h270v-946c0 -76 10.5 -146.167 31.5 -210.5s52.5 -120 94.5 -167s94.5 -83.833 157.5 -110.5s136.5 -40 220.5 -40c53.333 0 101.166 8.16699 143.499 24.5s78.333 39.333 108 69s52.5 65.334 68.5 107.001s24 88.167 24 139.5v1134h274v-1101
c0 -91.333 -9.16699 -175 -27.5 -251s-49.833 -141.167 -94.5 -195.5s-104.167 -96.666 -178.5 -126.999s-167.833 -45.5 -280.5 -45.5c-126 0 -234.5 25.5 -325.5 76.5s-165.5 129.167 -223.5 234.5v-270h-262z" />
    <glyph glyph-name="yoyakthai" unicode="&#xe22;" horiz-adv-x="1675" 
d="M139 1282c0 52.667 6.66895 99.0029 20.002 139.003s31.333 74.667 54 104s48.834 53.833 78.501 73.5s61.167 35.5 94.5 47.5s67.166 20.5 101.499 25.5s67.166 7.5 98.499 7.5h221v-229h-152c-17.333 0 -39.166 -1.16699 -65.499 -3.5s-52 -9.16602 -77 -20.499
s-46.333 -29.166 -64 -53.499s-26.5 -58.5 -26.5 -102.5c0 -49.333 6.5 -89.333 19.5 -120s30.833 -54.667 53.5 -72s49.5 -29.5 80.5 -36.5s64.5 -11.5 100.5 -13.5h131v-225h-131c-38 -2 -72.667 -6.16699 -104 -12.5s-58 -18.833 -80 -37.5s-39.167 -45.667 -51.5 -81
s-18.5 -83.333 -18.5 -144c0 -56 11.333 -105 34 -147s52.834 -77 90.501 -105s81.167 -48.833 130.5 -62.5s100.666 -20.5 153.999 -20.5c59.333 0 114.166 7.83301 164.499 23.5s93.666 41.167 129.999 76.5s64.666 81.333 84.999 138s30.5 126 30.5 208v1040h270v-1097
c0 -101.333 -18 -190.833 -54 -268.5s-84.833 -142.834 -146.5 -195.501s-133.667 -92.334 -216 -119.001s-170.166 -40 -263.499 -40c-58 0 -115.5 5 -172.5 15s-111.167 25 -162.5 45s-99.166 45.167 -143.499 75.5s-82.5 66.166 -114.5 107.499
s-57.167 88.166 -75.5 140.499s-27.5 110.166 -27.5 173.499c0 47.333 3.83301 91.5 11.5 132.5s20.5 78.5 38.5 112.5s41.667 63.833 71 89.5s65.666 46.5 108.999 62.5c-49.333 19.333 -88.833 43.333 -118.5 72s-52.5 59.5 -68.5 92.5s-26.5 67.167 -31.5 102.5
s-7.5 69.333 -7.5 102z" />
    <glyph glyph-name="roruathai" unicode="&#xe23;" horiz-adv-x="1442" 
d="M365 541c0 -61.333 9.66602 -113.678 28.999 -157.011s45.5 -78.666 78.5 -105.999s71.5 -47.5 115.5 -60.5s91 -19.5 141 -19.5c36.667 0 75 4.33301 115 13s76.5 23.334 109.5 44.001s60.333 47.834 82 81.501s32.5 75.167 32.5 124.5c0 46 -9.66699 85 -29 117
s-45.833 59.167 -79.5 81.5s-73.334 41.166 -119.001 56.499s-94.5 29.333 -146.5 42c-42.667 10.667 -86.167 22.834 -130.5 36.501s-87 29.834 -128 48.501s-79.5 40.334 -115.5 65.001s-67.5 53.334 -94.5 86.001s-48.167 69.667 -63.5 111s-23 88.333 -23 141
c0 54 7.5 103.167 22.5 147.5s35.667 83.666 62 117.999s57.333 64.166 93 89.499s74.167 46.333 115.5 63s84.166 29 128.499 37s88.833 12 133.5 12c81.333 0 158.5 -9.83301 231.5 -29.5s137 -51 192 -94s98.667 -98.5 131 -166.5s48.833 -150.333 49.5 -247h-274
c0 46.667 -7.5 89.334 -22.5 128.001s-36.333 71.834 -64 99.501s-60.667 49.167 -99 64.5s-80.5 23 -126.5 23c-41.333 0 -80.333 -5 -117 -15s-68.667 -25 -96 -45s-48.833 -45.167 -64.5 -75.5s-23.5 -65.5 -23.5 -105.5c0 -41.333 10 -76.166 30 -104.499
s47 -52.5 81 -72.5s73.333 -36.667 118 -50s91.667 -26 141 -38c88.667 -22 167.834 -45.5 237.501 -70.5s128.334 -55.833 176.001 -92.5s84 -81 109 -133s37.5 -115.333 37.5 -190c0 -68.667 -8.5 -129.667 -25.5 -183s-40.167 -99.666 -69.5 -138.999
s-64.166 -72.5 -104.499 -99.5s-83.666 -48.833 -129.999 -65.5s-95 -28.5 -146 -35.5s-101.833 -10.5 -152.5 -10.5c-56 0 -110.333 4.66699 -163 14s-102.167 24 -148.5 44s-88.833 45.333 -127.5 76s-71.834 67.334 -99.501 110.001s-49.167 91.334 -64.5 146.001
s-23 116.334 -23 185.001h278z" />
    <glyph glyph-name="ruthai" unicode="&#xe24;" horiz-adv-x="1688" 
d="M463 209l180.001 -0.00292969v-209h-450v909c0 26 -1.83301 52.167 -5.5 78.5s-10.5 52 -20.5 77s-23.833 48.333 -41.5 70s-40.5 40.834 -68.5 57.501c9.33301 42 23 84.333 41 127s41 83.334 69 122.001s61.5 74.834 100.5 108.501s84.167 62.834 135.5 87.501
s109.5 44 174.5 58s137.5 21 217.5 21c94.667 0 178.5 -9 251.5 -27s136.5 -42.833 190.5 -74.5s99.333 -69.5 136 -113.5s66.167 -91.833 88.5 -143.5s38.333 -106.5 48 -164.5s14.5 -117 14.5 -177v-1561h-271v1594c0 52 -7.16699 103.667 -21.5 155s-39 97.5 -74 138.5
s-82 74.333 -141 100s-132.833 39.167 -221.5 40.5c-82 0.666992 -151.333 -8.16602 -208 -26.499s-102.667 -42 -138 -71s-61.666 -60.833 -78.999 -95.5s-27.333 -67.334 -30 -98.001c19.333 -11.333 36.666 -26.5 51.999 -45.5s28.166 -41 38.499 -66
s18.333 -52.333 24 -82s8.5 -60.834 8.5 -93.501v-696z" />
    <glyph glyph-name="lolingthai" unicode="&#xe25;" horiz-adv-x="1679" 
d="M1244 786c-15.333 3.33301 -42.832 5.99512 -82.499 7.99512s-86.5 2 -140.5 0c-42.667 -2 -87.834 -5.33301 -135.501 -10s-94.667 -12.167 -141 -22.5s-90.833 -23.666 -133.5 -39.999s-80.167 -37 -112.5 -62s-58 -54.667 -77 -89s-28.5 -74.166 -28.5 -119.499
c0 -52 10 -95 30 -129s46.167 -61 78.5 -81s68.666 -33.833 108.999 -41.5s81.166 -11.5 122.499 -11.5c31.333 0 60.333 2 87 6s52.334 9 77.001 15v-213c-37.333 -10.667 -74 -18.834 -110 -24.501s-75.667 -8.5 -119 -8.5c-74.667 0 -145.5 8.33301 -212.5 25
s-125.667 43.667 -176 81s-90.333 85.5 -120 144.5s-44.5 131.167 -44.5 216.5c0 83.333 13.833 155.833 41.5 217.5s64.834 114.334 111.501 158.001s100.834 79.334 162.501 107.001s126.334 49.334 194.001 65.001s136.5 26.5 206.5 32.5s136.667 9.33301 200 10
c40.667 0 78.834 -0.666992 114.501 -2s68.5 -2.66602 98.5 -3.99902v152c0 66.667 -11 120.667 -33 162s-50.833 73.5 -86.5 96.5s-75.667 38.5 -120 46.5s-88.5 12 -132.5 12c-58 0 -111.667 -5.33301 -161 -16s-92.166 -28.667 -128.499 -54s-65.333 -59 -87 -101
s-33.834 -94.333 -36.501 -157h-279c2 69.333 12.333 131.333 31 186s44 102.667 76 144s69.667 76.333 113 105s91.166 52.167 143.499 70.5s108 31.5 167 39.5s119.833 12 182.5 12c45.333 0 92.166 -3 140.499 -9s95.666 -16.5 141.999 -31.5s90 -35.5 131 -61.5
s77 -59 108 -99s55.5 -87.667 73.5 -143s27 -120 27 -194v-1174h-271v786z" />
    <glyph glyph-name="luthai" unicode="&#xe26;" horiz-adv-x="1790" 
d="M1626 -545l-274 -0.00195312v1594c0 52 -7.83301 103.667 -23.5 155s-41.834 97.5 -78.501 138.5s-85.167 74.333 -145.5 100s-134.833 39.167 -223.5 40.5c-52 0.666992 -99.5 -3.83301 -142.5 -13.5s-81.5 -22.5 -115.5 -38.5s-64 -34.333 -90 -55s-47.667 -42 -65 -64
s-30.833 -43.5 -40.5 -64.5s-15.5 -39.5 -17.5 -55.5c19.333 -11.333 36.5 -26.5 51.5 -45.5s27.833 -41 38.5 -66s18.667 -52.333 24 -82s8 -60.834 8 -93.501v-905h-434v209h164v700c0 26 -1.83301 52.167 -5.5 78.5s-10.5 52 -20.5 77s-23.667 48.333 -41 70
s-40 40.834 -68 57.501c14 63.333 38.667 126.333 74 189s83.333 118.834 144 168.501s135.167 89.834 223.5 120.501s192.5 46 312.5 46c94.667 0 178.834 -9 252.501 -27s138.167 -42.833 193.5 -74.5s102 -69.5 140 -113.5s68.833 -91.833 92.5 -143.5
s40.667 -106.5 51 -164.5s15.5 -117 15.5 -177v-1561z" />
    <glyph glyph-name="wowaenthai" unicode="&#xe27;" horiz-adv-x="1524" 
d="M1126 840c0 111.333 -9 207.835 -27 289.502s-43.667 149.334 -77 203.001s-74 93.5 -122 119.5s-102.333 39 -163 39c-47.333 0 -91.166 -8 -131.499 -24s-75.833 -39.833 -106.5 -71.5s-55.667 -71.334 -75 -119.001s-31 -103.167 -35 -166.5h-278
c2.66699 88.667 19.667 170.334 51 245.001s74.166 139 128.499 193s119.333 96.167 195 126.5s159.5 45.5 251.5 45.5c116 0 216.333 -21.167 301 -63.5s154.834 -102 210.501 -179s97 -169.5 124 -277.5s40.5 -228 40.5 -360s-13.5 -252 -40.5 -360
s-68.333 -200.333 -124 -277s-125.834 -135.834 -210.501 -177.501s-185 -62.5 -301 -62.5c-92 0 -175.833 15 -251.5 45s-140.667 72 -195 126s-97.166 118.333 -128.499 193s-48.333 156.667 -51 246h278c4 -63.333 15.667 -118.833 35 -166.5s44.333 -87.334 75 -119.001
s66.167 -55.334 106.5 -71.001s84.166 -23.5 131.499 -23.5c60.667 0 115 12.667 163 38s88.667 64.5 122 117.5s59 120.167 77 201.5s27 178 27 290z" />
    <glyph glyph-name="sosalathai" unicode="&#xe28;" horiz-adv-x="1737" 
d="M434 0h-270.001v1004c0 60.667 4 120.334 12 179.001s22 114.334 42 167.001s47.167 101.5 81.5 146.5s77.5 83.667 129.5 116s114.167 57.666 186.5 75.999s156.5 27.5 252.5 27.5c66 0 125.833 -4.33301 179.5 -13s103.167 -19.334 148.5 -32.001
c30.667 0 57.334 5.33301 80.001 16s41.5 24.5 56.5 41.5s26.333 35.833 34 56.5s12.167 41.334 13.5 62.001h295c-1.33301 -28.667 -6.66602 -59 -15.999 -91s-24.333 -62.833 -45 -92.5s-47.167 -56.167 -79.5 -79.5s-71.5 -40.666 -117.5 -51.999
c28.667 -30.667 53 -66.334 73 -107.001s36.167 -84 48.5 -130s21.166 -93.833 26.499 -143.5s8 -98.834 8 -147.501v-1004h-275v1040c0 34 -2.33301 68.667 -7 104s-12.834 69.333 -24.501 102s-27.667 63.5 -48 92.5s-46.5 54.167 -78.5 75.5s-70.333 38.166 -115 50.499
s-97 18.5 -157 18.5s-112.333 -6.16699 -157 -18.5s-83.167 -29.166 -115.5 -50.499s-58.833 -46.5 -79.5 -75.5s-37.167 -59.833 -49.5 -92.5s-20.833 -66.667 -25.5 -102s-7 -70 -7 -104v-376c30.667 59.333 64.334 109.833 101.001 151.5s77.167 75.667 121.5 102
s93.5 45.333 147.5 57s113.667 17.167 179 16.5v-229c-98 0 -181.833 -13.667 -251.5 -41s-126.5 -66.5 -170.5 -117.5s-76.167 -113.333 -96.5 -187s-30.5 -156.5 -30.5 -248.5v-168z" />
    <glyph glyph-name="sorusithai" unicode="&#xe29;" horiz-adv-x="1720" 
d="M795 815l0.00390625 336h270v-123h217v651h274v-651h152v-213h-152v-139c0 -60 -3.83301 -119.333 -11.5 -178s-21.334 -114.5 -41.001 -167.5s-46.334 -101.833 -80.001 -146.5s-76.334 -83.5 -128.001 -116.5s-113.334 -58.667 -185.001 -77
s-155.167 -27.5 -250.5 -27.5c-96 0 -180 9.16699 -252 27.5s-133.667 44 -185 77s-93.833 71.833 -127.5 116.5s-60.167 93.5 -79.5 146.5s-32.833 108.833 -40.5 167.5s-11.5 118 -11.5 178v1003h270v-1036c0 -34.667 2.33301 -69.834 7 -105.501s12.834 -70 24.501 -103
s27.667 -64 48 -93s46.333 -54.167 78 -75.5s69.5 -38.166 113.5 -50.499s95.667 -18.5 155 -18.5s111 6.16699 155 18.5s81.667 29.166 113 50.499s57 46.5 77 75.5s35.667 60 47 93s19.166 67.333 23.499 103s6.5 70.834 6.5 105.501v172h-487z" />
    <glyph glyph-name="sosuathai" unicode="&#xe2a;" horiz-adv-x="1679" 
d="M1244 786c-15.333 3.33301 -42.832 5.99414 -82.499 7.99414s-86.5 2 -140.5 0c-42.667 -2 -87.834 -5.33301 -135.501 -10s-94.667 -12.167 -141 -22.5s-90.833 -23.666 -133.5 -39.999s-80.167 -37 -112.5 -62s-58 -54.667 -77 -89s-28.5 -74.166 -28.5 -119.499
c0 -52 10 -95 30 -129s46.167 -61 78.5 -81s68.666 -33.833 108.999 -41.5s81.166 -11.5 122.499 -11.5c31.333 0 60.333 2 87 6s52.334 9 77.001 15v-213c-37.333 -10.667 -74 -18.834 -110 -24.501s-75.667 -8.5 -119 -8.5c-74.667 0 -145.5 8.33301 -212.5 25
s-125.667 43.667 -176 81s-90.333 85.5 -120 144.5s-44.5 131.167 -44.5 216.5c0 83.333 13.833 155.833 41.5 217.5s64.834 114.334 111.501 158.001s100.834 79.334 162.501 107.001s126.334 49.334 194.001 65.001s136.5 26.5 206.5 32.5s136.667 9.33301 200 10
c40.667 0 78.834 -0.666992 114.501 -2s68.5 -2.66602 98.5 -3.99902v152c0 66.667 -11 120.667 -33 162s-50.833 73.5 -86.5 96.5s-75.667 38.5 -120 46.5s-88.5 12 -132.5 12c-58 0 -111.667 -5.33301 -161 -16s-92.166 -28.667 -128.499 -54s-65.333 -59 -87 -101
s-33.834 -94.333 -36.501 -157h-279c2 69.333 12.333 131.333 31 186s44 102.667 76 144s69.667 76.333 113 105s91.166 52.167 143.499 70.5s108 31.5 167 39.5s119.833 12 182.5 12c20 0 41.833 -1 65.5 -3s48 -5.16699 73 -9.5s50 -9.66602 75 -15.999
s48.5 -13.5 70.5 -21.5c30 0.666992 57 7 81 19s44.5 26.833 61.5 44.5s30.167 37.167 39.5 58.5s14.666 42.333 15.999 63h295c0 -28.667 -5.66699 -59.334 -17 -92.001s-28.833 -64.167 -52.5 -94.5s-53.5 -57.833 -89.5 -82.5s-78.333 -43 -127 -55
c18.667 -18 36.167 -39.167 52.5 -63.5s30.166 -51.5 41.499 -81.5s20.333 -62.167 27 -96.5s10 -70.166 10 -107.499v-1174h-271v786z" />
    <glyph glyph-name="hohipthai" unicode="&#xe2b;" horiz-adv-x="1683" 
d="M434 1679v-654.999l758 655h401l-389 -327c63.333 -19.333 115.5 -47.333 156.5 -84s73.333 -80.167 97 -130.5s40 -106.833 49 -169.5s13.5 -130 13.5 -202v-766h-271v799c0 46 -5 90 -15 132s-25.333 79.5 -46 112.5s-47 60.667 -79 83s-70 37.166 -114 44.499
l-561 -483v-688h-270v1679h270z" />
    <glyph glyph-name="lochulathai" unicode="&#xe2c;" horiz-adv-x="2146" 
d="M1688 0l-299.002 0.000976562l-324 1081h-12l-324 -1081h-303l-377 1679h307l226 -1376h8l319 1081h299l320 -1081h8l160 807c11.333 62.667 18.333 118.667 21 168s-2.16602 91.333 -14.499 126s-33.666 61.167 -63.999 79.5s-72.833 27.5 -127.5 27.5v172
c52 2 99.333 8.16699 142 18.5s79.667 26 111 47s56.5 47.667 75.5 80s31.167 71.5 36.5 117.5h319c-7.33301 -57.333 -22.666 -107 -46 -149c-23.333 -42 -52.166 -77.333 -86.5 -106c-34.333 -28.667 -72.5 -51.334 -114.5 -68.001s-85 -28 -129 -34
c34.667 -10 65.167 -26.667 91.5 -50s46.833 -53 61.5 -89s22.5 -78 23.5 -126s-6.16699 -101.667 -21.5 -161z" />
    <glyph glyph-name="oangthai" unicode="&#xe2d;" horiz-adv-x="1658" 
d="M111 1159c16 82.667 42.667 158.495 80 227.495s85.5 128.167 144.5 177.5s129.333 87.666 211 114.999s175.167 41 280.5 41c134 0 247.667 -22.667 341 -68s169.166 -107.666 227.499 -186.999s100.5 -172.833 126.5 -280.5s39 -223.834 39 -348.501
c0 -78 -5.83301 -153.667 -17.5 -227s-29.834 -142.333 -54.501 -207s-56.334 -123.834 -95.001 -177.501s-85 -100 -139 -139s-116.167 -69.167 -186.5 -90.5s-149.5 -32 -237.5 -32c-88.667 0 -168.167 10.667 -238.5 32s-132.333 51.166 -186 89.499
s-99.5 84.333 -137.5 138s-69 112.834 -93 177.501s-41.667 133.834 -53 207.501s-17 149.834 -17 228.501v94h725v-209h-442c0 -78.667 10.667 -150.5 32 -215.5s51.5 -120.667 90.5 -167s85.667 -82.166 140 -107.499s114.166 -38 179.499 -38
c70 0 132.833 14.333 188.5 43s103 70.334 142 125.001s68.833 121.834 89.5 201.501s31 170.834 31 273.501c0 104 -9.5 196.333 -28.5 277s-47.5 148.334 -85.5 203.001s-85.333 96.167 -142 124.5s-123 42.5 -199 42.5c-57.333 0 -110.666 -7.66699 -159.999 -23
s-92.666 -37 -129.999 -65s-68.166 -62 -92.499 -102s-40.166 -84.667 -47.499 -134h-286z" />
    <glyph glyph-name="honokhukthai" unicode="&#xe2e;" horiz-adv-x="1655" 
d="M111 1159c16 82.667 42.668 158.495 80.001 227.495s85.5 128.167 144.5 177.5s129.333 87.666 211 114.999s175.167 41 280.5 41c112.667 0 209.667 -16.333 291 -49c28 2 52.167 8.5 72.5 19.5s37.5 24.667 51.5 41s24.5 34.5 31.5 54.5s11.167 40.333 12.5 61h299
c-1.33301 -28.667 -6.83301 -58.667 -16.5 -90s-24.5 -61.333 -44.5 -90s-45.5 -54.667 -76.5 -78s-68.5 -41 -112.5 -53c40 -40 74.333 -85.333 103 -136s52 -105.667 70 -165s31.333 -122.5 40 -189.5s13 -136.833 13 -209.5c0 -78 -5.83301 -153.667 -17.5 -227
s-29.834 -142.333 -54.501 -207s-56.334 -123.834 -95.001 -177.501s-85 -100 -139 -139s-116.167 -69.167 -186.5 -90.5s-149.5 -32 -237.5 -32c-88.667 0 -168.167 10.667 -238.5 32s-132.333 51.166 -186 89.499s-99.5 84.333 -137.5 138s-69 112.834 -93 177.501
s-41.667 133.834 -53 207.501s-17 149.834 -17 228.501v94h725v-209h-442c0 -78.667 10.667 -150.5 32 -215.5s51.5 -120.667 90.5 -167s85.667 -82.166 140 -107.499s114.166 -38 179.499 -38c70 0 132.833 14.333 188.5 43s103 70.334 142 125.001
s68.833 121.834 89.5 201.501s31 170.834 31 273.501c0 104 -9.5 196.333 -28.5 277s-47.5 148.334 -85.5 203.001s-85.333 96.167 -142 124.5s-123 42.5 -199 42.5c-57.333 0 -109.666 -7.5 -156.999 -22.5s-89.166 -36.5 -125.499 -64.5s-67 -62 -92 -102
s-43.5 -85 -55.5 -135h-286z" />
    <glyph glyph-name="paiyannoithai" unicode="&#xe2f;" horiz-adv-x="1688" 
d="M1253 0l0.00488281 859.999c-23.333 -30 -51.333 -56.667 -84 -80s-68.834 -43 -108.501 -59s-82.334 -28.167 -128.001 -36.5s-92.834 -12.5 -141.501 -12.5c-110 0 -206.333 12.833 -289 38.5s-151.834 62 -207.501 109s-97.5 103.667 -125.5 170s-42 140.5 -42 222.5
c0 58.667 7.5 111 22.5 157s35.5 86.333 61.5 121s56.5 64 91.5 88s72.167 43.5 111.5 58.5s80 25.833 122 32.5s83 10 123 10h238v-229h-238c-86.667 0 -149.834 -19.667 -189.501 -59s-59.5 -100.333 -59.5 -183c0 -38 5.5 -75.5 16.5 -112.5s30.5 -70.167 58.5 -99.5
s65.667 -53.166 113 -71.499s107.333 -27.5 180 -27.5c76.667 0 144.5 7.33301 203.5 22s108.667 37.167 149 67.5s70.833 69 91.5 116s31 102.833 31 167.5v409h271v-1679h-271z" />
    <glyph glyph-name="saraathai" unicode="&#xe30;" horiz-adv-x="963" 
d="M164 1118v336h262v-123h401v-213h-663zM164 287v331h262v-122h401v-209h-663z" />
    <glyph glyph-name="maihanakatthai" unicode="&#xe31;" 
d="M-1008 1962v352h263v-143h806v-209h-1069z" />
    <glyph glyph-name="saraaathai" unicode="&#xe32;" horiz-adv-x="1380" 
d="M53 1192c0 56.667 7.66797 108.83 23.001 156.497s36.5 90.834 63.5 129.501s59.167 72.5 96.5 101.5s77.833 53.333 121.5 73s89.667 34.5 138 44.5s97.5 15 147.5 15c82 0 158 -11.167 228 -33.5s130.667 -56.166 182 -101.499s91.5 -102.833 120.5 -172.5
s43.5 -151.5 43.5 -245.5v-1159h-271v1102c0 132.667 -25.833 229.334 -77.5 290.001s-126.834 91 -225.501 91c-88 0 -159 -24.5 -213 -73.5s-84 -121.5 -90 -217.5h-287z" />
    <glyph glyph-name="saraamthai" unicode="&#xe33;" horiz-adv-x="1380" 
d="M-588 2224c0 38.667 7.33301 75.334 22 110c14.667 34.667 34.834 64.667 60.501 90s55.5 45.5 89.5 60.5s70.667 22.5 110 22.5c38 0 74.167 -7.5 108.5 -22.5s64.333 -35.167 90 -60.5s46.167 -55.333 61.5 -90s23 -71.334 23 -110c0 -39.333 -7.66699 -76 -23 -110
s-35.833 -63.833 -61.5 -89.5s-55.667 -45.834 -90 -60.501s-70.5 -22 -108.5 -22c-39.333 0 -76 7.33301 -110 22s-63.833 34.834 -89.5 60.501s-45.834 55.5 -60.501 89.5s-22 70.667 -22 110zM-421 2224c0 -15.333 3.16699 -30 9.5 -44s14.666 -26.167 24.999 -36.5
s22.5 -18.666 36.5 -25c14 -6.33301 28.667 -9.5 44 -9.5s30 3.16699 44 9.5s26.167 14.666 36.5 25c10.333 10.333 18.666 22.5 24.999 36.5s9.5 28.667 9.5 44s-3.16699 30 -9.5 44s-14.666 26.167 -24.999 36.5s-22.5 18.666 -36.5 25c-14 6.33301 -28.667 9.5 -44 9.5
s-30 -3.16699 -44 -9.5s-26.167 -14.666 -36.5 -25c-10.333 -10.333 -18.666 -22.5 -24.999 -36.5s-9.5 -28.667 -9.5 -44zM53 1192c0 56.667 7.66797 108.83 23.001 156.497s36.5 90.834 63.5 129.501s59.167 72.5 96.5 101.5s77.833 53.333 121.5 73s89.667 34.5 138 44.5
s97.5 15 147.5 15c82 0 158 -11.167 228 -33.5s130.667 -56.166 182 -101.499s91.5 -102.833 120.5 -172.5s43.5 -151.5 43.5 -245.5v-1159h-271v1102c0 132.667 -25.833 229.334 -77.5 290.001s-126.834 91 -225.501 91c-88 0 -159 -24.5 -213 -73.5s-84 -121.5 -90 -217.5
h-287z" />
    <glyph glyph-name="saraithai" unicode="&#xe34;" 
d="M-1556 1962l106 209h1286v-209h-1392z" />
    <glyph glyph-name="saraiithai" unicode="&#xe35;" 
d="M-1450 2171h1024v258h262v-467h-1392z" />
    <glyph glyph-name="sarauethai" unicode="&#xe36;" 
d="M-496 2228c0 -14 2.83301 -27.333 8.5 -40s13.5 -23.5 23.5 -32.5s21.5 -16.167 34.5 -21.5s26.5 -8 40.5 -8s27.5 2.66699 40.5 8s24.333 12.5 34 21.5s17.334 19.833 23.001 32.5s8.5 26 8.5 40c0 15.333 -2.83301 29.5 -8.5 42.5s-13.334 24.333 -23.001 34
s-21 17.167 -34 22.5s-26.5 8 -40.5 8s-27.5 -2.66699 -40.5 -8s-24.5 -12.833 -34.5 -22.5s-17.833 -21 -23.5 -34s-8.5 -27.167 -8.5 -42.5zM-655 2228c0 36.667 6.83398 71.167 20.501 103.5s32.5 60.5 56.5 84.5s52.167 43 84.5 57s67.166 21 104.499 21
c36.667 0 71.167 -7 103.5 -21s60.5 -33 84.5 -57s43 -52.167 57 -84.5s21 -66.833 21 -103.5s-7 -71.167 -21 -103.5s-33 -60.5 -57 -84.5s-52.167 -43 -84.5 -57s-66.833 -21 -103.5 -21h-1167l106 209h799c-2 10 -3.16699 20 -3.5 30s-0.5 19 -0.5 27z" />
    <glyph glyph-name="saraueethai" unicode="&#xe37;" 
d="M-1450 2171h590v258h258v-258h180v258h258v-467h-1392z" />
    <glyph glyph-name="sarauthai" unicode="&#xe38;" 
d="M-422 -819v397h-147v201h405v-598h-258z" />
    <glyph glyph-name="sarauuthai" unicode="&#xe39;" 
d="M-1167 -221h409v-201c0 -64 13.5 -112 40.5 -144s69.5 -48 127.5 -48c112 0 168 64 168 192v201h258v-201c0 -54 -7.33301 -105.167 -22 -153.5s-38.834 -90.5 -72.501 -126.5s-77.667 -64.5 -132 -85.5s-120.833 -31.5 -199.5 -31.5c-78 0 -144.167 9.5 -198.5 28.5
s-98.666 46 -132.999 81s-59.333 76.833 -75 125.5s-23.5 102.667 -23.5 162h-147v201z" />
    <glyph glyph-name="phinthuthai" unicode="&#xe3a;" 
d="M-504 -348c0 27.333 5.33301 53.166 16 77.499s25 45.666 43 63.999s39.167 32.833 63.5 43.5s50.5 16 78.5 16c26.667 0 51.834 -5.33301 75.501 -16s44.5 -25.167 62.5 -43.5s32.333 -39.666 43 -63.999s16 -50.166 16 -77.499c0 -26.667 -5.33301 -52 -16 -76
s-25 -45 -43 -63s-38.833 -32.167 -62.5 -42.5s-48.834 -15.5 -75.501 -15.5c-28 0 -54.167 5.16699 -78.5 15.5s-45.5 24.5 -63.5 42.5s-32.333 39 -43 63s-16 49.333 -16 76z" />
    <glyph glyph-name="PUCR2005" unicode="&#xe3e;" 
 />
    <glyph glyph-name="bahtthai" unicode="&#xe3f;" horiz-adv-x="1905" 
d="M766 0l-556.999 -0.000976562v1955h557v192h246v-192h61c34.667 0 70.834 -1.33301 108.501 -4s74 -7 109 -13s67.5 -13.5 97.5 -22.5s54.667 -19.833 74 -32.5c32.667 -19.333 63.5 -42.5 92.5 -69.5s54.167 -57.5 75.5 -91.5s38.333 -71.833 51 -113.5
s19 -86.5 19 -134.5c0 -104.667 -22.333 -193.5 -67 -266.5s-112.334 -129.5 -203.001 -169.5c58 -15.333 109.167 -37.666 153.5 -66.999s81.5 -64.5 111.5 -105.5s52.667 -86.833 68 -137.5s23 -105 23 -163c0 -70 -13.333 -138.833 -40 -206.5
s-65.834 -128 -117.501 -181s-115.5 -95.833 -191.5 -128.5s-163 -49 -261 -49h-164v-204h-246v204zM1012 884.999l-0.000976562 -652h127c59.333 0 111.833 7.83301 157.5 23.5s84.167 38.167 115.5 67.5s55 65.333 71 108s24 91 24 145
c0 61.333 -12.333 111.833 -37 151.5s-57 71.167 -97 94.5s-85.167 39.5 -135.5 48.5s-101.166 13.5 -152.499 13.5h-73zM766 232.999v652h-279v-652h279zM766 1122v596h-279v-596h279zM1425 1422c0 67.333 -11.168 120.668 -33.501 160.001s-52.333 69 -90 89
s-81.5 32.833 -131.5 38.5s-102.667 8.5 -158 8.5l4 -596c72.667 0 134.834 6 186.501 18s94 30.5 127 55.5s57.167 56.167 72.5 93.5s23 81.666 23 132.999z" />
    <glyph glyph-name="saraethai" unicode="&#xe40;" horiz-adv-x="684" 
d="M205 0v1679h274v-1679h-274z" />
    <glyph glyph-name="saraaethai" unicode="&#xe41;" horiz-adv-x="1167" 
d="M733 0v1679h271v-1679h-271zM164 0v1679h270v-1679h-270z" />
    <glyph glyph-name="saraothai" unicode="&#xe42;" horiz-adv-x="803" 
d="M250 1946c0 44 -6.66699 82.667 -20 116s-31.5 61 -54.5 83s-49.5 38.667 -79.5 50s-62 17 -96 17l57 217h770l123 -217h-540c17.333 -13.333 32.833 -29.833 46.5 -49.5s25.167 -41 34.5 -64s16.5 -47 21.5 -72s7.5 -49.167 7.5 -72.5v-1745h176v-209h-446v1946z" />
    <glyph glyph-name="saraaimaimuanthai" unicode="&#xe43;" horiz-adv-x="803" 
d="M520 209l175.999 -0.00195312v-209h-446v1614c0 44.667 1.5 84 4.5 118s9.5 65.5 19.5 94.5s24.333 57 43 84s44 56.5 76 88.5l40.5 40c15 14.667 28.833 29.5 41.5 44.5s23.334 30 32.001 45s13 29.167 13 42.5c0 16 -2.16699 31.833 -6.5 47.5s-12.333 29.667 -24 42
s-28 22.333 -49 30s-47.833 11.5 -80.5 11.5c-63.333 0 -110.5 -22.167 -141.5 -66.5s-46.5 -105.5 -46.5 -183.5h-258c0 78 12.333 145.5 37 202.5s57.5 104.167 98.5 141.5s88.5 65.166 142.5 83.5c54 18.333 110 27.5 168 27.5c52 0 102.333 -5.83301 151 -17.5
s91.5 -30.334 128.5 -56c37 -25.667 66.667 -58.834 89 -99.5c22.333 -40.667 33.5 -89.667 33.5 -147c0 -30 -4.16699 -56 -12.5 -78s-20.166 -43.333 -35.499 -64s-33.833 -42.167 -55.5 -64.5s-45.834 -48.833 -72.501 -79.5
c-16.667 -19.333 -29.5 -41.166 -38.5 -65.499s-15.5 -49.333 -19.5 -75s-6.33301 -51.167 -7 -76.5s-1 -48.666 -1 -69.999v-1405z" />
    <glyph glyph-name="saraaimaimalaithai" unicode="&#xe44;" horiz-adv-x="803" 
d="M250 1954c0 23.333 2.5 47.5 7.5 72.5s12.167 49 21.5 72s20.833 44.333 34.5 64s29.167 36.167 46.5 49.5h-540l123 217h770l57 -217c-34 0 -66 -5.66699 -96 -17s-56.5 -28 -79.5 -50s-41.167 -49.667 -54.5 -83s-20 -72 -20 -116v-1737h176v-209h-446v1954z" />
    <glyph glyph-name="lakkhangyaothai" unicode="&#xe45;" horiz-adv-x="1380" 
d="M53 1192c0 56.667 7.66797 108.83 23.001 156.497s36.5 90.834 63.5 129.501s59.167 72.5 96.5 101.5s77.833 53.333 121.5 73s89.667 34.5 138 44.5s97.5 15 147.5 15c82 0 158 -11.167 228 -33.5s130.667 -56.166 182 -101.499s91.5 -102.833 120.5 -172.5
s43.5 -151.5 43.5 -245.5v-1704h-271v1647c0 132.667 -25.833 229.334 -77.5 290.001s-126.834 91 -225.501 91c-88 0 -159 -24.5 -213 -73.5s-84 -121.5 -90 -217.5h-287z" />
    <glyph glyph-name="maiyamokthai" unicode="&#xe46;" horiz-adv-x="1589" 
d="M381 1094c0.666992 -28.667 4.16602 -56.999 10.499 -84.999s16.833 -53 31.5 -75s34.834 -39.833 60.501 -53.5s58.5 -20.5 98.5 -20.5h36v-229h-36c-63.333 0 -123.5 8.66699 -180.5 26s-107 44.666 -150 81.999s-77.167 84.833 -102.5 142.5s-38 127.167 -38 208.5
c0 78 6.33301 150.5 19 217.5s36.334 126.667 71.001 179s83 96.5 145 132.5s142 61.667 240 77l188 -197l172 197c70.667 -6 131.5 -19.167 182.5 -39.5s94 -46 129 -77s63 -66.667 84 -107s37 -83.833 48 -130.5s18.333 -95.5 22 -146.5s5.5 -102.833 5.5 -155.5v-1581
h-274v1614c0 34.667 -1 72.167 -3 112.5s-7.5 78.333 -16.5 114s-23.333 66.334 -43 92.001s-46.834 41.167 -81.501 46.5l-192 -201c-4 -4 -9 -7.66699 -15 -11s-12 -5 -18 -5c-8 0 -15.167 1.66699 -21.5 5s-11.5 7 -15.5 11l-196 201
c-34 -13.333 -61.833 -31.5 -83.5 -54.5s-38.5 -49.5 -50.5 -79.5s-19.833 -62.833 -23.5 -98.5s-4.5 -72.834 -2.5 -111.501z" />
    <glyph glyph-name="maitaikhuthai" unicode="&#xe47;" 
d="M-1085 2306c0 -10 1.33301 -21.8311 4 -35.498s8.33398 -26.667 17.001 -39s21 -22.833 37 -31.5s37.333 -13 64 -13c21.333 0 40.166 3.83301 56.499 11.5s30 18.5 41 32.5s19 30.5 24 49.5s6.83301 39.833 5.5 62.5h181c-1.33301 -22.667 0.333984 -43.5 5.00098 -62.5
s12.167 -35.5 22.5 -49.5s23.5 -24.833 39.5 -32.5s34.667 -11.5 56 -11.5c23.333 0 42.666 4.16699 57.999 12.5s27 19.5 35 33.5s12.833 30.5 14.5 49.5s1.16699 39.167 -1.5 60.5h205c8 -63.333 6 -117.833 -6 -163.5s-31.167 -83.167 -57.5 -112.5
s-58 -50.833 -95 -64.5s-75.833 -20.5 -116.5 -20.5c-34.667 0 -66.167 5.83301 -94.5 17.5s-53 26.5 -74 44.5s-38 37.833 -51 59.5s-21.5 42.834 -25.5 63.5c-2 -20.667 -10.667 -41.834 -26 -63.501s-35 -41.5 -59 -59.5s-51.5 -32.833 -82.5 -44.5
s-62.833 -17.5 -95.5 -17.5c-62 0 -114.167 10.667 -156.5 32s-76.5 48.166 -102.5 80.499s-44.5 67.5 -55.5 105.5s-16.5 73.333 -16.5 106c0 63.333 11.833 117.166 35.5 161.5c23.667 44.333 55 80.333 94 108s84 47.667 135 60s103.5 18.5 157.5 18.5h794v-192h-766
c-46 0 -82.333 -5.33301 -109 -16s-46.667 -23.834 -60 -39.5c-13.333 -15.667 -21.833 -32.5 -25.5 -50.5s-5.5 -34.667 -5.5 -50z" />
    <glyph glyph-name="maiekthai" unicode="&#xe48;" 
d="M-426 3060h262v-443h-262v443z" />
    <glyph glyph-name="maithothai" unicode="&#xe49;" 
d="M-741 2621l-0.00292969 250h-144v201h373v-250c60.667 0 114.834 6.5 162.501 19.5s88 30.833 121 53.5s58.167 49.167 75.5 79.5s26 62.833 26 97.5h250c0 -58 -13.167 -114.167 -39.5 -168.5s-66.166 -102.5 -119.499 -144.5s-120.166 -75.5 -200.499 -100.5
s-174.833 -37.5 -283.5 -37.5h-221z" />
    <glyph glyph-name="maitrithai" unicode="&#xe4a;" 
d="M-270 2617c0 12 -1.50098 28 -4.50098 48s-7.66699 39.5 -14 58.5s-14.166 35.333 -23.499 49s-20 20.5 -32 20.5s-22.667 -5.83301 -32 -17.5s-17.166 -26.334 -23.499 -44c-6.33301 -17.667 -11 -36.834 -14 -57.5c-3 -20.667 -4.5 -39.667 -4.5 -57h-176
c0 17.333 -1.5 36.333 -4.5 57s-7.5 39.834 -13.5 57.5c-6 17.667 -13.333 32.334 -22 44c-8.66699 11.667 -18.667 17.5 -30 17.5c-12 0 -22.667 -6.83301 -32 -20.5s-17 -30 -23 -49s-10.5 -38.5 -13.5 -58.5s-4.5 -36 -4.5 -48h-209c-4 66.667 0.166992 124.667 12.5 174
s30.166 90.333 53.499 123s51 57 83 73s65.667 24 101 24c41.333 0 78.833 -10.167 112.5 -30.5s58.834 -47.166 75.501 -80.5c16.667 30.667 42.334 56.834 77.001 78.5c34.667 21.667 74.667 32.5 120 32.5c25.333 0 49.666 -4.5 72.999 -13.5s44.5 -22.167 63.5 -39.5
s35.167 -38.333 48.5 -63s22.666 -53 27.999 -85c13.333 11.333 26.5 26.833 39.5 46.5s24.833 41.5 35.5 65.5s19.167 48.667 25.5 74s9.5 49.333 9.5 72h226c0 -46 -8.66699 -93.833 -26 -143.5s-40.5 -95.834 -69.5 -138.5c-29 -42.667 -63 -79.5 -102 -110.5
s-79.833 -50.5 -122.5 -58.5h-188z" />
    <glyph glyph-name="maichattawathai" unicode="&#xe4b;" 
d="M-169 2835v-218h-252v218h-242v191h242v214h252v-214h242v-191h-242z" />
    <glyph glyph-name="thanthakhatthai" unicode="&#xe4c;" 
d="M-82 2695c-100.667 0 -177.667 -19.333 -231 -58s-80 -99.667 -80 -183h-254c0 68.667 13 130.334 39 185c26 54.667 63.167 101.167 111.5 139.5s107.5 67.833 177.5 88.5s149 31.667 237 33v-205z" />
    <glyph glyph-name="nikhahitthai" unicode="&#xe4d;" 
d="M-588 2224c0 38.667 7.33301 75.334 22 110c14.667 34.667 34.834 64.667 60.501 90s55.5 45.5 89.5 60.5s70.667 22.5 110 22.5c38 0 74.167 -7.5 108.5 -22.5s64.333 -35.167 90 -60.5s46.167 -55.333 61.5 -90s23 -71.334 23 -110c0 -39.333 -7.66699 -76 -23 -110
s-35.833 -63.833 -61.5 -89.5s-55.667 -45.834 -90 -60.501s-70.5 -22 -108.5 -22c-39.333 0 -76 7.33301 -110 22s-63.833 34.834 -89.5 60.501s-45.834 55.5 -60.501 89.5s-22 70.667 -22 110zM-421 2224c0 -15.333 3.16699 -30 9.5 -44s14.666 -26.167 24.999 -36.5
s22.5 -18.666 36.5 -25c14 -6.33301 28.667 -9.5 44 -9.5s30 3.16699 44 9.5s26.167 14.666 36.5 25c10.333 10.333 18.666 22.5 24.999 36.5s9.5 28.667 9.5 44s-3.16699 30 -9.5 44s-14.666 26.167 -24.999 36.5s-22.5 18.666 -36.5 25c-14 6.33301 -28.667 9.5 -44 9.5
s-30 -3.16699 -44 -9.5s-26.167 -14.666 -36.5 -25c-10.333 -10.333 -18.666 -22.5 -24.999 -36.5s-9.5 -28.667 -9.5 -44z" />
    <glyph glyph-name="yamakkanthai" unicode="&#xe4e;" 
d="M20 2421c-46 0 -83.6699 -3.33105 -113.003 -9.99805s-52.166 -17.334 -68.499 -32c-16.333 -14.667 -27.666 -34.167 -33.999 -58.5s-9.5 -53.833 -9.5 -88.5v-45h-57c-41.333 0 -75.333 -5.16699 -102 -15.5s-48 -25.333 -64 -45s-27.167 -43.334 -33.5 -71.001
s-9.5 -58.834 -9.5 -93.501h-254c0 49.333 5.83301 96 17.5 140s29.834 83.833 54.501 119.5s56.5 66 95.5 91s85.5 43.167 139.5 54.5c7.33301 38.667 21.166 73.834 41.499 105.5c20.333 31.667 48.333 58.667 84 81s79.334 40.166 131.001 53.5
c51.667 13.333 112.167 21 181.5 23v-209z" />
    <glyph glyph-name="fongmanthai" unicode="&#xe4f;" horiz-adv-x="2028" 
d="M123 836c0 81.333 10.5 159.5 31.5 234.5s50.833 145 89.5 210s85 124.333 139 178s114 99.5 180 137.5s136.833 67.5 212.5 88.5s154.5 31.5 236.5 31.5c80.667 0 158.167 -10.5 232.5 -31.5s144 -50.5 209 -88.5s124.167 -83.833 177.5 -137.5s99 -113 137 -178
s67.5 -135 88.5 -210s31.5 -153.167 31.5 -234.5s-10.5 -159.5 -31.5 -234.5s-50.5 -145.167 -88.5 -210.5s-83.667 -124.833 -137 -178.5s-112.5 -99.5 -177.5 -137.5s-134.667 -67.5 -209 -88.5s-151.833 -31.5 -232.5 -31.5c-82 0 -160.833 10.5 -236.5 31.5
s-146.5 50.5 -212.5 88.5s-126 83.833 -180 137.5s-100.333 113.167 -139 178.5s-68.5 135.5 -89.5 210.5s-31.5 153.167 -31.5 234.5zM352 844c0 -60 7.83301 -118 23.5 -174s37.667 -108.5 66 -157.5s62.5 -93.667 102.5 -134s84.333 -74.833 133 -103.5
s101.334 -51 158.001 -67s115.667 -24 177 -24c59.333 0 116.666 8 171.999 24s107 38.333 155 67s92 63.167 132 103.5s74.167 85 102.5 134s50.333 101.5 66 157.5s23.5 114 23.5 174s-7.83301 117.667 -23.5 173s-37.667 107.166 -66 155.499s-62.5 92.333 -102.5 132
s-84 73.667 -132 102s-99.667 50.166 -155 65.499s-112.666 23 -171.999 23c-61.333 0 -120.333 -7.66699 -177 -23s-109.334 -37.166 -158.001 -65.499s-93 -62.333 -133 -102s-74.167 -83.667 -102.5 -132s-50.333 -100.166 -66 -155.499s-23.5 -113 -23.5 -173zM541 844
c0 62.667 12.5 122 37.5 178s58.833 105.167 101.5 147.5s92.5 75.833 149.5 100.5s117.833 37 182.5 37c62.667 0 121.667 -12.333 177 -37s103.833 -58.167 145.5 -100.5s74.667 -91.5 99 -147.5s36.5 -115.333 36.5 -178c0 -64.667 -12.167 -125.334 -36.5 -182.001
s-57.333 -106.167 -99 -148.5s-90.167 -75.666 -145.5 -99.999s-114.333 -36.5 -177 -36.5c-64.667 0 -125.5 12.167 -182.5 36.5s-106.833 57.666 -149.5 99.999s-76.5 91.833 -101.5 148.5s-37.5 117.334 -37.5 182.001zM741 844c0 -38 6.83301 -73.5 20.5 -106.5
s32.5 -61.667 56.5 -86s52.5 -43.5 85.5 -57.5s69.167 -21 108.5 -21c36 0 69.667 7 101 21s58.666 33.167 81.999 57.5s41.666 53 54.999 86s20 68.5 20 106.5c0 36 -6.66699 69.833 -20 101.5s-31.666 59.334 -54.999 83.001s-50.666 42.5 -81.999 56.5s-65 21 -101 21
c-39.333 0 -75.5 -7 -108.5 -21s-61.5 -32.833 -85.5 -56.5s-42.833 -51.334 -56.5 -83.001s-20.5 -65.5 -20.5 -101.5z" />
    <glyph glyph-name="zerothai" unicode="&#xe50;" horiz-adv-x="1774" 
d="M1647 774c0 -101.333 -8.99902 -191.669 -26.999 -271.002s-43.5 -148.833 -76.5 -208.5s-72.5 -110 -118.5 -151s-97.167 -74.333 -153.5 -100s-116.833 -44.167 -181.5 -55.5s-131.667 -17 -201 -17s-136.5 5.83301 -201.5 17.5s-125.667 30.334 -182 56.001
s-107.833 59.167 -154.5 100.5s-86.5 91.833 -119.5 151.5s-58.667 128.834 -77 207.501s-27.5 168.667 -27.5 270c0 105.333 17.5 201.333 52.5 288s85.167 160.834 150.5 222.501s145.166 109.5 239.499 143.5s200.833 51 319.5 51c118 0 223.833 -17 317.5 -51
s173.167 -81.833 238.5 -143.5s115.333 -135.834 150 -222.501s52 -182.667 52 -288zM1384 716.997c0 97.333 -13.332 180 -39.999 248s-62.667 123.333 -108 166s-97.833 73.667 -157.5 93s-122.834 29 -189.501 29s-130.167 -9.66699 -190.5 -29
s-113.5 -50.333 -159.5 -93s-82.5 -98 -109.5 -166s-40.5 -150.667 -40.5 -248c0 -76 12 -145.833 36 -209.5s58 -118.5 102 -164.5s96.667 -81.833 158 -107.5s129.333 -38.5 204 -38.5s142.5 12.833 203.5 38.5s113 61.5 156 107.5s76.333 100.833 100 164.5
s35.5 133.5 35.5 209.5z" />
    <glyph glyph-name="onethai" unicode="&#xe51;" horiz-adv-x="1761" 
d="M791 -25c-61.333 0 -124.5 2.00293 -189.5 6.00293s-129.667 13.5 -194 28.5s-127.833 37.667 -190.5 68s-122.667 71.5 -180 123.5l213 180c32.667 -38 68.834 -69.667 108.501 -95s82 -45.5 127 -60.5s92.333 -25.667 142 -32s101.167 -9.5 154.5 -9.5
c84 0 160.667 12.833 230 38.5s129 63.5 179 113.5s88.667 111.667 116 185s41 157.666 41 252.999c0 74 -9.16699 141.333 -27.5 202s-47 112.834 -86 156.501s-88.5 77.5 -148.5 101.5s-131.333 36 -214 36c-67.333 0 -128.333 -8.83301 -183 -26.5
s-101.167 -41 -139.5 -70s-67.833 -62.167 -88.5 -99.5s-31 -76 -31 -116c0 -36.667 6.83301 -72.834 20.5 -108.501s36.667 -66.5 69 -92.5s75.5 -44.833 129.5 -56.5s121.667 -11.834 203 -0.500977v-188c-35.333 -8 -67.333 -13.333 -96 -16s-55.334 -4 -80.001 -4
c-74 0 -143.5 10.5 -208.5 31.5s-121.833 50.833 -170.5 89.5s-87.167 85.167 -115.5 139.5s-42.5 114.833 -42.5 181.5c0 65.333 9.66699 124.333 29 177s46 99.334 80 140.001s74 75.667 120 105s95.833 53.333 149.5 72s110 32.5 169 41.5s118.167 13.5 177.5 13.5
c107.333 0 208 -12.833 302 -38.5s176 -66.834 246 -123.501s125.167 -129.667 165.5 -219s60.5 -197.333 60.5 -324c0 -120 -19.333 -229.167 -58 -327.5s-94.5 -182.833 -167.5 -253.5s-161.833 -125.334 -266.5 -164.001s-223 -58 -355 -58z" />
    <glyph glyph-name="twothai" unicode="&#xe52;" horiz-adv-x="1999" 
d="M147 1208c0 45.333 -2.66797 83.8398 -8.00098 115.507s-13.666 57.5 -24.999 77.5s-25.666 34.5 -42.999 43.5s-38.333 13.5 -63 13.5l41 230c54 0 103.5 -8.66699 148.5 -26s83.5 -43.5 115.5 -78.5s56.833 -79.167 74.5 -132.5s26.5 -116.333 26.5 -189v-631
c0 -58.667 13 -113.334 39 -164.001s65.167 -94.834 117.5 -132.501s117.666 -67.334 195.999 -89.001s169.5 -32.5 273.5 -32.5c99.333 0 183.833 10.167 253.5 30.5s126.334 47.333 170.001 81s75.5 72.5 95.5 116.5s30 89.667 30 137v426
c0 36.667 -4.83301 68.667 -14.5 96s-22.834 50.666 -39.501 69.999s-36.167 34.666 -58.5 45.999s-46.166 19.666 -71.499 24.999l-213 -192l-213 180c-17.333 0 -35.5 -4.33301 -54.5 -13s-36.333 -21.834 -52 -39.501s-28.5 -39.834 -38.5 -66.501s-15 -58 -15 -94v-127
c-1.33301 -32.667 -1.5 -65.334 -0.5 -98.001s5.83301 -62.167 14.5 -88.5s22.667 -47.666 42 -63.999s47 -24.5 83 -24.5h103v-204h-131c-59.333 0 -110 8 -152 24s-77 37 -105 63s-50 55.5 -66 88.5s-28.167 67 -36.5 102s-13.833 69.333 -16.5 103
s-4.33398 63.834 -5.00098 90.501v110c0 61.333 11.333 119.5 34 174.5s54.5 104.167 95.5 147.5s90.5 79.5 148.5 108.5s122.333 48.167 193 57.5l172 -152l160 152c70.667 -4 136.5 -17.833 197.5 -41.5s114.167 -55 159.5 -94s81 -84.667 107 -137
s39 -109.166 39 -170.499v-409c0 -75.333 -9 -143.5 -27 -204.5s-43.167 -115.5 -75.5 -163.5s-71 -89.5 -116 -124.5s-94.667 -64 -149 -87s-112.5 -40 -174.5 -51s-125.667 -16.5 -191 -16.5h-143c-132 0 -249.667 16.167 -353 48.5s-190.5 78.166 -261.5 137.499
s-125 130.833 -162 214.5s-55.5 176.5 -55.5 278.5v549z" />
    <glyph glyph-name="threethai" unicode="&#xe53;" horiz-adv-x="1806" 
d="M664 1221c-26 -2 -53.832 -10.166 -83.499 -24.499s-57.167 -38 -82.5 -71s-46.333 -77.333 -63 -133s-25 -125.834 -25 -210.501v-118c0 -34 0.166992 -68.667 0.5 -104s2.33301 -69.333 6 -102s9.5 -63.5 17.5 -92.5s19.5 -54.167 34.5 -75.5
s34.333 -38.166 58 -50.499s52.834 -18.5 87.501 -18.5c18.667 0 45.667 1.16699 81 3.5s72.666 6.83301 111.999 13.5v-230c-13.333 -4 -31.666 -7.66699 -54.999 -11s-48.5 -6 -75.5 -8s-54 -3.16699 -81 -3.5s-50.833 0.5 -71.5 2.5c-64 8.66699 -118 25.667 -162 51
s-80.333 56.166 -109 92.499s-50.667 76.833 -66 121.5s-26.5 90.334 -33.5 137.001s-11.167 93.167 -12.5 139.5s-2 89.5 -2 129.5v119c0 114.667 12.5 213.834 37.5 297.501s61.333 153.667 109 210s106 100.166 175 131.499s147.5 52 235.5 62l205 -189
c37.333 29.333 75 60.833 113 94.5s75.333 65.167 112 94.5c93.333 -6 174 -25 242 -57s124.167 -73 168.5 -123s77.166 -107 98.499 -171s32 -131.333 32 -202v-926h-270v926c0 40 -6.83301 78.167 -20.5 114.5s-31.834 68.166 -54.501 95.499s-48.5 48.833 -77.5 64.5
s-58.833 22.5 -89.5 20.5l-61.5 -52.5l-65.5 -55.5l-65.5 -55l-61.5 -50z" />
    <glyph glyph-name="fourthai" unicode="&#xe54;" horiz-adv-x="1794" 
d="M864 1217c-71.333 0 -135.832 -8.17383 -193.499 -24.5068s-106.834 -40.166 -147.501 -71.499s-71.834 -69.833 -93.501 -115.5s-32.5 -98.167 -32.5 -157.5v-201c0 -59.333 8.16699 -114.5 24.5 -165.5s41.666 -95.167 75.999 -132.5s78 -66.666 131 -87.999
s116.5 -32 190.5 -32h70c-15.333 13.333 -30.5 29.5 -45.5 48.5s-28.167 40.333 -39.5 64s-20.5 49.834 -27.5 78.501s-10.5 59.334 -10.5 92.001c0 14.667 1 33.167 3 55.5s7.5 45.833 16.5 70.5s22.5 49.334 40.5 74.001s43.167 46.667 75.5 66
s72.666 35.166 120.999 47.499s107.5 18.5 177.5 18.5v-226c-43.333 0 -76.833 -5.16699 -100.5 -15.5s-41 -22.666 -52 -36.999s-17.667 -29.166 -20 -44.499s-3.5 -28 -3.5 -38c0 -22.667 4.33301 -44.667 13 -66s19.834 -41.333 33.501 -60s29.167 -35.834 46.5 -51.501
s34.833 -29.167 52.5 -40.5s34.5 -20.166 50.5 -26.499s30 -9.5 42 -9.5h409v-229h-889c-86.667 0 -163 9.33301 -229 28s-123.333 43.834 -172 75.501s-89.167 68.667 -121.5 111s-58.333 87 -78 134s-33.667 95 -42 144s-12.5 96.5 -12.5 142.5v168
c0 110.667 18 206.5 54 287.5s87.333 148.167 154 201.5s147.167 93 241.5 119s199.833 39 316.5 39h283c44 0 80 5.33301 108 16s50.167 26 66.5 46s27.5 44.167 33.5 72.5s9 59.833 9 94.5h278c0 -36 -2.66699 -72.5 -8 -109.5s-14.666 -72.667 -27.999 -107
s-31.666 -66.333 -54.999 -96s-52.833 -55.667 -88.5 -78s-78.5 -39.833 -128.5 -52.5s-108.333 -19 -175 -19h-324z" />
    <glyph glyph-name="fivethai" unicode="&#xe55;" horiz-adv-x="1806" 
d="M803 1516c0 -31.333 9.16699 -57 27.5 -77s41.833 -30 70.5 -30c33.333 0 59.5 10 78.5 30s28.5 45.667 28.5 77c0 32.667 -9.5 58.5 -28.5 77.5s-45.167 28.5 -78.5 28.5c-28.667 0 -52.167 -9.5 -70.5 -28.5s-27.5 -44.833 -27.5 -77.5zM1196 1507
c0 -6 -0.336914 -12.5049 -1.00391 -19.5049s-1.66699 -13.167 -3 -18.5c-1.33301 -6.66699 -2.66602 -13 -3.99902 -19c42.667 2 77.5 8.83301 104.5 20.5s47.833 27.5 62.5 47.5s24.667 43.667 30 71s8 57.333 8 90h278c0 -36 -2.66699 -72.5 -8 -109.5
s-14.666 -72.667 -27.999 -107s-31.666 -66.333 -54.999 -96s-52.833 -55.667 -88.5 -78s-78.5 -39.833 -128.5 -52.5s-108.333 -19 -175 -19h-307c-72 0 -137.667 -6.83301 -197 -20.5s-110.166 -35.167 -152.499 -64.5s-75.333 -67.333 -99 -114
s-35.5 -103.334 -35.5 -170.001v-201c0 -59.333 8.16699 -114.5 24.5 -165.5s41.666 -95.167 75.999 -132.5s78 -66.666 131 -87.999s116.5 -32 190.5 -32h70c-15.333 13.333 -30.5 29.5 -45.5 48.5s-28.167 40.333 -39.5 64s-20.5 49.834 -27.5 78.501
s-10.5 59.334 -10.5 92.001c0 14.667 1 33.167 3 55.5s7.5 45.833 16.5 70.5s22.5 49.334 40.5 74.001s43.167 46.667 75.5 66s72.666 35.166 120.999 47.499s107.5 18.5 177.5 18.5v-226c-43.333 0 -76.833 -5.16699 -100.5 -15.5s-41 -22.666 -52 -36.999
s-17.667 -29.166 -20 -44.499s-3.5 -28 -3.5 -38c0 -22.667 4.33301 -44.667 13 -66s19.834 -41.333 33.501 -60s29.167 -35.834 46.5 -51.501s34.833 -29.167 52.5 -40.5s34.5 -20.166 50.5 -26.499s30 -9.5 42 -9.5h409v-229h-889c-86.667 0 -163 9.33301 -229 28
s-123.333 43.834 -172 75.501s-89.167 68.667 -121.5 111s-58.333 87 -78 134s-33.667 95 -42 144s-12.5 96.5 -12.5 142.5v168c0 97.333 13 181.666 39 252.999s62.167 132 108.5 182s101.833 90.333 166.5 121s136 54.334 214 71.001c-4 8 -7.66699 19.333 -11 34
s-5 29 -5 43c0 38.667 7.16699 75.334 21.5 110.001s34 64.667 59 90s54 45.5 87 60.5s68.5 22.5 106.5 22.5c40.667 0 78.334 -7.5 113.001 -22.5s64.667 -35.167 90 -60.5s45 -55.333 59 -90s21 -71.334 21 -110.001z" />
    <glyph glyph-name="sixthai" unicode="&#xe56;" horiz-adv-x="1815" 
d="M446 1335c32 16.667 65.834 32.8291 101.501 48.4961s75.167 30 118.5 43s91.333 23.833 144 32.5s111.667 14 177 16c94 2.66699 177.5 -4.16602 250.5 -20.499s136.667 -40.333 191 -72s100 -69.5 137 -113.5s67 -92.167 90 -144.5s39.5 -108 49.5 -167
s15 -118.833 15 -179.5v-106c0 -94 -16.333 -183.833 -49 -269.5s-81.667 -160.5 -147 -224.5s-146.833 -114 -244.5 -150s-211.5 -52 -341.5 -48c-95.333 2.66699 -182.5 16 -261.5 40s-146.667 57 -203 99s-100.166 92.333 -131.499 151s-47 124.334 -47 197.001
c0 67.333 11.333 125.5 34 174.5s54.667 89.333 96 121s91.166 55.167 149.499 70.5s123.5 23 195.5 23h107v-205h-95c-44 0 -80 -4.83301 -108 -14.5s-50.167 -23.167 -66.5 -40.5s-27.5 -38 -33.5 -62s-9 -50.333 -9 -79c0 -34 9.33301 -65.833 28 -95.5
s45 -55.5 79 -77.5s75 -39.5 123 -52.5s101 -19.833 159 -20.5c63.333 -1.33301 124.666 7.66699 183.999 27s111.833 48.333 157.5 87s82.167 86.834 109.5 144.501s41 124.5 41 200.5v102c0 82 -10.167 152.833 -30.5 212.5s-49.833 108.834 -88.5 147.501
s-85.5 67 -140.5 85s-117.5 26.667 -187.5 26c-55.333 -1.33301 -109.833 -6.5 -163.5 -15.5s-107 -22.5 -160 -40.5s-106.333 -41 -160 -69s-108.167 -61.333 -163.5 -100l-278 463l209 127z" />
    <glyph glyph-name="seventhai" unicode="&#xe57;" horiz-adv-x="2130" 
d="M1724 1262c0 72.667 8.83301 135.665 26.5 188.998s42.5 97.5 74.5 132.5s70.5 61.167 115.5 78.5s94.5 26 148.5 26l41 -230c-24.667 0 -45.667 -4.5 -63 -13.5s-31.666 -23.5 -42.999 -43.5s-19.666 -45.833 -24.999 -77.5s-8 -70.167 -8 -115.5v-467
c0 -102 -12.333 -196.333 -37 -283s-62.834 -163 -114.501 -229s-117.167 -120 -196.5 -162s-173.666 -69.667 -282.999 -83l-213 155c40 40.667 71 81.167 93 121.5s38.333 81.166 49 122.499s17 84 19 128s3 90.667 3 140v127c0 70.667 -6 131.834 -18 183.501
s-28.167 95 -48.5 130s-43.833 61.833 -70.5 80.5s-54.667 30.667 -84 36l-209 -213l-201 217c-25.333 -1.33301 -52.5 -10.166 -81.5 -26.499s-55.667 -42.166 -80 -77.499s-44.5 -80.833 -60.5 -136.5s-24 -122.834 -24 -201.501v-111c0 -24.667 0.5 -52.334 1.5 -83.001
s3.5 -62 7.5 -94s10.333 -63.167 19 -93.5s21 -57.333 37 -81s36 -42.667 60 -57s53.333 -21.5 88 -21.5c7.33301 0 16.833 0.333008 28.5 1s24.167 1.5 37.5 2.5s26.833 2.33301 40.5 4s26.167 3.5 37.5 5.5l4 -226c-12.667 -3.33301 -28.334 -6.83301 -47.001 -10.5
s-38.834 -7 -60.501 -10s-44.167 -4.66699 -67.5 -5s-45.666 1.5 -66.999 5.5c-61.333 14 -113.666 34.333 -156.999 61s-79.333 57.834 -108 93.501s-51.334 74.5 -68.001 116.5s-29.167 85 -37.5 129s-13.5 87.833 -15.5 131.5s-3 84.834 -3 123.501v115
c0 108.667 12.333 204.5 37 287.5s60.5 153.667 107.5 212s104.833 104.5 173.5 138.5s147 56 235 66l164 -180l172 176c101.333 -12 185.166 -37.667 251.499 -77s119.166 -89.333 158.499 -150s66.833 -130.167 82.5 -208.5s23.5 -162.5 23.5 -252.5v-119
c-1.33301 -32 -3 -67.667 -5 -107s-5.5 -78.166 -10.5 -116.499s-12.167 -74.333 -21.5 -108s-21.666 -60.834 -36.999 -81.501c40.667 12 75.5 33.667 104.5 65s52.833 68.5 71.5 111.5s32.167 89.667 40.5 140s12.5 100.5 12.5 150.5v549z" />
    <glyph glyph-name="eightthai" unicode="&#xe58;" horiz-adv-x="1802" 
d="M831 1212c-70.667 0 -131.333 -10.1729 -182 -30.5059s-92.167 -47.166 -124.5 -80.499s-56.166 -71.666 -71.499 -114.999s-23 -88 -23 -134v-315c0 -39.333 7.16699 -76.5 21.5 -111.5s33 -66.167 56 -93.5s48.5 -49.333 76.5 -66s56 -26 84 -28l124 108
c44 37.333 84.333 73.666 121 108.999l263 -217c30.667 0.666992 59.167 5.66699 85.5 15s49.166 24.666 68.499 45.999s34.666 50 45.999 86s17 81 17 135c0 23.333 -1.83301 47 -5.5 71s-10.667 46.333 -21 67s-25.166 38.334 -44.499 53.001s-45 24.667 -77 30
c-8 2 -19.5 3.16699 -34.5 3.5s-30.833 0.5 -47.5 0.5v201h90c60 -3.33301 111.833 -11.666 155.5 -24.999s80.5 -30.5 110.5 -51.5s54.167 -45 72.5 -72s32.5 -55.667 42.5 -86s16.667 -61.833 20 -94.5s5 -65 5 -97c0 -88 -10 -165.5 -30 -232.5s-51.333 -123 -94 -168
s-97 -78.833 -163 -101.5s-145 -34 -237 -34l-222 184l-204 -184c-90 6 -169.333 24.667 -238 56s-126 71.833 -172 121.5s-80.667 106.667 -104 171s-35 132.5 -35 204.5v270c0 100 14.833 190 44.5 270s73.667 148 132 204s131.166 98.833 218.499 128.5
s189 44.5 305 44.5h373c42.667 0 78 5.16699 106 15.5s50.333 25.333 67 45s28.167 43.334 34.5 71.001s9.5 58.834 9.5 93.501h274c0 -36 -2.66699 -72.667 -8 -110s-14.666 -73.166 -27.999 -107.499s-31.5 -66.666 -54.5 -96.999s-52.333 -56.833 -88 -79.5
s-78.167 -40.5 -127.5 -53.5s-107 -19.5 -173 -19.5h-414z" />
    <glyph glyph-name="ninethai" unicode="&#xe59;" horiz-adv-x="1769" 
d="M1331 1475c42.667 0 76.8281 4.16504 102.495 12.498s45.167 20.833 58.5 37.5s22 37.834 26 63.501s6 55.834 6 90.501h270c0 -36 -2.16699 -71.833 -6.5 -107.5s-12.333 -69.834 -24 -102.501s-28 -62.834 -49 -90.501s-48.333 -51.667 -82 -72
s-74.667 -36.333 -123 -48s-105.166 -17.5 -170.499 -17.5h-24c-10.667 0 -20.167 -2.66699 -28.5 -8s-16.5 -12.333 -24.5 -21l-95 -98l529 -1114h-287l-471 1008c-37.333 76 -78.333 133.833 -123 173.5s-98 59.5 -160 59.5c-36 0 -69.167 -7.16699 -99.5 -21.5
s-56.5 -39 -78.5 -74s-39.333 -82 -52 -141s-19 -133.167 -19 -222.5v-159c0.666992 -27.333 2.33398 -56.166 5.00098 -86.499s7.16699 -60.166 13.5 -89.499s15 -57.5 26 -84.5s25.167 -50.667 42.5 -71s38.333 -36.5 63 -48.5s53.667 -18 87 -18
c12.667 0 29.334 1 50.001 3s42.334 5.33301 65.001 10l37 -226c-12.667 -3.33301 -28.334 -6.5 -47.001 -9.5s-39 -5.66699 -61 -8s-44.833 -3.83301 -68.5 -4.5s-46.834 0 -69.501 2c-63.333 7.33301 -117.666 22.5 -162.999 45.5s-83.333 51.333 -114 85
s-55 71.667 -73 114s-31.833 86.5 -41.5 132.5s-15.834 92.667 -18.501 140s-4 93.333 -4 138v123c0 116 8.83301 217.833 26.5 305.5s47 161.167 88 220.5s95 104 162 134s149.5 45 247.5 45c18.667 0 38.834 -0.166992 60.501 -0.5s43.5 -1.33301 65.5 -3s43 -4.5 63 -8.5
s37.667 -9.66699 53 -17c28.667 -14.667 53.834 -32.667 75.501 -54s42.834 -48.333 63.501 -81l140 139c4 4 10.667 9.16699 20 15.5s20.333 9.5 33 9.5h98z" />
    <glyph glyph-name="angkhankhuthai" unicode="&#xe5a;" horiz-adv-x="2257" 
d="M1253 0l0.00488281 859.999c-23.333 -30 -51.333 -56.667 -84 -80s-68.834 -43 -108.501 -59s-82.334 -28.167 -128.001 -36.5s-92.834 -12.5 -141.501 -12.5c-110 0 -206.333 12.833 -289 38.5s-151.834 62 -207.501 109s-97.5 103.667 -125.5 170s-42 140.5 -42 222.5
c0 58.667 7.5 111 22.5 157s35.5 86.333 61.5 121s56.5 64 91.5 88s72.167 43.5 111.5 58.5s80 25.833 122 32.5s83 10 123 10h238v-229h-238c-86.667 0 -149.834 -19.667 -189.501 -59s-59.5 -100.333 -59.5 -183c0 -38 5.5 -75.5 16.5 -112.5s30.5 -70.167 58.5 -99.5
s65.667 -53.166 113 -71.499s107.333 -27.5 180 -27.5c76.667 0 144.5 7.33301 203.5 22s108.667 37.167 149 67.5s70.833 69 91.5 116s31 102.833 31 167.5v409h271v-1679h-271zM1823 -0.000976562v1679h270v-1679h-270z" />
    <glyph glyph-name="khomutthai" unicode="&#xe5b;" horiz-adv-x="3551" 
d="M2847 885l-16.9941 -28.998l-103.5 -153c-38.333 -58.667 -76.166 -125 -113.5 -199c-36.667 76 -74.667 149.833 -114 221.5s-77.666 134.167 -115 187.5c-19.333 -25.333 -40.166 -55.5 -62.5 -90.5c-22.333 -35 -45 -73.667 -68 -116s-45.333 -88.166 -67 -137.499
s-41.834 -101 -60.501 -155c-39.333 109.333 -82.666 208.5 -129.999 297.5s-92.666 164.5 -135.999 226.5c-5.33301 -88 -19.833 -172 -43.5 -252s-54.834 -154.333 -93.501 -223s-84.334 -130.667 -137.001 -186s-110.834 -102.666 -174.501 -141.999
s-132.167 -69.666 -205.5 -90.999s-150.333 -32 -231 -32c-88.667 0 -170.834 11.5 -246.501 34.5s-144.167 54.667 -205.5 95s-115.333 87.833 -162 142.5s-85.834 113.667 -117.501 177s-55.667 129.666 -72 198.999s-24.5 138.666 -24.5 207.999
c0 61.333 7.16699 123.666 21.5 186.999s35.333 124.666 63 183.999s61.834 115 102.501 167s87.5 97.333 140.5 136s112 69.167 177 91.5s135.833 33.5 212.5 33.5c71.333 0 136.166 -8.33301 194.499 -25s110 -39.5 155 -68.5s84 -63.5 117 -103.5
s60.167 -83.333 81.5 -130s37.166 -95.834 47.499 -147.501s15.5 -103.834 15.5 -156.501l-254 -4c0 118.667 -28.333 209 -85 271s-136.334 96 -239.001 102c-74.667 0 -141.167 -14.667 -199.5 -44s-107.666 -69.166 -147.999 -119.499s-71 -109.333 -92 -177
s-31.5 -139.834 -31.5 -216.501c0 -74 13.5 -145 40.5 -213s65 -128 114 -180s108 -93.667 177 -125s145.5 -47 229.5 -47c81.333 0 154 12.333 218 37s120.167 59.167 168.5 103.5s89.666 97 123.999 158s62.166 127.5 83.499 199.5s36.833 148.333 46.5 229
s14.5 163 14.5 247l189 103c30.667 -32.667 60.667 -67.5 90 -104.5s56.833 -73.667 82.5 -110s49.334 -71.666 71.001 -105.999s40.167 -65.5 55.5 -93.5l54.5 86l63.5 96.5l67.5 99.5l68.5 95l65 -97l64 -101l57.5 -96l46.5 -83l152 205h516l172 -266h-610z" />
    <glyph glyph-name="ZWSP" unicode="&#x200b;" 
 />
    <glyph glyph-name="endash" unicode="&#x2013;" horiz-adv-x="1580" 
d="M1580 901v-242h-1580v242h1580z" />
    <glyph glyph-name="emdash" unicode="&#x2014;" horiz-adv-x="1973" 
d="M1974 901v-242h-1972v242h1972z" />
    <glyph glyph-name="quoteleft" unicode="&#x2018;" horiz-adv-x="770" 
d="M221 1270l0.00292969 291.001c0 54.667 6.16699 109.167 18.5 163.5s31.666 103.5 57.999 147.5s60.333 80.333 102 109s91.5 44.334 149.5 47.001v-158c-32.667 -2.66699 -59.834 -14.334 -81.501 -35.001s-38.834 -44.834 -51.501 -72.501s-21.667 -56.5 -27 -86.5
s-8 -56 -8 -78h168v-328h-328z" />
    <glyph glyph-name="quoteright" unicode="&#x2019;" horiz-adv-x="770" 
d="M549 1999l-0.00292969 -291.001c0 -54.667 -6.16699 -109.167 -18.5 -163.5s-31.666 -103.5 -57.999 -147.5s-60.333 -80.333 -102 -109s-91.5 -44.334 -149.5 -47.001v158c32.667 2.66699 59.834 14.334 81.501 35.001s38.834 44.834 51.501 72.501s21.667 56.5 27 86.5
s8 56 8 78h-168v328h328z" />
    <glyph glyph-name="quotedblleft" unicode="&#x201c;" horiz-adv-x="1184" 
d="M174 1270l0.00292969 291.001c0 54.667 6.16699 109.167 18.5 163.5s31.666 103.5 57.999 147.5s60.333 80.333 102 109s91.5 44.334 149.5 47.001v-158c-32.667 -2.66699 -59.834 -14.334 -81.501 -35.001s-38.834 -44.834 -51.501 -72.501s-21.667 -56.5 -27 -86.5
s-8 -56 -8 -78h168v-328h-328zM682.003 1270l0.00292969 291.001c0 54.667 6.16699 109.167 18.5 163.5s31.666 103.5 57.999 147.5s60.333 80.333 102 109s91.5 44.334 149.5 47.001v-158c-32.667 -2.66699 -59.834 -14.334 -81.501 -35.001
s-38.834 -44.834 -51.501 -72.501s-21.667 -56.5 -27 -86.5s-8 -56 -8 -78h168v-328h-328z" />
    <glyph glyph-name="quotedblright" unicode="&#x201d;" horiz-adv-x="1184" 
d="M1010 1999l-0.00292969 -291.001c0 -54.667 -6.16699 -109.167 -18.5 -163.5s-31.666 -103.5 -57.999 -147.5s-60.333 -80.333 -102 -109s-91.5 -44.334 -149.5 -47.001v158c32.667 2.66699 59.834 14.334 81.501 35.001s38.834 44.834 51.501 72.501
s21.667 56.5 27 86.5s8 56 8 78h-168v328h328zM501.997 1999l-0.00292969 -291.001c0 -54.667 -6.16699 -109.167 -18.5 -163.5s-31.666 -103.5 -57.999 -147.5s-60.333 -80.333 -102 -109s-91.5 -44.334 -149.5 -47.001v158c32.667 2.66699 59.834 14.334 81.501 35.001
s38.834 44.834 51.501 72.501s21.667 56.5 27 86.5s8 56 8 78h-168v328h328z" />
    <glyph glyph-name="bullet" unicode="&#x2022;" horiz-adv-x="1008" 
d="M74 860c0 53.333 11.167 104.5 33.5 153.5s52.833 92.167 91.5 129.5s83.834 67.166 135.501 89.499s106.834 33.5 165.501 33.5c59.333 0 115.333 -11.167 168 -33.5s98.667 -52.166 138 -89.499s70.5 -80.5 93.5 -129.5s34.5 -100.167 34.5 -153.5
c0 -57.333 -11.5 -111.166 -34.5 -161.499s-54.167 -94.166 -93.5 -131.499s-85.333 -66.833 -138 -88.5s-108.667 -32.5 -168 -32.5c-58.667 0 -113.834 10.833 -165.501 32.5s-96.834 51.167 -135.501 88.5s-69.167 81.166 -91.5 131.499s-33.5 104.166 -33.5 161.499z
" />
    <glyph glyph-name="Euro" unicode="&#x20ac;" horiz-adv-x="2150" 
d="M583 737c17.333 -79.333 43.3398 -152.336 78.0068 -219.003s78 -124.5 130 -173.5s112.667 -87.167 182 -114.5s147.333 -41 234 -41c74 0 142.167 14.667 204.5 44s116.5 68.5 162.5 117.5s82.667 105 110 168s43.333 128.5 48 196.5h275
c0 -57.333 -8.5 -115.666 -25.5 -174.999s-41.5 -117 -73.5 -173s-71.333 -108.667 -118 -158s-99.334 -92.5 -158.001 -129.5s-122.834 -66.167 -192.501 -87.5s-143.834 -32 -222.501 -32c-132.667 0 -251.5 19 -356.5 57s-196 91.167 -273 159.5
s-139.833 150.166 -188.5 245.499s-82.667 200.333 -102 315h-223v180h206c-0.666992 8.66699 -1 17.167 -1 25.5v26.5c0 17.333 0.333008 34.166 1 50.499s1.66699 33.166 3 50.499h-209v180h234c22.667 106 58.667 204.833 108 296.5s111.5 171.334 186.5 239.001
s163 120.834 264 159.501s214.5 58 340.5 58c81.333 0 157.5 -9.66699 228.5 -29s135.667 -45.833 194 -79.5s110.166 -73.167 155.499 -118.5s83.666 -94.166 114.999 -146.499s55.166 -106.833 71.499 -163.5s24.5 -112.667 24.5 -168h-285
c0 34.667 -5.16699 70.334 -15.5 107.001s-25.666 72.5 -45.999 107.5s-45.333 68 -75 99s-63.334 58.333 -101.001 82s-79.167 42.334 -124.5 56.001s-94 20.5 -146 20.5c-88.667 0 -167.334 -13.5 -236.001 -40.5s-128.334 -64 -179.001 -111s-92.667 -102 -126 -165
s-58.666 -130.833 -75.999 -203.5h635v-180h-661c-2 -27.333 -3 -54 -3 -80v-37c0 -12 0.666992 -24 2 -36h662v-180h-638z" />
    <glyph glyph-name="trademark" unicode="&#x2122;" horiz-adv-x="2734" 
d="M2296 836l-2 917l-339 -917h-135l-344 921v-921h-205v1163h303l316 -852l307 852h308v-1163h-209zM713 1827v-991h-205v991h-340v172h886v-172h-341z" />
    <glyph glyph-name="uni25CC" unicode="&#x25cc;" horiz-adv-x="1868" 
d="M569 455l65.998 159c14.667 -22.667 30.334 -43.167 47.001 -61.5s36.334 -34.5 59.001 -48.5zM933.998 1303l74 -156c-27.333 6 -55 8.33301 -83 7s-52.333 -5 -73 -11zM933.998 303l-74 152.001c24.667 -6.66699 47.5 -9.83398 68.5 -9.50098s46.167 4.83301 75.5 13.5
zM1434 803.001l-156 -69.999c8 22.667 12.167 46.167 12.5 70.5s-2.5 50.166 -8.5 77.499zM433.998 807.002l160 78c-4 -24.667 -6.5 -50.167 -7.5 -76.5s1.5 -52.833 7.5 -79.5zM597.998 1159l164 -56.998c-28.667 -14.667 -53.167 -30.334 -73.5 -47.001
s-36.833 -35.334 -49.5 -56.001zM1274 451.004l-152 48.999c22.667 14 42.5 29.333 59.5 46s32.833 35.334 47.5 56.001zM1298 1159l-69 -164c-14.667 22.667 -31.667 43.167 -51 61.5s-39.333 34.833 -60 49.5z" />
    <glyph glyph-name="thothannobasethai" unicode="&#xf700;" horiz-adv-x="1565" 
d="M1430 1135c-0.666992 -44 -7.16406 -94.6699 -19.4971 -152.003s-28.333 -118.833 -48 -184.5s-42.334 -133.667 -68.001 -204s-52.5 -140.166 -80.5 -209.499l-84.5 -202.5l-80.5 -182.5h-377l-266 774h-218v209h430l246 -741l56 132.5l60 148.5l58.5 156
c19 52.667 35.833 104.334 50.5 155.001s26.5 99.334 35.5 146.001s13.833 90 14.5 130c2 124 -28.167 217.167 -90.5 279.5s-156.5 93.5 -282.5 93.5c-101.333 0 -182.333 -24.833 -243 -74.5s-101.334 -121.834 -122.001 -216.501h-303
c12 76.667 36.5 146.834 73.5 210.501s85.167 118.5 144.5 164.5s129.5 81.667 210.5 107s171.833 38 272.5 38c45.333 0 91 -3.16699 137 -9.5s91.667 -16.833 137 -31.5c32 2 58.833 8.66699 80.5 20s39.5 25.333 53.5 42s24.167 35 30.5 55s10.166 39.667 11.499 59h295
c-1.33301 -28.667 -6.5 -58.667 -15.5 -90s-23.333 -61.333 -43 -90s-45.167 -54.667 -76.5 -78s-69.666 -41 -114.999 -53c21.333 -22.667 40.666 -47.667 57.999 -75s32 -57.5 44 -90.5s20.833 -69 26.5 -108s8.16699 -81.5 7.5 -127.5z" />
    <glyph glyph-name="yoyingnobasethai" unicode="&#xf70f;" horiz-adv-x="2601" 
d="M1212 1049c0 52 -7.16602 103.665 -21.499 154.998s-38.5 97.5 -72.5 138.5s-78.667 74.333 -134 100s-124 39.167 -206 40.5c-69.333 0.666992 -130.5 -7.66602 -183.5 -24.999s-97.667 -40.166 -134 -68.499s-64.5 -59.833 -84.5 -94.5s-32 -69 -36 -103
c19.333 -11.333 36.666 -26.5 51.999 -45.5s28.166 -41 38.499 -66s18.333 -52.333 24 -82s8.5 -60.834 8.5 -93.501v-696h180v-209h-450v909c0 26 -1.83301 52.167 -5.5 78.5s-10.5 52 -20.5 77s-23.833 48.333 -41.5 70s-40.5 40.834 -68.5 57.501
c14.667 63.333 39.5 126.333 74.5 189s81.833 118.834 140.5 168.501s129.834 89.834 213.501 120.501s181.167 46 292.5 46c90 0 170 -9 240 -27s131.333 -42.833 184 -74.5s97.167 -69.5 133.5 -113.5s65.666 -91.833 87.999 -143.5s38.5 -106.5 48.5 -164.5
s15 -117 15 -177v-467c0 -59.333 9.5 -111.833 28.5 -157.5s44.333 -83.834 76 -114.501s68.167 -53.834 109.5 -69.501s84.666 -23.5 129.999 -23.5c44 0 86 7.16699 126 21.5s75.333 36.333 106 66s55 67.5 73 113.5s27 100.667 27 164v1130h274v-1159
c0 -96 -17 -179.333 -51 -250s-79.167 -129 -135.5 -175s-120.833 -80.167 -193.5 -102.5s-148 -33.5 -226 -33.5c-81.333 0 -159.166 12 -233.499 36s-140.166 59.5 -197.499 106.5s-103 105.5 -137 175.5s-51 151 -51 243v529z" />
    <glyph glyph-name="saraulowthai" unicode="&#xf718;" 
d="M-422 -1282v397h-147v201h405v-598h-258z" />
    <glyph glyph-name="sarauulowthai" unicode="&#xf719;" 
d="M-1167 -684h409v-201c0 -64 13.5 -112 40.5 -144s69.5 -48 127.5 -48c112 0 168 64 168 192v201h258v-201c0 -54 -7.33301 -105.167 -22 -153.5s-38.834 -90.5 -72.501 -126.5s-77.667 -64.5 -132 -85.5s-120.833 -31.5 -199.5 -31.5c-78 0 -144.167 9.5 -198.5 28.5
s-98.666 46 -132.999 81s-59.333 76.833 -75 125.5s-23.5 102.667 -23.5 162h-147v201z" />
    <glyph glyph-name="phinthulowthai" unicode="&#xf71a;" 
d="M-504 -856c0 28 5.33301 54 16 78s25 44.833 43 62.5s39.167 31.5 63.5 41.5s50.5 15 78.5 15c26.667 0 51.834 -5 75.501 -15s44.5 -23.833 62.5 -41.5s32.333 -38.5 43 -62.5s16 -50 16 -78s-5.33301 -54 -16 -78s-25 -44.833 -43 -62.5s-38.833 -31.5 -62.5 -41.5
s-48.834 -15 -75.501 -15c-28 0 -54.167 5 -78.5 15s-45.5 23.833 -63.5 41.5s-32.333 38.5 -43 62.5s-16 50 -16 78z" />
    <glyph glyph-name="lochula.short" unicode="&#xf71d;" horiz-adv-x="2146" 
d="M1688 0l-299.002 0.000976562l-324 1081h-12l-324 -1081h-303l-377 1679h307l226 -1376h8l319 1081h299l320 -1081h8l160 807c11.333 62.667 18.333 118.667 21 168s-2.16602 91.333 -14.499 126s-33.666 61.167 -63.999 79.5s-72.833 27.5 -127.5 27.5v172
c52 2 99.333 8.16699 142 18.5s79.667 26 111 47s56.5 47.667 75.5 80s31.167 71.5 36.5 117.5h319c-7.33301 -57.333 -22.666 -107 -46 -149c-23.333 -42 -52.166 -77.333 -86.5 -106c-34.333 -28.667 -72.5 -51.334 -114.5 -68.001s-85 -28 -129 -34
c34.667 -10 65.167 -26.667 91.5 -50s46.833 -53 61.5 -89s22.5 -78 23.5 -126s-6.16699 -101.667 -21.5 -161z" />
    <glyph glyph-name="yamakkanleftthai" 
d="M-504 2421c-46 0 -83.6699 -3.33105 -113.003 -9.99805s-52.166 -17.334 -68.499 -32c-16.333 -14.667 -27.666 -34.167 -33.999 -58.5s-9.5 -53.833 -9.5 -88.5v-45h-57c-41.333 0 -75.333 -5.16699 -102 -15.5s-48 -25.333 -64 -45s-27.167 -43.334 -33.5 -71.001
s-9.5 -58.834 -9.5 -93.501h-254c0 49.333 5.83301 96 17.5 140s29.834 83.833 54.501 119.5s56.5 66 95.5 91s85.5 43.167 139.5 54.5c7.33301 38.667 21.166 73.834 41.499 105.5c20.333 31.667 48.333 58.667 84 81s79.334 40.166 131.001 53.5
c51.667 13.333 112.167 21 181.5 23v-209z" />
    <glyph glyph-name="saraamleft" horiz-adv-x="1380" 
d="M53 1192c0 56.667 7.66797 108.83 23.001 156.497s36.5 90.834 63.5 129.501s59.167 72.5 96.5 101.5s77.833 53.333 121.5 73s89.667 34.5 138 44.5s97.5 15 147.5 15c82 0 158 -11.167 228 -33.5s130.667 -56.166 182 -101.499s91.5 -102.833 120.5 -172.5
s43.5 -151.5 43.5 -245.5v-1159h-271v1102c0 132.667 -25.833 229.334 -77.5 290.001s-126.834 91 -225.501 91c-88 0 -159 -24.5 -213 -73.5s-84 -121.5 -90 -217.5h-287zM-1217 2224c0 38.667 7.5 75.334 22.5 110c15 34.667 35.167 64.667 60.5 90
s55.166 45.5 89.499 60.5s71.166 22.5 110.499 22.5c38 0 74.167 -7.5 108.5 -22.5s64.333 -35.167 90 -60.5s46.167 -55.333 61.5 -90s23 -71.334 23 -110c0 -39.333 -7.66699 -76 -23 -110s-35.833 -63.833 -61.5 -89.5s-55.667 -45.834 -90 -60.501s-70.5 -22 -108.5 -22
c-39.333 0 -76.166 7.33301 -110.499 22s-64.166 34.834 -89.499 60.501s-45.5 55.5 -60.5 89.5s-22.5 70.667 -22.5 110zM-1049 2224c0 -15.333 3.16699 -30 9.5 -44s14.666 -26.167 24.999 -36.5s22.5 -18.666 36.5 -25c14 -6.33301 28.667 -9.5 44 -9.5
s30 3.16699 44 9.5s26.167 14.666 36.5 25c10.333 10.333 18.666 22.5 24.999 36.5s9.5 28.667 9.5 44s-3.16699 30 -9.5 44s-14.666 26.167 -24.999 36.5s-22.5 18.666 -36.5 25c-14 6.33301 -28.667 9.5 -44 9.5s-30 -3.16699 -44 -9.5s-26.167 -14.666 -36.5 -25
c-10.333 -10.333 -18.666 -22.5 -24.999 -36.5s-9.5 -28.667 -9.5 -44z" />
    <glyph glyph-name="uni0E33.alt1" horiz-adv-x="1380" 
d="M53 1192c0 56.667 7.66797 108.83 23.001 156.497s36.5 90.834 63.5 129.501s59.167 72.5 96.5 101.5s77.833 53.333 121.5 73s89.667 34.5 138 44.5s97.5 15 147.5 15c82 0 158 -11.167 228 -33.5s130.667 -56.166 182 -101.499s91.5 -102.833 120.5 -172.5
s43.5 -151.5 43.5 -245.5v-1159h-271v1102c0 132.667 -25.833 229.334 -77.5 290.001s-126.834 91 -225.501 91c-88 0 -159 -24.5 -213 -73.5s-84 -121.5 -90 -217.5h-287zM-1217 2224c0 38.667 7.5 75.334 22.5 110c15 34.667 35.167 64.667 60.5 90
s55.166 45.5 89.499 60.5s71.166 22.5 110.499 22.5c38 0 74.167 -7.5 108.5 -22.5s64.333 -35.167 90 -60.5s46.167 -55.333 61.5 -90s23 -71.334 23 -110c0 -39.333 -7.66699 -76 -23 -110s-35.833 -63.833 -61.5 -89.5s-55.667 -45.834 -90 -60.501s-70.5 -22 -108.5 -22
c-39.333 0 -76.166 7.33301 -110.499 22s-64.166 34.834 -89.499 60.501s-45.5 55.5 -60.5 89.5s-22.5 70.667 -22.5 110zM-1049 2224c0 -15.333 3.16699 -30 9.5 -44s14.666 -26.167 24.999 -36.5s22.5 -18.666 36.5 -25c14 -6.33301 28.667 -9.5 44 -9.5
s30 3.16699 44 9.5s26.167 14.666 36.5 25c10.333 10.333 18.666 22.5 24.999 36.5s9.5 28.667 9.5 44s-3.16699 30 -9.5 44s-14.666 26.167 -24.999 36.5s-22.5 18.666 -36.5 25c-14 6.33301 -28.667 9.5 -44 9.5s-30 -3.16699 -44 -9.5s-26.167 -14.666 -36.5 -25
c-10.333 -10.333 -18.666 -22.5 -24.999 -36.5s-9.5 -28.667 -9.5 -44z" />
    <glyph glyph-name="saraithai.alt1" 
d="M-1311 1962l107 209h1040v-209h-1147z" />
    <glyph glyph-name="saraiithai.alt1" 
d="M-1204 2171h778v258h262v-467h-1147z" />
    <glyph glyph-name="sarauethai.alt1" 
d="M-496 2228c0 -14 2.83301 -27.333 8.5 -40s13.5 -23.5 23.5 -32.5s21.5 -16.167 34.5 -21.5s26.5 -8 40.5 -8s27.5 2.66699 40.5 8s24.333 12.5 34 21.5s17.334 19.833 23.001 32.5s8.5 26 8.5 40c0 15.333 -2.83301 29.5 -8.5 42.5s-13.334 24.333 -23.001 34
s-21 17.167 -34 22.5s-26.5 8 -40.5 8s-27.5 -2.66699 -40.5 -8s-24.5 -12.833 -34.5 -22.5s-17.833 -21 -23.5 -34s-8.5 -27.167 -8.5 -42.5zM-655 2228c0 36.667 6.83398 71.167 20.501 103.5s32.5 60.5 56.5 84.5s52.167 43 84.5 57s67.166 21 104.499 21
c36.667 0 71.167 -7 103.5 -21s60.5 -33 84.5 -57s43 -52.167 57 -84.5s21 -66.833 21 -103.5s-7 -71.167 -21 -103.5s-33 -60.5 -57 -84.5s-52.167 -43 -84.5 -57s-66.833 -21 -103.5 -21h-922l107 209h553c-2 10 -3.16699 20 -3.5 30s-0.5 19 -0.5 27z" />
    <glyph glyph-name="saraueethai.alt1" 
d="M-1204 2171h344v258h258v-258h180v258h258v-467h-1147z" />
    <glyph glyph-name="saraithai.alt2" 
d="M-2109 1962l102 209h1417v-209h-1519z" />
    <glyph glyph-name="saraiithai.alt2" 
d="M-2007 2171h1155v258h262v-467h-1519z" />
    <glyph glyph-name="sarauethai.alt2" 
d="M-893 2228c0 -28.667 10 -52.834 30 -72.5c20 -19.667 45.667 -29.5 77 -29.5c28.667 0 52.834 9.83301 72.501 29.5s29.5 43.834 29.5 72.5c0 31.333 -9.83301 57 -29.5 77s-43.834 30 -72.501 30c-31.333 0 -57 -10 -77 -30s-30 -45.667 -30 -77zM-1053 2228
c0 36.667 7.00098 71.167 21.001 103.5s33 60.5 57 84.5s52.167 43 84.5 57s67.166 21 104.499 21c36.667 0 71 -7 103 -21s59.667 -33 83 -57s41.833 -52.167 55.5 -84.5s20.5 -66.833 20.5 -103.5s-6.83301 -71.167 -20.5 -103.5s-32.167 -60.5 -55.5 -84.5
s-51 -43 -83 -57s-66.333 -21 -103 -21h-1335l106 209h966c-2 10 -3.16699 20 -3.5 30s-0.5 19 -0.5 27z" />
    <glyph glyph-name="saraueethai.alt2" 
d="M-2023 2171h737v258h258v-258h180v258h258v-467h-1535z" />
    <glyph glyph-name="maiekthai.alt2" 
d="M-852 3060h262v-443h-262v443z" />
    <glyph glyph-name="maithothai.alt2" 
d="M-1102 2621l0.000976562 250h-143v201h373v-250c60 0 113.833 6.5 161.5 19.5s88 30.833 121 53.5s58.333 49.167 76 79.5s26.5 62.833 26.5 97.5h249c0 -58 -13.167 -114.167 -39.5 -168.5s-66 -102.5 -119 -144.5s-119.833 -75.5 -200.5 -100.5
s-175.334 -37.5 -284.001 -37.5h-221z" />
    </font>
</defs>
</svg>
